<?xml version="1.0" standalone="no"?>
<!DOCTYPE svg PUBLIC "-//W3C//DTD SVG 20010904//EN"
 "http://www.w3.org/TR/2001/REC-SVG-20010904/DTD/svg10.dtd">
<svg version="1.0" xmlns="http://www.w3.org/2000/svg"
 width="1280.000000pt" height="720.000000pt" viewBox="0 0 1280.000000 720.000000"
 preserveAspectRatio="xMidYMid meet">

<g transform="translate(0.000000,720.000000) scale(0.100000,-0.100000)"
fill="#000000" stroke="none">
<path d="M32 7178 c8 -13 120 -206 248 -430 129 -225 237 -408 241 -408 10 0
210 352 207 364 -2 6 -58 120 -126 254 l-122 242 -231 0 -231 0 14 -22z"/>
<path d="M750 7040 c44 -88 82 -160 84 -160 3 0 44 69 91 153 48 83 89 155 92
160 2 4 -75 7 -171 7 l-176 0 80 -160z"/>
<path d="M1315 6996 c-42 -18 -59 -42 -59 -82 0 -48 29 -72 109 -95 37 -10 76
-26 86 -35 43 -39 8 -84 -65 -84 -57 0 -84 13 -96 46 -10 25 -50 35 -50 12 0
-21 37 -76 58 -87 92 -49 212 -1 212 86 0 46 -34 78 -106 98 -97 27 -106 32
-102 63 7 60 114 68 146 11 19 -32 52 -39 52 -11 0 66 -107 112 -185 78z"/>
<path d="M1870 6990 c-11 -11 -20 -33 -20 -50 0 -23 -4 -30 -20 -30 -12 0 -20
-7 -20 -16 0 -9 9 -18 20 -21 18 -5 20 -14 20 -109 0 -97 1 -104 20 -104 19 0
20 7 20 105 l0 105 25 0 c18 0 25 5 25 20 0 15 -7 20 -25 20 -17 0 -25 5 -25
18 0 23 19 42 41 42 17 0 32 23 22 34 -14 13 -64 5 -83 -14z"/>
<path d="M3345 6996 c-42 -18 -59 -42 -59 -82 0 -48 29 -72 109 -95 37 -10 76
-26 86 -35 43 -39 8 -84 -65 -84 -57 0 -84 13 -96 46 -10 25 -50 35 -50 12 0
-21 37 -76 58 -87 92 -49 212 -1 212 86 0 46 -34 78 -106 98 -97 27 -106 32
-102 63 7 60 114 68 146 11 19 -32 52 -39 52 -11 0 66 -107 112 -185 78z"/>
<path d="M4240 6830 c0 -163 1 -170 20 -170 17 0 20 7 20 48 0 43 12 72 31 72
3 0 23 -27 43 -60 29 -47 43 -60 62 -60 13 0 24 2 24 5 0 3 -22 39 -49 79
l-49 73 46 46 c44 44 45 47 22 47 -16 0 -42 -18 -77 -52 l-53 -52 0 97 c0 90
-1 97 -20 97 -19 0 -20 -7 -20 -170z"/>
<path d="M4590 6993 c0 -5 19 -81 42 -171 41 -158 43 -163 67 -160 23 3 28 14
65 147 22 80 42 138 45 130 2 -8 21 -72 41 -144 34 -119 39 -130 60 -130 22 0
27 11 66 155 24 85 43 161 44 168 0 6 -9 12 -20 12 -21 0 -25 -10 -62 -172
-21 -89 -38 -125 -38 -81 0 9 -15 70 -32 136 l-33 118 -30 -3 c-29 -3 -31 -6
-58 -103 -15 -55 -32 -118 -39 -140 l-11 -40 -23 103 c-39 172 -43 182 -64
182 -11 0 -20 -3 -20 -7z"/>
<path d="M5090 6975 c0 -18 5 -25 20 -25 15 0 20 7 20 25 0 18 -5 25 -20 25
-15 0 -20 -7 -20 -25z"/>
<path d="M5320 6830 c0 -163 1 -170 20 -170 18 0 20 7 20 74 0 89 11 122 44
138 20 9 30 8 51 -6 24 -16 25 -21 25 -111 0 -88 1 -95 20 -95 19 0 20 7 20
105 0 94 -2 106 -22 125 -26 24 -84 27 -116 4 l-22 -15 0 60 c0 54 -2 61 -20
61 -19 0 -20 -7 -20 -170z"/>
<path d="M5710 6830 c0 -163 1 -170 20 -170 18 0 20 7 20 75 l0 75 80 0 c79 0
80 0 80 25 0 25 -1 25 -80 25 l-80 0 0 50 0 50 95 0 c88 0 95 1 95 20 0 19 -7
20 -115 20 l-115 0 0 -170z"/>
<path d="M5990 6975 c0 -18 5 -25 20 -25 15 0 20 7 20 25 0 18 -5 25 -20 25
-15 0 -20 -7 -20 -25z"/>
<path d="M6740 6830 l0 -170 110 0 c103 0 110 1 110 20 0 18 -7 20 -85 20
l-85 0 0 150 0 150 -25 0 -25 0 0 -170z"/>
<path d="M1992 6978 c-7 -7 -12 -25 -12 -40 0 -18 -5 -28 -15 -28 -8 0 -15 -9
-15 -20 0 -11 7 -20 15 -20 12 0 15 -17 15 -94 0 -71 4 -97 15 -106 15 -12 61
-17 71 -8 10 11 -9 38 -27 38 -17 0 -19 8 -19 85 0 78 2 85 20 85 13 0 20 7
20 20 0 13 -7 20 -20 20 -17 0 -20 7 -20 40 0 41 -7 49 -28 28z"/>
<path d="M3622 6978 c-7 -7 -12 -25 -12 -40 0 -18 -5 -28 -15 -28 -8 0 -15 -9
-15 -20 0 -11 7 -20 15 -20 12 0 15 -17 15 -94 0 -71 4 -97 15 -106 15 -12 61
-17 71 -8 10 11 -9 38 -27 38 -17 0 -19 8 -19 85 0 78 2 85 20 85 13 0 20 7
20 20 0 13 -7 20 -20 20 -17 0 -20 7 -20 40 0 41 -7 49 -28 28z"/>
<path d="M5212 6978 c-7 -7 -12 -25 -12 -40 0 -18 -5 -28 -15 -28 -8 0 -15 -9
-15 -20 0 -11 7 -20 15 -20 12 0 15 -17 15 -94 0 -71 4 -97 15 -106 15 -12 61
-17 71 -8 10 11 -9 38 -27 38 -17 0 -19 8 -19 85 0 78 2 85 20 85 13 0 20 7
20 20 0 13 -7 20 -20 20 -17 0 -20 7 -20 40 0 41 -7 49 -28 28z"/>
<path d="M1597 6887 c-49 -39 -56 -149 -12 -197 44 -49 133 -46 174 6 43 55
35 154 -16 194 -36 28 -109 27 -146 -3z m118 -32 c52 -51 21 -165 -45 -165
-66 0 -97 114 -45 165 13 14 34 25 45 25 12 0 32 -11 45 -25z"/>
<path d="M2072 6898 c3 -7 20 -64 39 -125 29 -100 36 -113 55 -113 19 0 25 10
38 55 9 30 19 68 22 85 4 16 10 30 13 30 4 0 16 -37 27 -82 17 -75 22 -83 44
-86 24 -2 27 4 59 110 19 62 36 119 39 126 2 7 -4 12 -16 12 -20 0 -36 -40
-76 -184 -1 -6 -13 33 -27 85 -20 80 -27 94 -46 97 -22 3 -24 0 -64 -148 l-12
-45 -26 95 c-23 83 -29 95 -50 98 -17 3 -22 0 -19 -10z"/>
<path d="M2456 6889 c-26 -21 -36 -59 -15 -59 7 0 22 11 35 25 27 30 63 32 95
7 35 -29 19 -49 -46 -57 -70 -9 -105 -35 -105 -79 0 -61 57 -88 128 -60 33 12
47 14 50 6 2 -7 13 -12 24 -12 16 0 19 5 14 23 -3 12 -6 59 -6 105 0 69 -3 85
-20 102 -28 28 -117 28 -154 -1z m134 -128 c0 -10 -9 -30 -21 -45 -24 -30 -78
-36 -100 -10 -19 24 0 47 52 61 62 16 69 16 69 -6z"/>
<path d="M2700 6785 c0 -118 1 -125 20 -125 18 0 20 7 20 78 0 95 14 127 55
127 23 1 30 5 30 20 0 27 -54 34 -72 9 -12 -16 -13 -16 -13 -1 0 10 -8 17 -20
17 -19 0 -20 -7 -20 -125z"/>
<path d="M2884 6876 c-31 -31 -34 -39 -34 -94 0 -70 21 -104 75 -122 61 -20
145 19 145 67 0 21 -31 15 -56 -12 -31 -34 -76 -33 -103 1 -37 47 -30 53 72
56 l92 3 -4 30 c-4 40 -27 82 -50 95 -11 5 -38 10 -61 10 -34 0 -48 -6 -76
-34z m120 -17 c46 -36 35 -49 -43 -49 -65 0 -69 1 -64 20 6 24 40 50 64 50 9
0 28 -9 43 -21z"/>
<path d="M3756 6889 c-26 -21 -36 -59 -15 -59 7 0 22 11 35 25 27 30 63 32 95
7 35 -29 19 -49 -46 -57 -70 -9 -105 -35 -105 -79 0 -61 57 -88 128 -60 33 12
47 14 50 6 2 -7 13 -12 24 -12 16 0 19 5 14 23 -3 12 -6 59 -6 105 0 69 -3 85
-20 102 -28 28 -117 28 -154 -1z m134 -128 c0 -10 -9 -30 -21 -45 -24 -30 -78
-36 -100 -10 -19 24 0 47 52 61 62 16 69 16 69 -6z"/>
<path d="M4041 6896 c-34 -19 -50 -54 -51 -108 0 -89 38 -134 114 -132 31 1
46 8 68 33 33 37 36 61 8 61 -11 0 -20 -6 -20 -13 0 -21 -34 -47 -62 -47 -41
0 -63 34 -63 97 0 45 4 58 24 74 31 26 57 24 85 -6 23 -25 56 -34 56 -16 0 5
-12 23 -26 40 -21 26 -33 31 -67 31 -23 -1 -53 -7 -66 -14z"/>
<path d="M5090 6785 c0 -118 1 -125 20 -125 19 0 20 7 20 125 0 118 -1 125
-20 125 -19 0 -20 -7 -20 -125z"/>
<path d="M5990 6785 c0 -118 1 -125 20 -125 19 0 20 7 20 125 0 118 -1 125
-20 125 -19 0 -20 -7 -20 -125z"/>
<path d="M6071 6898 c0 -7 19 -62 43 -123 33 -88 46 -111 63 -113 17 -3 25 6
41 50 11 29 32 84 46 122 14 37 26 70 26 73 0 2 -10 3 -21 1 -17 -2 -28 -21
-53 -90 -30 -82 -46 -115 -46 -90 0 6 -14 49 -31 96 -24 67 -35 86 -50 86 -10
0 -19 -6 -18 -12z"/>
<path d="M6364 6876 c-31 -31 -34 -39 -34 -94 0 -70 21 -104 75 -122 61 -20
145 19 145 67 0 21 -31 15 -56 -12 -31 -34 -76 -33 -103 1 -37 47 -30 53 72
56 l92 3 -4 30 c-4 40 -27 82 -50 95 -11 5 -38 10 -61 10 -34 0 -48 -6 -76
-34z m120 -17 c46 -36 35 -49 -43 -49 -65 0 -69 1 -64 20 6 24 40 50 64 50 9
0 28 -9 43 -21z"/>
<path d="M7036 6889 c-26 -21 -36 -59 -15 -59 7 0 22 11 35 25 27 30 63 32 95
7 35 -29 19 -49 -46 -57 -70 -9 -105 -35 -105 -79 0 -61 57 -88 128 -60 33 12
47 14 50 6 2 -7 13 -12 24 -12 16 0 19 5 14 23 -3 12 -6 59 -6 105 0 69 -3 85
-20 102 -28 28 -117 28 -154 -1z m134 -128 c0 -10 -9 -30 -21 -45 -24 -30 -78
-36 -100 -10 -19 24 0 47 52 61 62 16 69 16 69 -6z"/>
<path d="M7260 6905 c0 -4 21 -63 47 -130 45 -120 46 -125 29 -149 -10 -16
-26 -26 -40 -26 -19 0 -23 -4 -19 -20 10 -36 66 -23 88 20 15 30 115 292 115
303 0 4 -9 7 -19 7 -15 0 -26 -19 -50 -86 -17 -47 -31 -90 -31 -96 0 -25 -16
8 -46 90 -25 69 -36 88 -53 90 -11 2 -21 0 -21 -3z"/>
<path d="M7534 6876 c-31 -31 -34 -39 -34 -94 0 -70 21 -104 75 -122 61 -20
145 19 145 67 0 21 -31 15 -56 -12 -31 -34 -76 -33 -103 1 -37 47 -30 53 72
56 l92 3 -4 30 c-4 40 -27 82 -50 95 -11 5 -38 10 -61 10 -34 0 -48 -6 -76
-34z m120 -17 c46 -36 35 -49 -43 -49 -65 0 -69 1 -64 20 6 24 40 50 64 50 9
0 28 -9 43 -21z"/>
<path d="M7780 6785 c0 -118 1 -125 20 -125 18 0 20 7 20 78 0 95 14 127 55
127 23 1 30 5 30 20 0 27 -54 34 -72 9 -12 -16 -13 -16 -13 -1 0 10 -8 17 -20
17 -19 0 -20 -7 -20 -125z"/>
<path d="M1147 5862 l-107 -107 0 -140 0 -140 103 -103 102 -102 410 0 410 0
103 103 102 102 0 140 0 140 -108 108 -107 107 -400 0 -400 0 -108 -108z m204
-162 c18 -45 18 -45 18 -12 1 30 3 32 36 32 22 0 38 -6 44 -17 10 -17 10 -17
11 0 0 13 8 17 35 17 28 0 38 -5 46 -24 14 -30 -3 -66 -31 -66 -11 0 -20 -7
-20 -15 0 -8 -7 -15 -15 -15 -10 0 -15 10 -15 33 -1 26 -2 29 -11 15 -5 -10
-19 -18 -29 -18 -11 0 -20 -7 -20 -15 0 -8 -7 -15 -15 -15 -8 0 -15 6 -15 14
0 8 -7 16 -15 20 -8 3 -15 12 -15 21 0 23 -47 19 -55 -5 -3 -11 -13 -20 -20
-20 -12 0 -11 6 2 38 8 20 19 47 24 60 14 35 39 23 60 -28z m229 -10 c0 -33
-4 -60 -10 -60 -6 0 -10 27 -10 60 0 33 4 60 10 60 6 0 10 -27 10 -60z m240
45 c0 -8 9 -15 20 -15 17 0 20 -7 20 -45 0 -43 -1 -45 -30 -45 -28 0 -30 2
-30 40 0 23 -5 40 -11 40 -7 0 -10 -15 -7 -40 l3 -39 -73 1 c-62 0 -74 3 -83
21 -16 29 4 67 35 67 14 0 28 -4 31 -10 4 -6 -4 -9 -17 -7 -19 2 -23 -3 -23
-27 0 -36 17 -43 42 -18 10 10 26 22 36 25 18 7 24 27 7 27 -5 0 -10 -4 -10
-10 0 -5 -5 -10 -11 -10 -25 0 0 25 27 27 16 0 35 2 42 2 6 1 12 8 12 16 0 8
5 15 10 15 6 0 10 -7 10 -15z m-210 -60 c0 -25 -4 -45 -10 -45 -5 0 -10 20
-10 45 0 25 5 45 10 45 6 0 10 -20 10 -45z m338 33 c7 -7 12 -21 12 -33 0 -47
-62 -63 -81 -21 -22 47 33 90 69 54z m90 -35 c2 -26 -1 -43 -7 -43 -6 0 -11
11 -11 24 0 33 -10 57 -21 50 -5 -3 -9 -21 -9 -40 0 -19 -4 -34 -10 -34 -5 0
-10 21 -10 46 0 45 0 45 33 42 30 -3 32 -6 35 -45z m-558 -168 c0 -54 0 -55
30 -55 20 0 30 5 30 15 0 9 11 20 25 25 14 5 25 14 25 20 0 14 -17 13 -23 -2
-2 -7 -8 -10 -12 -5 -14 12 11 29 36 25 20 -2 25 -10 30 -45 l5 -42 -83 0 -83
0 0 60 c0 33 4 59 10 59 6 0 10 -25 10 -55z m179 3 l8 -23 7 23 c11 32 30 28
21 -5 -14 -57 -34 -93 -52 -93 -14 0 -15 2 -4 9 14 9 12 53 -4 94 -4 10 -3 17
4 17 7 0 15 -10 20 -22z m119 10 c22 -22 13 -38 -19 -38 -20 0 -29 -4 -26 -12
2 -7 16 -12 31 -10 18 2 25 -1 21 -7 -3 -6 -20 -11 -36 -11 -37 0 -57 35 -40
69 13 23 50 28 69 9z m60 5 c-13 -3 -18 -15 -18 -44 0 -21 -4 -39 -10 -39 -5
0 -10 20 -10 45 0 43 1 45 28 44 16 -1 20 -3 10 -6z"/>
<path d="M1306 5705 c-9 -23 -8 -25 9 -25 17 0 19 9 6 28 -7 11 -10 10 -15 -3z"/>
<path d="M1404 5697 c-7 -20 -2 -47 11 -50 14 -3 19 43 6 56 -7 7 -12 6 -17
-6z"/>
<path d="M1494 5697 c-7 -20 -2 -47 11 -50 14 -3 19 43 6 56 -7 7 -12 6 -17
-6z"/>
<path d="M1820 5675 c0 -19 5 -35 10 -35 6 0 10 16 10 35 0 19 -4 35 -10 35
-5 0 -10 -16 -10 -35z"/>
<path d="M1730 5655 c0 -8 5 -15 10 -15 6 0 10 7 10 15 0 8 -4 15 -10 15 -5 0
-10 -7 -10 -15z"/>
<path d="M1904 5696 c-8 -21 -1 -49 13 -53 13 -5 21 23 15 50 -5 21 -21 22
-28 3z"/>
<path d="M1570 5465 c0 -8 5 -15 10 -15 6 0 10 7 10 15 0 8 -4 15 -10 15 -5 0
-10 -7 -10 -15z"/>
<path d="M1736 5513 c-11 -11 -6 -23 9 -23 8 0 15 4 15 9 0 13 -16 22 -24 14z"/>
<path d="M2760 5590 c0 -68 19 -84 21 -17 l1 42 12 -38 c15 -49 26 -51 42 -7
l12 35 1 -37 c2 -63 21 -42 21 22 0 64 -14 79 -30 33 -26 -70 -27 -71 -40 -20
-18 70 -40 63 -40 -13z"/>
<path d="M3343 5590 c0 -36 2 -50 4 -32 2 17 2 47 0 65 -2 17 -4 3 -4 -33z"/>
<path d="M4307 5643 c19 -4 23 -12 26 -61 l3 -57 2 57 c2 50 5 57 25 61 12 2
0 4 -28 4 -27 0 -40 -2 -28 -4z"/>
<path d="M4640 5590 c0 -33 4 -60 10 -60 6 0 10 14 10 30 0 25 4 30 25 30 21
0 25 -5 25 -30 0 -16 5 -30 10 -30 6 0 10 27 10 60 0 33 -4 60 -10 60 -5 0
-10 -11 -10 -25 0 -20 -5 -25 -25 -25 -20 0 -25 5 -25 25 0 14 -4 25 -10 25
-6 0 -10 -27 -10 -60z"/>
<path d="M5757 5643 c19 -4 23 -12 26 -61 l3 -57 2 57 c2 50 5 57 25 61 12 2
0 4 -28 4 -27 0 -40 -2 -28 -4z"/>
<path d="M6090 5590 c0 -33 4 -60 10 -60 6 0 10 14 10 30 0 25 4 30 25 30 21
0 25 -5 25 -30 0 -16 5 -30 10 -30 6 0 10 27 10 60 0 33 -4 60 -10 60 -5 0
-10 -11 -10 -25 0 -20 -5 -25 -25 -25 -20 0 -25 5 -25 25 0 14 -4 25 -10 25
-6 0 -10 -27 -10 -60z"/>
<path d="M7207 5643 c19 -4 23 -12 26 -61 l3 -57 2 57 c2 50 5 57 25 61 12 2
0 4 -28 4 -27 0 -40 -2 -28 -4z"/>
<path d="M7540 5590 c0 -33 4 -60 10 -60 6 0 10 14 10 30 0 25 4 30 25 30 21
0 25 -5 25 -30 0 -16 5 -30 10 -30 6 0 10 27 10 60 0 33 -4 60 -10 60 -5 0
-10 -11 -10 -25 0 -20 -5 -25 -25 -25 -20 0 -25 5 -25 25 0 14 -4 25 -10 25
-6 0 -10 -27 -10 -60z"/>
<path d="M8550 5590 l0 -60 43 2 c36 1 38 2 10 5 -33 4 -33 5 -33 59 0 30 -4
54 -10 54 -6 0 -10 -27 -10 -60z"/>
<path d="M8682 5633 c-4 -10 -5 -38 -1 -63 l6 -45 1 43 c1 26 7 42 15 42 9 0
8 3 -2 9 -11 7 -10 11 5 20 17 9 17 10 2 11 -10 0 -21 -8 -26 -17z"/>
<path d="M8860 5635 c-16 -19 -6 -32 37 -50 19 -8 33 -20 31 -27 -7 -21 -38
-21 -60 -1 -15 12 -20 14 -16 4 7 -23 33 -34 61 -27 40 10 36 43 -8 62 -19 8
-35 21 -35 29 0 17 35 21 45 5 3 -5 11 -10 17 -10 7 0 6 6 -2 15 -16 19 -54
19 -70 0z"/>
<path d="M2978 5630 c-2 -6 -2 -31 0 -55 3 -33 8 -45 20 -45 12 0 13 3 4 12
-14 14 -16 65 -3 70 5 2 3 8 -4 15 -8 8 -15 8 -17 3z"/>
<path d="M4530 5630 c0 -5 -6 -10 -14 -10 -8 0 -17 -7 -20 -17 -6 -14 -8 -14
-21 3 -16 21 -20 8 -5 -16 6 -10 4 -22 -6 -37 -8 -13 -10 -23 -5 -23 5 0 12 8
16 18 6 16 7 16 19 0 19 -27 31 -22 13 5 -10 16 -12 28 -5 40 16 29 28 19 28
-23 0 -31 4 -40 17 -40 13 0 14 3 5 12 -14 14 -16 65 -3 70 5 2 3 9 -5 16 -8
7 -14 8 -14 2z"/>
<path d="M5980 5630 c0 -5 -6 -10 -14 -10 -8 0 -17 -7 -20 -17 -6 -14 -8 -14
-21 3 -16 21 -20 8 -5 -16 6 -10 4 -22 -6 -37 -8 -13 -10 -23 -5 -23 5 0 12 8
16 18 6 16 7 16 19 0 19 -27 31 -22 13 5 -10 16 -12 28 -5 40 16 29 28 19 28
-23 0 -31 4 -40 17 -40 13 0 14 3 5 12 -14 14 -16 65 -3 70 5 2 3 9 -5 16 -8
7 -14 8 -14 2z"/>
<path d="M7430 5630 c0 -5 -6 -10 -14 -10 -8 0 -17 -7 -20 -17 -6 -14 -8 -14
-21 3 -16 21 -20 8 -5 -16 6 -10 4 -22 -6 -37 -8 -13 -10 -23 -5 -23 5 0 12 8
16 18 6 16 7 16 19 0 19 -27 31 -22 13 5 -10 16 -12 28 -5 40 16 29 28 19 28
-23 0 -31 4 -40 17 -40 13 0 14 3 5 12 -14 14 -16 65 -3 70 5 2 3 9 -5 16 -8
7 -14 8 -14 2z"/>
<path d="M2902 5608 c-15 -15 -16 -50 0 -66 14 -14 44 -16 53 -3 3 6 -7 9 -21
8 -15 -1 -29 4 -31 11 -3 8 6 12 27 12 27 0 31 3 28 23 -3 25 -36 35 -56 15z
m46 -15 c2 -8 -6 -13 -22 -13 -19 0 -24 4 -19 15 6 18 34 16 41 -2z"/>
<path d="M3032 5608 c-15 -15 -16 -50 0 -66 14 -14 44 -16 53 -3 3 6 -7 9 -21
8 -15 -1 -29 4 -31 11 -3 8 6 12 27 12 27 0 31 3 28 23 -3 25 -36 35 -56 15z
m46 -15 c2 -8 -6 -13 -22 -13 -19 0 -24 4 -19 15 6 18 34 16 41 -2z"/>
<path d="M3122 5608 c-29 -29 -4 -84 35 -76 28 5 26 82 -2 86 -11 1 -26 -3
-33 -10z m43 -33 c0 -33 -28 -47 -39 -19 -10 25 3 56 22 52 11 -2 17 -13 17
-33z"/>
<path d="M3201 5573 l1 -48 8 39 c4 21 13 42 21 47 11 6 8 9 -8 9 -21 0 -23
-5 -22 -47z"/>
<path d="M3262 5608 c-29 -29 -4 -84 35 -76 28 5 26 82 -2 86 -11 1 -26 -3
-33 -10z m43 -33 c0 -33 -28 -47 -39 -19 -10 25 3 56 22 52 11 -2 17 -13 17
-33z"/>
<path d="M3382 5608 c-29 -29 -4 -84 35 -76 28 5 26 82 -2 86 -11 1 -26 -3
-33 -10z m43 -33 c0 -33 -28 -47 -39 -19 -10 25 3 56 22 52 11 -2 17 -13 17
-33z"/>
<path d="M3464 5606 c-3 -8 -4 -27 -2 -43 2 -23 8 -28 31 -28 15 1 26 -4 24
-10 -2 -5 -16 -10 -30 -10 -16 1 -23 -3 -18 -8 5 -5 21 -7 35 -3 24 6 26 11
26 61 0 55 0 55 -30 55 -17 0 -33 -6 -36 -14z m52 -22 c8 -29 -7 -49 -30 -41
-16 6 -22 48 -9 60 14 15 33 6 39 -19z"/>
<path d="M3558 5569 c14 -44 14 -51 2 -59 -9 -6 -10 -10 -3 -10 15 0 18 5 36
68 18 58 14 69 -6 20 l-14 -33 -7 33 c-4 17 -11 32 -16 32 -4 0 -1 -23 8 -51z"/>
<path d="M4382 5608 c-15 -15 -16 -50 0 -66 14 -14 44 -16 53 -3 3 6 -7 9 -21
8 -15 -1 -29 4 -31 11 -3 8 6 12 27 12 27 0 31 3 28 23 -3 25 -36 35 -56 15z
m46 -15 c2 -8 -6 -13 -22 -13 -19 0 -24 4 -19 15 6 18 34 16 41 -2z"/>
<path d="M4762 5608 c-15 -15 -16 -50 0 -66 14 -14 44 -16 53 -3 3 6 -7 9 -21
8 -15 -1 -29 4 -31 11 -3 8 6 12 27 12 27 0 31 3 28 23 -3 25 -36 35 -56 15z
m46 -15 c2 -8 -6 -13 -22 -13 -19 0 -24 4 -19 15 6 18 34 16 41 -2z"/>
<path d="M4841 5573 l1 -48 8 39 c4 21 13 42 21 47 11 6 8 9 -8 9 -21 0 -23
-5 -22 -47z"/>
<path d="M4902 5608 c-15 -15 -16 -50 0 -66 14 -14 44 -16 53 -3 3 6 -7 9 -21
8 -15 -1 -29 4 -31 11 -3 8 6 12 27 12 27 0 31 3 28 23 -3 25 -36 35 -56 15z
m46 -15 c2 -8 -6 -13 -22 -13 -19 0 -24 4 -19 15 6 18 34 16 41 -2z"/>
<path d="M5832 5608 c-15 -15 -16 -50 0 -66 14 -14 44 -16 53 -3 3 6 -7 9 -21
8 -15 -1 -29 4 -31 11 -3 8 6 12 27 12 27 0 31 3 28 23 -3 25 -36 35 -56 15z
m46 -15 c2 -8 -6 -13 -22 -13 -19 0 -24 4 -19 15 6 18 34 16 41 -2z"/>
<path d="M6212 5608 c-15 -15 -16 -50 0 -66 14 -14 44 -16 53 -3 3 6 -7 9 -21
8 -15 -1 -29 4 -31 11 -3 8 6 12 27 12 27 0 31 3 28 23 -3 25 -36 35 -56 15z
m46 -15 c2 -8 -6 -13 -22 -13 -19 0 -24 4 -19 15 6 18 34 16 41 -2z"/>
<path d="M6291 5573 l1 -48 8 39 c4 21 13 42 21 47 11 6 8 9 -8 9 -21 0 -23
-5 -22 -47z"/>
<path d="M6352 5608 c-15 -15 -16 -50 0 -66 14 -14 44 -16 53 -3 3 6 -7 9 -21
8 -15 -1 -29 4 -31 11 -3 8 6 12 27 12 27 0 31 3 28 23 -3 25 -36 35 -56 15z
m46 -15 c2 -8 -6 -13 -22 -13 -19 0 -24 4 -19 15 6 18 34 16 41 -2z"/>
<path d="M7282 5608 c-15 -15 -16 -50 0 -66 14 -14 44 -16 53 -3 3 6 -7 9 -21
8 -15 -1 -29 4 -31 11 -3 8 6 12 27 12 27 0 31 3 28 23 -3 25 -36 35 -56 15z
m46 -15 c2 -8 -6 -13 -22 -13 -19 0 -24 4 -19 15 6 18 34 16 41 -2z"/>
<path d="M7662 5608 c-15 -15 -16 -50 0 -66 14 -14 44 -16 53 -3 3 6 -7 9 -21
8 -15 -1 -29 4 -31 11 -3 8 6 12 27 12 27 0 31 3 28 23 -3 25 -36 35 -56 15z
m46 -15 c2 -8 -6 -13 -22 -13 -19 0 -24 4 -19 15 6 18 34 16 41 -2z"/>
<path d="M7741 5573 l1 -48 8 39 c4 21 13 42 21 47 11 6 8 9 -8 9 -21 0 -23
-5 -22 -47z"/>
<path d="M7802 5608 c-15 -15 -16 -50 0 -66 14 -14 44 -16 53 -3 3 6 -7 9 -21
8 -15 -1 -29 4 -31 11 -3 8 6 12 27 12 27 0 31 3 28 23 -3 25 -36 35 -56 15z
m46 -15 c2 -8 -6 -13 -22 -13 -19 0 -24 4 -19 15 6 18 34 16 41 -2z"/>
<path d="M8643 5575 c0 -27 2 -38 4 -22 2 15 2 37 0 50 -2 12 -4 0 -4 -28z"/>
<path d="M8732 5608 c-15 -15 -16 -50 0 -66 14 -14 44 -16 53 -3 3 6 -7 9 -21
8 -15 -1 -29 4 -31 11 -3 8 6 12 27 12 27 0 31 3 28 23 -3 25 -36 35 -56 15z
m46 -15 c2 -8 -6 -13 -22 -13 -19 0 -24 4 -19 15 6 18 34 16 41 -2z"/>
<path d="M8972 5608 c-27 -27 -7 -78 29 -78 10 0 21 5 24 10 4 7 -2 9 -18 5
-28 -7 -42 14 -31 47 4 15 12 18 31 13 16 -4 22 -2 18 5 -8 14 -38 13 -53 -2z"/>
<path d="M9043 5575 c0 -27 2 -38 4 -22 2 15 2 37 0 50 -2 12 -4 0 -4 -28z"/>
<path d="M9092 5608 c-15 -15 -16 -50 0 -66 14 -14 44 -16 53 -3 3 6 -7 9 -21
8 -15 -1 -29 4 -31 11 -3 8 6 12 27 12 27 0 31 3 28 23 -3 25 -36 35 -56 15z
m46 -15 c2 -8 -6 -13 -22 -13 -19 0 -24 4 -19 15 6 18 34 16 41 -2z"/>
<path d="M9171 5571 c1 -25 3 -37 6 -26 2 11 6 30 9 43 8 39 32 26 37 -20 l4
-43 -1 45 c-1 42 -3 45 -28 46 -27 1 -28 -1 -27 -45z"/>
<path d="M9262 5608 c-27 -27 -7 -78 29 -78 10 0 21 5 24 10 4 7 -2 9 -18 5
-28 -7 -42 14 -31 47 4 15 12 18 31 13 16 -4 22 -2 18 5 -8 14 -38 13 -53 -2z"/>
<path d="M9342 5608 c-15 -15 -16 -50 0 -66 14 -14 44 -16 53 -3 3 6 -7 9 -21
8 -15 -1 -29 4 -31 11 -3 8 6 12 27 12 27 0 31 3 28 23 -3 25 -36 35 -56 15z
m46 -15 c2 -8 -6 -13 -22 -13 -19 0 -24 4 -19 15 6 18 34 16 41 -2z"/>
<path d="M860 3515 l0 -1675 5470 0 5470 0 0 1675 0 1675 -5470 0 -5470 0 0
-1675z m10370 0 l0 -1635 -5165 0 -5165 0 0 1635 0 1635 5165 0 5165 0 0
-1635z m400 405 c11 -11 20 -32 20 -48 0 -32 -25 -72 -46 -72 -18 0 -18 24 1
40 22 18 20 60 -3 60 -13 0 -22 -12 -31 -40 -18 -60 -67 -76 -91 -29 -15 28
-12 55 10 80 17 20 21 22 29 9 7 -10 6 -17 -4 -23 -8 -4 -15 -19 -15 -33 0
-39 30 -26 45 20 20 59 50 71 85 36z m0 -160 c11 -11 20 -32 20 -48 0 -32 -25
-72 -46 -72 -18 0 -18 24 1 40 22 18 20 60 -3 60 -13 0 -22 -12 -31 -40 -18
-60 -67 -76 -91 -29 -15 28 -12 55 10 80 17 20 21 22 29 9 7 -10 6 -17 -4 -23
-8 -4 -15 -19 -15 -33 0 -39 30 -26 45 20 20 59 50 71 85 36z m-60 -196 l0
-66 23 14 c27 19 33 50 12 68 -19 16 -20 40 -1 40 21 0 46 -40 46 -73 0 -94
-153 -104 -176 -12 -10 42 34 92 84 94 8 1 12 -19 12 -65z m75 -144 c0 -11
-17 -16 -70 -20 -54 -4 -71 -9 -73 -21 -6 -32 26 -49 89 -49 46 0 59 -3 59
-15 0 -12 -20 -15 -120 -15 -100 0 -120 3 -120 15 0 11 11 15 40 15 37 0 40 2
30 19 -15 29 -12 49 10 71 18 18 31 20 88 18 52 -2 67 -6 67 -18z m-184 -204
c-47 -50 -7 -116 71 -116 43 0 88 34 88 67 0 25 -28 63 -46 63 -14 0 -20 25
-6 33 16 10 52 -14 68 -44 19 -37 14 -92 -12 -120 -26 -29 -91 -43 -134 -30
-50 15 -71 42 -77 95 -5 41 -2 48 28 78 29 29 34 31 37 15 2 -11 -6 -29 -17
-41z"/>
<path d="M7577 4793 c19 -4 23 -12 26 -61 l3 -57 2 57 c2 50 5 57 25 61 12 2
0 4 -28 4 -27 0 -40 -2 -28 -4z"/>
<path d="M7910 4740 c0 -33 4 -60 10 -60 6 0 10 14 10 30 0 25 4 30 25 30 21
0 25 -5 25 -30 0 -16 5 -30 10 -30 6 0 10 27 10 60 0 33 -4 60 -10 60 -5 0
-10 -11 -10 -25 0 -20 -5 -25 -25 -25 -20 0 -25 5 -25 25 0 14 -4 25 -10 25
-6 0 -10 -27 -10 -60z"/>
<path d="M9767 4793 c19 -4 23 -12 26 -61 l3 -57 2 57 c2 50 5 57 25 61 12 2
0 4 -28 4 -27 0 -40 -2 -28 -4z"/>
<path d="M10100 4740 c0 -33 4 -60 10 -60 6 0 10 14 10 30 0 25 4 30 25 30 21
0 25 -5 25 -30 0 -16 5 -30 10 -30 6 0 10 27 10 60 0 33 -4 60 -10 60 -5 0
-10 -11 -10 -25 0 -20 -5 -25 -25 -25 -20 0 -25 5 -25 25 0 14 -4 25 -10 25
-6 0 -10 -27 -10 -60z"/>
<path d="M3207 4783 c19 -4 23 -12 26 -61 l3 -57 2 57 c2 50 5 57 25 61 12 2
0 4 -28 4 -27 0 -40 -2 -28 -4z"/>
<path d="M3540 4730 c0 -33 4 -60 10 -60 6 0 10 14 10 30 0 25 4 30 25 30 21
0 25 -5 25 -30 0 -16 5 -30 10 -30 6 0 10 27 10 60 0 33 -4 60 -10 60 -5 0
-10 -11 -10 -25 0 -20 -5 -25 -25 -25 -20 0 -25 5 -25 25 0 14 -4 25 -10 25
-6 0 -10 -27 -10 -60z"/>
<path d="M5387 4783 c19 -4 23 -12 26 -61 l3 -57 2 57 c2 50 5 57 25 61 12 2
0 4 -28 4 -27 0 -40 -2 -28 -4z"/>
<path d="M5720 4730 c0 -33 4 -60 10 -60 6 0 10 14 10 30 0 25 4 30 25 30 21
0 25 -5 25 -30 0 -16 5 -30 10 -30 6 0 10 27 10 60 0 33 -4 60 -10 60 -5 0
-10 -11 -10 -25 0 -20 -5 -25 -25 -25 -20 0 -25 5 -25 25 0 14 -4 25 -10 25
-6 0 -10 -27 -10 -60z"/>
<path d="M7800 4780 c0 -5 -6 -10 -14 -10 -8 0 -17 -7 -20 -17 -6 -14 -8 -14
-21 3 -16 21 -20 8 -5 -16 6 -10 4 -22 -6 -37 -8 -13 -10 -23 -5 -23 5 0 12 8
16 18 6 16 7 16 19 0 19 -27 31 -22 13 5 -10 16 -12 28 -5 40 16 29 28 19 28
-23 0 -31 4 -40 17 -40 13 0 14 3 5 12 -14 14 -16 65 -3 70 5 2 3 9 -5 16 -8
7 -14 8 -14 2z"/>
<path d="M9990 4780 c0 -5 -6 -10 -14 -10 -8 0 -17 -7 -20 -17 -6 -14 -8 -14
-21 3 -16 21 -20 8 -5 -16 6 -10 4 -22 -6 -37 -8 -13 -10 -23 -5 -23 5 0 12 8
16 18 6 16 7 16 19 0 19 -27 31 -22 13 5 -10 16 -12 28 -5 40 16 29 28 19 28
-23 0 -31 4 -40 17 -40 13 0 14 3 5 12 -14 14 -16 65 -3 70 5 2 3 9 -5 16 -8
7 -14 8 -14 2z"/>
<path d="M3430 4770 c0 -5 -6 -10 -14 -10 -8 0 -17 -7 -20 -17 -6 -14 -8 -14
-21 3 -16 21 -20 8 -5 -16 6 -10 4 -22 -6 -37 -8 -13 -10 -23 -5 -23 5 0 12 8
16 18 6 16 7 16 19 0 19 -27 31 -22 13 5 -10 16 -12 28 -5 40 16 29 28 19 28
-23 0 -31 4 -40 17 -40 13 0 14 3 5 12 -14 14 -16 65 -3 70 5 2 3 9 -5 16 -8
7 -14 8 -14 2z"/>
<path d="M5610 4770 c0 -5 -6 -10 -14 -10 -8 0 -17 -7 -20 -17 -6 -14 -8 -14
-21 3 -16 21 -20 8 -5 -16 6 -10 4 -22 -6 -37 -8 -13 -10 -23 -5 -23 5 0 12 8
16 18 6 16 7 16 19 0 19 -27 31 -22 13 5 -10 16 -12 28 -5 40 16 29 28 19 28
-23 0 -31 4 -40 17 -40 13 0 14 3 5 12 -14 14 -16 65 -3 70 5 2 3 9 -5 16 -8
7 -14 8 -14 2z"/>
<path d="M7652 4758 c-15 -15 -16 -50 0 -66 14 -14 44 -16 53 -3 3 6 -7 9 -21
8 -15 -1 -29 4 -31 11 -3 8 6 12 27 12 27 0 31 3 28 23 -3 25 -36 35 -56 15z
m46 -15 c2 -8 -6 -13 -22 -13 -19 0 -24 4 -19 15 6 18 34 16 41 -2z"/>
<path d="M8032 4758 c-15 -15 -16 -50 0 -66 14 -14 44 -16 53 -3 3 6 -7 9 -21
8 -15 -1 -29 4 -31 11 -3 8 6 12 27 12 27 0 31 3 28 23 -3 25 -36 35 -56 15z
m46 -15 c2 -8 -6 -13 -22 -13 -19 0 -24 4 -19 15 6 18 34 16 41 -2z"/>
<path d="M8111 4723 l1 -48 8 39 c4 21 13 42 21 47 11 6 8 9 -8 9 -21 0 -23
-5 -22 -47z"/>
<path d="M8172 4758 c-15 -15 -16 -50 0 -66 14 -14 44 -16 53 -3 3 6 -7 9 -21
8 -15 -1 -29 4 -31 11 -3 8 6 12 27 12 27 0 31 3 28 23 -3 25 -36 35 -56 15z
m46 -15 c2 -8 -6 -13 -22 -13 -19 0 -24 4 -19 15 6 18 34 16 41 -2z"/>
<path d="M9842 4758 c-15 -15 -16 -50 0 -66 14 -14 44 -16 53 -3 3 6 -7 9 -21
8 -15 -1 -29 4 -31 11 -3 8 6 12 27 12 27 0 31 3 28 23 -3 25 -36 35 -56 15z
m46 -15 c2 -8 -6 -13 -22 -13 -19 0 -24 4 -19 15 6 18 34 16 41 -2z"/>
<path d="M10222 4758 c-15 -15 -16 -50 0 -66 14 -14 44 -16 53 -3 3 6 -7 9
-21 8 -15 -1 -29 4 -31 11 -3 8 6 12 27 12 27 0 31 3 28 23 -3 25 -36 35 -56
15z m46 -15 c2 -8 -6 -13 -22 -13 -19 0 -24 4 -19 15 6 18 34 16 41 -2z"/>
<path d="M10301 4723 l1 -48 8 39 c4 21 13 42 21 47 11 6 8 9 -8 9 -21 0 -23
-5 -22 -47z"/>
<path d="M10362 4758 c-15 -15 -16 -50 0 -66 14 -14 44 -16 53 -3 3 6 -7 9
-21 8 -15 -1 -29 4 -31 11 -3 8 6 12 27 12 27 0 31 3 28 23 -3 25 -36 35 -56
15z m46 -15 c2 -8 -6 -13 -22 -13 -19 0 -24 4 -19 15 6 18 34 16 41 -2z"/>
<path d="M3282 4748 c-15 -15 -16 -50 0 -66 14 -14 44 -16 53 -3 3 6 -7 9 -21
8 -15 -1 -29 4 -31 11 -3 8 6 12 27 12 27 0 31 3 28 23 -3 25 -36 35 -56 15z
m46 -15 c2 -8 -6 -13 -22 -13 -19 0 -24 4 -19 15 6 18 34 16 41 -2z"/>
<path d="M3662 4748 c-15 -15 -16 -50 0 -66 14 -14 44 -16 53 -3 3 6 -7 9 -21
8 -15 -1 -29 4 -31 11 -3 8 6 12 27 12 27 0 31 3 28 23 -3 25 -36 35 -56 15z
m46 -15 c2 -8 -6 -13 -22 -13 -19 0 -24 4 -19 15 6 18 34 16 41 -2z"/>
<path d="M3741 4713 l1 -48 8 39 c4 21 13 42 21 47 11 6 8 9 -8 9 -21 0 -23
-5 -22 -47z"/>
<path d="M3802 4748 c-15 -15 -16 -50 0 -66 14 -14 44 -16 53 -3 3 6 -7 9 -21
8 -15 -1 -29 4 -31 11 -3 8 6 12 27 12 27 0 31 3 28 23 -3 25 -36 35 -56 15z
m46 -15 c2 -8 -6 -13 -22 -13 -19 0 -24 4 -19 15 6 18 34 16 41 -2z"/>
<path d="M5462 4748 c-15 -15 -16 -50 0 -66 14 -14 44 -16 53 -3 3 6 -7 9 -21
8 -15 -1 -29 4 -31 11 -3 8 6 12 27 12 27 0 31 3 28 23 -3 25 -36 35 -56 15z
m46 -15 c2 -8 -6 -13 -22 -13 -19 0 -24 4 -19 15 6 18 34 16 41 -2z"/>
<path d="M5842 4748 c-15 -15 -16 -50 0 -66 14 -14 44 -16 53 -3 3 6 -7 9 -21
8 -15 -1 -29 4 -31 11 -3 8 6 12 27 12 27 0 31 3 28 23 -3 25 -36 35 -56 15z
m46 -15 c2 -8 -6 -13 -22 -13 -19 0 -24 4 -19 15 6 18 34 16 41 -2z"/>
<path d="M5921 4713 l1 -48 8 39 c4 21 13 42 21 47 11 6 8 9 -8 9 -21 0 -23
-5 -22 -47z"/>
<path d="M5982 4748 c-15 -15 -16 -50 0 -66 14 -14 44 -16 53 -3 3 6 -7 9 -21
8 -15 -1 -29 4 -31 11 -3 8 6 12 27 12 27 0 31 3 28 23 -3 25 -36 35 -56 15z
m46 -15 c2 -8 -6 -13 -22 -13 -19 0 -24 4 -19 15 6 18 34 16 41 -2z"/>
<path d="M910 4375 c0 -8 5 -15 10 -15 6 0 10 7 10 15 0 8 -4 15 -10 15 -5 0
-10 -7 -10 -15z"/>
<path d="M970 4375 c0 -8 5 -15 10 -15 6 0 10 7 10 15 0 8 -4 15 -10 15 -5 0
-10 -7 -10 -15z"/>
<path d="M1030 4375 c0 -8 5 -15 10 -15 6 0 10 7 10 15 0 8 -4 15 -10 15 -5 0
-10 -7 -10 -15z"/>
<path d="M1090 4375 c0 -8 5 -15 10 -15 6 0 10 7 10 15 0 8 -4 15 -10 15 -5 0
-10 -7 -10 -15z"/>
<path d="M1150 4375 c0 -8 5 -15 10 -15 6 0 10 7 10 15 0 8 -4 15 -10 15 -5 0
-10 -7 -10 -15z"/>
<path d="M1210 4375 c0 -8 5 -15 10 -15 6 0 10 7 10 15 0 8 -4 15 -10 15 -5 0
-10 -7 -10 -15z"/>
<path d="M1270 4375 c0 -8 5 -15 10 -15 6 0 10 7 10 15 0 8 -4 15 -10 15 -5 0
-10 -7 -10 -15z"/>
<path d="M1330 4375 c0 -8 5 -15 10 -15 6 0 10 7 10 15 0 8 -4 15 -10 15 -5 0
-10 -7 -10 -15z"/>
<path d="M1390 4375 c0 -8 5 -15 10 -15 6 0 10 7 10 15 0 8 -4 15 -10 15 -5 0
-10 -7 -10 -15z"/>
<path d="M1450 4375 c0 -8 5 -15 10 -15 6 0 10 7 10 15 0 8 -4 15 -10 15 -5 0
-10 -7 -10 -15z"/>
<path d="M1510 4375 c0 -8 5 -15 10 -15 6 0 10 7 10 15 0 8 -4 15 -10 15 -5 0
-10 -7 -10 -15z"/>
<path d="M1570 4375 c0 -8 5 -15 10 -15 6 0 10 7 10 15 0 8 -4 15 -10 15 -5 0
-10 -7 -10 -15z"/>
<path d="M1630 4375 c0 -8 5 -15 10 -15 6 0 10 7 10 15 0 8 -4 15 -10 15 -5 0
-10 -7 -10 -15z"/>
<path d="M1690 4375 c0 -8 5 -15 10 -15 6 0 10 7 10 15 0 8 -4 15 -10 15 -5 0
-10 -7 -10 -15z"/>
<path d="M1750 4375 c0 -8 5 -15 10 -15 6 0 10 7 10 15 0 8 -4 15 -10 15 -5 0
-10 -7 -10 -15z"/>
<path d="M1810 4375 c0 -8 5 -15 10 -15 6 0 10 7 10 15 0 8 -4 15 -10 15 -5 0
-10 -7 -10 -15z"/>
<path d="M1870 4375 c0 -8 5 -15 10 -15 6 0 10 7 10 15 0 8 -4 15 -10 15 -5 0
-10 -7 -10 -15z"/>
<path d="M1930 4375 c0 -8 5 -15 10 -15 6 0 10 7 10 15 0 8 -4 15 -10 15 -5 0
-10 -7 -10 -15z"/>
<path d="M1990 4375 c0 -8 5 -15 10 -15 6 0 10 7 10 15 0 8 -4 15 -10 15 -5 0
-10 -7 -10 -15z"/>
<path d="M2050 4375 c0 -8 5 -15 10 -15 6 0 10 7 10 15 0 8 -4 15 -10 15 -5 0
-10 -7 -10 -15z"/>
<path d="M2110 4375 c0 -8 5 -15 10 -15 6 0 10 7 10 15 0 8 -4 15 -10 15 -5 0
-10 -7 -10 -15z"/>
<path d="M2170 4375 c0 -8 5 -15 10 -15 6 0 10 7 10 15 0 8 -4 15 -10 15 -5 0
-10 -7 -10 -15z"/>
<path d="M2230 4375 c0 -8 5 -15 10 -15 6 0 10 7 10 15 0 8 -4 15 -10 15 -5 0
-10 -7 -10 -15z"/>
<path d="M2290 4375 c0 -8 5 -15 10 -15 6 0 10 7 10 15 0 8 -4 15 -10 15 -5 0
-10 -7 -10 -15z"/>
<path d="M2350 4375 c0 -8 5 -15 10 -15 6 0 10 7 10 15 0 8 -4 15 -10 15 -5 0
-10 -7 -10 -15z"/>
<path d="M2410 4375 c0 -8 5 -15 10 -15 6 0 10 7 10 15 0 8 -4 15 -10 15 -5 0
-10 -7 -10 -15z"/>
<path d="M2470 4375 c0 -8 5 -15 10 -15 6 0 10 7 10 15 0 8 -4 15 -10 15 -5 0
-10 -7 -10 -15z"/>
<path d="M2530 4375 c0 -8 5 -15 10 -15 6 0 10 7 10 15 0 8 -4 15 -10 15 -5 0
-10 -7 -10 -15z"/>
<path d="M2590 4375 c0 -8 5 -15 10 -15 6 0 10 7 10 15 0 8 -4 15 -10 15 -5 0
-10 -7 -10 -15z"/>
<path d="M2650 4375 c0 -8 5 -15 10 -15 6 0 10 7 10 15 0 8 -4 15 -10 15 -5 0
-10 -7 -10 -15z"/>
<path d="M2710 4375 c0 -8 5 -15 10 -15 6 0 10 7 10 15 0 8 -4 15 -10 15 -5 0
-10 -7 -10 -15z"/>
<path d="M2770 4375 c0 -8 5 -15 10 -15 6 0 10 7 10 15 0 8 -4 15 -10 15 -5 0
-10 -7 -10 -15z"/>
<path d="M2830 4375 c0 -8 5 -15 10 -15 6 0 10 7 10 15 0 8 -4 15 -10 15 -5 0
-10 -7 -10 -15z"/>
<path d="M2890 4375 c0 -8 5 -15 10 -15 6 0 10 7 10 15 0 8 -4 15 -10 15 -5 0
-10 -7 -10 -15z"/>
<path d="M2950 4375 c0 -8 5 -15 10 -15 6 0 10 7 10 15 0 8 -4 15 -10 15 -5 0
-10 -7 -10 -15z"/>
<path d="M3010 4375 c0 -8 5 -15 10 -15 6 0 10 7 10 15 0 8 -4 15 -10 15 -5 0
-10 -7 -10 -15z"/>
<path d="M3070 4375 c0 -8 5 -15 10 -15 6 0 10 7 10 15 0 8 -4 15 -10 15 -5 0
-10 -7 -10 -15z"/>
<path d="M3130 4375 c0 -8 5 -15 10 -15 6 0 10 7 10 15 0 8 -4 15 -10 15 -5 0
-10 -7 -10 -15z"/>
<path d="M3190 4375 c0 -8 5 -15 10 -15 6 0 10 7 10 15 0 8 -4 15 -10 15 -5 0
-10 -7 -10 -15z"/>
<path d="M3250 4375 c0 -8 5 -15 10 -15 6 0 10 7 10 15 0 8 -4 15 -10 15 -5 0
-10 -7 -10 -15z"/>
<path d="M3310 4375 c0 -8 5 -15 10 -15 6 0 10 7 10 15 0 8 -4 15 -10 15 -5 0
-10 -7 -10 -15z"/>
<path d="M3370 4375 c0 -8 5 -15 10 -15 6 0 10 7 10 15 0 8 -4 15 -10 15 -5 0
-10 -7 -10 -15z"/>
<path d="M3430 4375 c0 -8 5 -15 10 -15 6 0 10 7 10 15 0 8 -4 15 -10 15 -5 0
-10 -7 -10 -15z"/>
<path d="M3490 4375 c0 -8 5 -15 10 -15 6 0 10 7 10 15 0 8 -4 15 -10 15 -5 0
-10 -7 -10 -15z"/>
<path d="M3550 4375 c0 -8 5 -15 10 -15 6 0 10 7 10 15 0 8 -4 15 -10 15 -5 0
-10 -7 -10 -15z"/>
<path d="M3610 4375 c0 -8 5 -15 10 -15 6 0 10 7 10 15 0 8 -4 15 -10 15 -5 0
-10 -7 -10 -15z"/>
<path d="M3670 4375 c0 -8 5 -15 10 -15 6 0 10 7 10 15 0 8 -4 15 -10 15 -5 0
-10 -7 -10 -15z"/>
<path d="M3730 4375 c0 -8 5 -15 10 -15 6 0 10 7 10 15 0 8 -4 15 -10 15 -5 0
-10 -7 -10 -15z"/>
<path d="M3790 4375 c0 -8 5 -15 10 -15 6 0 10 7 10 15 0 8 -4 15 -10 15 -5 0
-10 -7 -10 -15z"/>
<path d="M3850 4375 c0 -8 5 -15 10 -15 6 0 10 7 10 15 0 8 -4 15 -10 15 -5 0
-10 -7 -10 -15z"/>
<path d="M3910 4375 c0 -8 5 -15 10 -15 6 0 10 7 10 15 0 8 -4 15 -10 15 -5 0
-10 -7 -10 -15z"/>
<path d="M3970 4375 c0 -8 5 -15 10 -15 6 0 10 7 10 15 0 8 -4 15 -10 15 -5 0
-10 -7 -10 -15z"/>
<path d="M4030 4375 c0 -8 5 -15 10 -15 6 0 10 7 10 15 0 8 -4 15 -10 15 -5 0
-10 -7 -10 -15z"/>
<path d="M4090 4375 c0 -8 5 -15 10 -15 6 0 10 7 10 15 0 8 -4 15 -10 15 -5 0
-10 -7 -10 -15z"/>
<path d="M4150 4375 c0 -8 5 -15 10 -15 6 0 10 7 10 15 0 8 -4 15 -10 15 -5 0
-10 -7 -10 -15z"/>
<path d="M4210 4375 c0 -8 5 -15 10 -15 6 0 10 7 10 15 0 8 -4 15 -10 15 -5 0
-10 -7 -10 -15z"/>
<path d="M4270 4375 c0 -8 5 -15 10 -15 6 0 10 7 10 15 0 8 -4 15 -10 15 -5 0
-10 -7 -10 -15z"/>
<path d="M4330 4375 c0 -8 5 -15 10 -15 6 0 10 7 10 15 0 8 -4 15 -10 15 -5 0
-10 -7 -10 -15z"/>
<path d="M4390 4375 c0 -8 5 -15 10 -15 6 0 10 7 10 15 0 8 -4 15 -10 15 -5 0
-10 -7 -10 -15z"/>
<path d="M4450 4375 c0 -8 5 -15 10 -15 6 0 10 7 10 15 0 8 -4 15 -10 15 -5 0
-10 -7 -10 -15z"/>
<path d="M4510 4375 c0 -8 5 -15 10 -15 6 0 10 7 10 15 0 8 -4 15 -10 15 -5 0
-10 -7 -10 -15z"/>
<path d="M4570 4375 c0 -8 5 -15 10 -15 6 0 10 7 10 15 0 8 -4 15 -10 15 -5 0
-10 -7 -10 -15z"/>
<path d="M4630 4375 c0 -8 5 -15 10 -15 6 0 10 7 10 15 0 8 -4 15 -10 15 -5 0
-10 -7 -10 -15z"/>
<path d="M4690 4375 c0 -8 5 -15 10 -15 6 0 10 7 10 15 0 8 -4 15 -10 15 -5 0
-10 -7 -10 -15z"/>
<path d="M4750 4375 c0 -8 5 -15 10 -15 6 0 10 7 10 15 0 8 -4 15 -10 15 -5 0
-10 -7 -10 -15z"/>
<path d="M4810 4375 c0 -8 5 -15 10 -15 6 0 10 7 10 15 0 8 -4 15 -10 15 -5 0
-10 -7 -10 -15z"/>
<path d="M4870 4375 c0 -8 5 -15 10 -15 6 0 10 7 10 15 0 8 -4 15 -10 15 -5 0
-10 -7 -10 -15z"/>
<path d="M4930 4375 c0 -8 5 -15 10 -15 6 0 10 7 10 15 0 8 -4 15 -10 15 -5 0
-10 -7 -10 -15z"/>
<path d="M4990 4375 c0 -8 5 -15 10 -15 6 0 10 7 10 15 0 8 -4 15 -10 15 -5 0
-10 -7 -10 -15z"/>
<path d="M5050 4375 c0 -8 5 -15 10 -15 6 0 10 7 10 15 0 8 -4 15 -10 15 -5 0
-10 -7 -10 -15z"/>
<path d="M5110 4375 c0 -8 5 -15 10 -15 6 0 10 7 10 15 0 8 -4 15 -10 15 -5 0
-10 -7 -10 -15z"/>
<path d="M5170 4375 c0 -8 5 -15 10 -15 6 0 10 7 10 15 0 8 -4 15 -10 15 -5 0
-10 -7 -10 -15z"/>
<path d="M5230 4375 c0 -8 5 -15 10 -15 6 0 10 7 10 15 0 8 -4 15 -10 15 -5 0
-10 -7 -10 -15z"/>
<path d="M5290 4375 c0 -8 5 -15 10 -15 6 0 10 7 10 15 0 8 -4 15 -10 15 -5 0
-10 -7 -10 -15z"/>
<path d="M5350 4375 c0 -8 5 -15 10 -15 6 0 10 7 10 15 0 8 -4 15 -10 15 -5 0
-10 -7 -10 -15z"/>
<path d="M5410 4375 c0 -8 5 -15 10 -15 6 0 10 7 10 15 0 8 -4 15 -10 15 -5 0
-10 -7 -10 -15z"/>
<path d="M5470 4375 c0 -8 5 -15 10 -15 6 0 10 7 10 15 0 8 -4 15 -10 15 -5 0
-10 -7 -10 -15z"/>
<path d="M5530 4375 c0 -8 5 -15 10 -15 6 0 10 7 10 15 0 8 -4 15 -10 15 -5 0
-10 -7 -10 -15z"/>
<path d="M5590 4375 c0 -8 5 -15 10 -15 6 0 10 7 10 15 0 8 -4 15 -10 15 -5 0
-10 -7 -10 -15z"/>
<path d="M5650 4375 c0 -8 5 -15 10 -15 6 0 10 7 10 15 0 8 -4 15 -10 15 -5 0
-10 -7 -10 -15z"/>
<path d="M5710 4375 c0 -8 5 -15 10 -15 6 0 10 7 10 15 0 8 -4 15 -10 15 -5 0
-10 -7 -10 -15z"/>
<path d="M5770 4375 c0 -8 5 -15 10 -15 6 0 10 7 10 15 0 8 -4 15 -10 15 -5 0
-10 -7 -10 -15z"/>
<path d="M5830 4375 c0 -8 5 -15 10 -15 6 0 10 7 10 15 0 8 -4 15 -10 15 -5 0
-10 -7 -10 -15z"/>
<path d="M5890 4375 c0 -8 5 -15 10 -15 6 0 10 7 10 15 0 8 -4 15 -10 15 -5 0
-10 -7 -10 -15z"/>
<path d="M5950 4375 c0 -8 5 -15 10 -15 6 0 10 7 10 15 0 8 -4 15 -10 15 -5 0
-10 -7 -10 -15z"/>
<path d="M6010 4375 c0 -8 5 -15 10 -15 6 0 10 7 10 15 0 8 -4 15 -10 15 -5 0
-10 -7 -10 -15z"/>
<path d="M6070 4375 c0 -8 5 -15 10 -15 6 0 10 7 10 15 0 8 -4 15 -10 15 -5 0
-10 -7 -10 -15z"/>
<path d="M6130 4375 c0 -8 5 -15 10 -15 6 0 10 7 10 15 0 8 -4 15 -10 15 -5 0
-10 -7 -10 -15z"/>
<path d="M6190 4375 c0 -8 5 -15 10 -15 6 0 10 7 10 15 0 8 -4 15 -10 15 -5 0
-10 -7 -10 -15z"/>
<path d="M6250 4375 c0 -8 5 -15 10 -15 6 0 10 7 10 15 0 8 -4 15 -10 15 -5 0
-10 -7 -10 -15z"/>
<path d="M6310 4375 c0 -8 5 -15 10 -15 6 0 10 7 10 15 0 8 -4 15 -10 15 -5 0
-10 -7 -10 -15z"/>
<path d="M6370 4375 c0 -8 5 -15 10 -15 6 0 10 7 10 15 0 8 -4 15 -10 15 -5 0
-10 -7 -10 -15z"/>
<path d="M6430 4375 c0 -8 5 -15 10 -15 6 0 10 7 10 15 0 8 -4 15 -10 15 -5 0
-10 -7 -10 -15z"/>
<path d="M6490 4375 c0 -8 5 -15 10 -15 6 0 10 7 10 15 0 8 -4 15 -10 15 -5 0
-10 -7 -10 -15z"/>
<path d="M6550 4375 c0 -8 5 -15 10 -15 6 0 10 7 10 15 0 8 -4 15 -10 15 -5 0
-10 -7 -10 -15z"/>
<path d="M6610 4375 c0 -8 5 -15 10 -15 6 0 10 7 10 15 0 8 -4 15 -10 15 -5 0
-10 -7 -10 -15z"/>
<path d="M6670 4375 c0 -8 5 -15 10 -15 6 0 10 7 10 15 0 8 -4 15 -10 15 -5 0
-10 -7 -10 -15z"/>
<path d="M6730 4375 c0 -8 5 -15 10 -15 6 0 10 7 10 15 0 8 -4 15 -10 15 -5 0
-10 -7 -10 -15z"/>
<path d="M6790 4375 c0 -8 5 -15 10 -15 6 0 10 7 10 15 0 8 -4 15 -10 15 -5 0
-10 -7 -10 -15z"/>
<path d="M6850 4375 c0 -8 5 -15 10 -15 6 0 10 7 10 15 0 8 -4 15 -10 15 -5 0
-10 -7 -10 -15z"/>
<path d="M6910 4375 c0 -8 5 -15 10 -15 6 0 10 7 10 15 0 8 -4 15 -10 15 -5 0
-10 -7 -10 -15z"/>
<path d="M6970 4375 c0 -8 5 -15 10 -15 6 0 10 7 10 15 0 8 -4 15 -10 15 -5 0
-10 -7 -10 -15z"/>
<path d="M7030 4375 c0 -8 5 -15 10 -15 6 0 10 7 10 15 0 8 -4 15 -10 15 -5 0
-10 -7 -10 -15z"/>
<path d="M7090 4375 c0 -8 5 -15 10 -15 6 0 10 7 10 15 0 8 -4 15 -10 15 -5 0
-10 -7 -10 -15z"/>
<path d="M7150 4375 c0 -8 5 -15 10 -15 6 0 10 7 10 15 0 8 -4 15 -10 15 -5 0
-10 -7 -10 -15z"/>
<path d="M7210 4375 c0 -8 5 -15 10 -15 6 0 10 7 10 15 0 8 -4 15 -10 15 -5 0
-10 -7 -10 -15z"/>
<path d="M7270 4375 c0 -8 5 -15 10 -15 6 0 10 7 10 15 0 8 -4 15 -10 15 -5 0
-10 -7 -10 -15z"/>
<path d="M7330 4375 c0 -8 5 -15 10 -15 6 0 10 7 10 15 0 8 -4 15 -10 15 -5 0
-10 -7 -10 -15z"/>
<path d="M7390 4375 c0 -8 5 -15 10 -15 6 0 10 7 10 15 0 8 -4 15 -10 15 -5 0
-10 -7 -10 -15z"/>
<path d="M7450 4375 c0 -8 5 -15 10 -15 6 0 10 7 10 15 0 8 -4 15 -10 15 -5 0
-10 -7 -10 -15z"/>
<path d="M7510 4375 c0 -8 5 -15 10 -15 6 0 10 7 10 15 0 8 -4 15 -10 15 -5 0
-10 -7 -10 -15z"/>
<path d="M7570 4375 c0 -8 5 -15 10 -15 6 0 10 7 10 15 0 8 -4 15 -10 15 -5 0
-10 -7 -10 -15z"/>
<path d="M7630 4375 c0 -8 5 -15 10 -15 6 0 10 7 10 15 0 8 -4 15 -10 15 -5 0
-10 -7 -10 -15z"/>
<path d="M7690 4375 c0 -8 5 -15 10 -15 6 0 10 7 10 15 0 8 -4 15 -10 15 -5 0
-10 -7 -10 -15z"/>
<path d="M7750 4375 c0 -8 5 -15 10 -15 6 0 10 7 10 15 0 8 -4 15 -10 15 -5 0
-10 -7 -10 -15z"/>
<path d="M7810 4375 c0 -8 5 -15 10 -15 6 0 10 7 10 15 0 8 -4 15 -10 15 -5 0
-10 -7 -10 -15z"/>
<path d="M7870 4375 c0 -8 5 -15 10 -15 6 0 10 7 10 15 0 8 -4 15 -10 15 -5 0
-10 -7 -10 -15z"/>
<path d="M7930 4375 c0 -8 5 -15 10 -15 6 0 10 7 10 15 0 8 -4 15 -10 15 -5 0
-10 -7 -10 -15z"/>
<path d="M7990 4375 c0 -8 5 -15 10 -15 6 0 10 7 10 15 0 8 -4 15 -10 15 -5 0
-10 -7 -10 -15z"/>
<path d="M8050 4375 c0 -8 5 -15 10 -15 6 0 10 7 10 15 0 8 -4 15 -10 15 -5 0
-10 -7 -10 -15z"/>
<path d="M8110 4375 c0 -8 5 -15 10 -15 6 0 10 7 10 15 0 8 -4 15 -10 15 -5 0
-10 -7 -10 -15z"/>
<path d="M8170 4375 c0 -8 5 -15 10 -15 6 0 10 7 10 15 0 8 -4 15 -10 15 -5 0
-10 -7 -10 -15z"/>
<path d="M8230 4375 c0 -8 5 -15 10 -15 6 0 10 7 10 15 0 8 -4 15 -10 15 -5 0
-10 -7 -10 -15z"/>
<path d="M8290 4375 c0 -8 5 -15 10 -15 6 0 10 7 10 15 0 8 -4 15 -10 15 -5 0
-10 -7 -10 -15z"/>
<path d="M8350 4375 c0 -8 5 -15 10 -15 6 0 10 7 10 15 0 8 -4 15 -10 15 -5 0
-10 -7 -10 -15z"/>
<path d="M8410 4375 c0 -8 5 -15 10 -15 6 0 10 7 10 15 0 8 -4 15 -10 15 -5 0
-10 -7 -10 -15z"/>
<path d="M8470 4375 c0 -8 5 -15 10 -15 6 0 10 7 10 15 0 8 -4 15 -10 15 -5 0
-10 -7 -10 -15z"/>
<path d="M8530 4375 c0 -8 5 -15 10 -15 6 0 10 7 10 15 0 8 -4 15 -10 15 -5 0
-10 -7 -10 -15z"/>
<path d="M8590 4375 c0 -8 5 -15 10 -15 6 0 10 7 10 15 0 8 -4 15 -10 15 -5 0
-10 -7 -10 -15z"/>
<path d="M8650 4375 c0 -8 5 -15 10 -15 6 0 10 7 10 15 0 8 -4 15 -10 15 -5 0
-10 -7 -10 -15z"/>
<path d="M8710 4375 c0 -8 5 -15 10 -15 6 0 10 7 10 15 0 8 -4 15 -10 15 -5 0
-10 -7 -10 -15z"/>
<path d="M8770 4375 c0 -8 5 -15 10 -15 6 0 10 7 10 15 0 8 -4 15 -10 15 -5 0
-10 -7 -10 -15z"/>
<path d="M8830 4375 c0 -8 5 -15 10 -15 6 0 10 7 10 15 0 8 -4 15 -10 15 -5 0
-10 -7 -10 -15z"/>
<path d="M8890 4375 c0 -8 5 -15 10 -15 6 0 10 7 10 15 0 8 -4 15 -10 15 -5 0
-10 -7 -10 -15z"/>
<path d="M8950 4375 c0 -8 5 -15 10 -15 6 0 10 7 10 15 0 8 -4 15 -10 15 -5 0
-10 -7 -10 -15z"/>
<path d="M9010 4375 c0 -8 5 -15 10 -15 6 0 10 7 10 15 0 8 -4 15 -10 15 -5 0
-10 -7 -10 -15z"/>
<path d="M9070 4375 c0 -8 5 -15 10 -15 6 0 10 7 10 15 0 8 -4 15 -10 15 -5 0
-10 -7 -10 -15z"/>
<path d="M9130 4375 c0 -8 5 -15 10 -15 6 0 10 7 10 15 0 8 -4 15 -10 15 -5 0
-10 -7 -10 -15z"/>
<path d="M9190 4375 c0 -8 5 -15 10 -15 6 0 10 7 10 15 0 8 -4 15 -10 15 -5 0
-10 -7 -10 -15z"/>
<path d="M9250 4375 c0 -8 5 -15 10 -15 6 0 10 7 10 15 0 8 -4 15 -10 15 -5 0
-10 -7 -10 -15z"/>
<path d="M9310 4375 c0 -8 5 -15 10 -15 6 0 10 7 10 15 0 8 -4 15 -10 15 -5 0
-10 -7 -10 -15z"/>
<path d="M9370 4375 c0 -8 5 -15 10 -15 6 0 10 7 10 15 0 8 -4 15 -10 15 -5 0
-10 -7 -10 -15z"/>
<path d="M9430 4375 c0 -8 5 -15 10 -15 6 0 10 7 10 15 0 8 -4 15 -10 15 -5 0
-10 -7 -10 -15z"/>
<path d="M9490 4375 c0 -8 5 -15 10 -15 6 0 10 7 10 15 0 8 -4 15 -10 15 -5 0
-10 -7 -10 -15z"/>
<path d="M9550 4375 c0 -8 5 -15 10 -15 6 0 10 7 10 15 0 8 -4 15 -10 15 -5 0
-10 -7 -10 -15z"/>
<path d="M9610 4375 c0 -8 5 -15 10 -15 6 0 10 7 10 15 0 8 -4 15 -10 15 -5 0
-10 -7 -10 -15z"/>
<path d="M9670 4375 c0 -8 5 -15 10 -15 6 0 10 7 10 15 0 8 -4 15 -10 15 -5 0
-10 -7 -10 -15z"/>
<path d="M9730 4375 c0 -8 5 -15 10 -15 6 0 10 7 10 15 0 8 -4 15 -10 15 -5 0
-10 -7 -10 -15z"/>
<path d="M9790 4375 c0 -8 5 -15 10 -15 6 0 10 7 10 15 0 8 -4 15 -10 15 -5 0
-10 -7 -10 -15z"/>
<path d="M9850 4375 c0 -8 5 -15 10 -15 6 0 10 7 10 15 0 8 -4 15 -10 15 -5 0
-10 -7 -10 -15z"/>
<path d="M9910 4375 c0 -8 5 -15 10 -15 6 0 10 7 10 15 0 8 -4 15 -10 15 -5 0
-10 -7 -10 -15z"/>
<path d="M9970 4375 c0 -8 5 -15 10 -15 6 0 10 7 10 15 0 8 -4 15 -10 15 -5 0
-10 -7 -10 -15z"/>
<path d="M10030 4375 c0 -8 5 -15 10 -15 6 0 10 7 10 15 0 8 -4 15 -10 15 -5
0 -10 -7 -10 -15z"/>
<path d="M10090 4375 c0 -8 5 -15 10 -15 6 0 10 7 10 15 0 8 -4 15 -10 15 -5
0 -10 -7 -10 -15z"/>
<path d="M10150 4375 c0 -8 5 -15 10 -15 6 0 10 7 10 15 0 8 -4 15 -10 15 -5
0 -10 -7 -10 -15z"/>
<path d="M10210 4375 c0 -8 5 -15 10 -15 6 0 10 7 10 15 0 8 -4 15 -10 15 -5
0 -10 -7 -10 -15z"/>
<path d="M10270 4375 c0 -8 5 -15 10 -15 6 0 10 7 10 15 0 8 -4 15 -10 15 -5
0 -10 -7 -10 -15z"/>
<path d="M10330 4375 c0 -8 5 -15 10 -15 6 0 10 7 10 15 0 8 -4 15 -10 15 -5
0 -10 -7 -10 -15z"/>
<path d="M10390 4375 c0 -8 5 -15 10 -15 6 0 10 7 10 15 0 8 -4 15 -10 15 -5
0 -10 -7 -10 -15z"/>
<path d="M10450 4375 c0 -8 5 -15 10 -15 6 0 10 7 10 15 0 8 -4 15 -10 15 -5
0 -10 -7 -10 -15z"/>
<path d="M10510 4375 c0 -8 5 -15 10 -15 6 0 10 7 10 15 0 8 -4 15 -10 15 -5
0 -10 -7 -10 -15z"/>
<path d="M10570 4375 c0 -8 5 -15 10 -15 6 0 10 7 10 15 0 8 -4 15 -10 15 -5
0 -10 -7 -10 -15z"/>
<path d="M10630 4375 c0 -8 5 -15 10 -15 6 0 10 7 10 15 0 8 -4 15 -10 15 -5
0 -10 -7 -10 -15z"/>
<path d="M10690 4375 c0 -8 5 -15 10 -15 6 0 10 7 10 15 0 8 -4 15 -10 15 -5
0 -10 -7 -10 -15z"/>
<path d="M10750 4375 c0 -8 5 -15 10 -15 6 0 10 7 10 15 0 8 -4 15 -10 15 -5
0 -10 -7 -10 -15z"/>
<path d="M10810 4375 c0 -8 5 -15 10 -15 6 0 10 7 10 15 0 8 -4 15 -10 15 -5
0 -10 -7 -10 -15z"/>
<path d="M10870 4375 c0 -8 5 -15 10 -15 6 0 10 7 10 15 0 8 -4 15 -10 15 -5
0 -10 -7 -10 -15z"/>
<path d="M10930 4375 c0 -8 5 -15 10 -15 6 0 10 7 10 15 0 8 -4 15 -10 15 -5
0 -10 -7 -10 -15z"/>
<path d="M10990 4375 c0 -8 5 -15 10 -15 6 0 10 7 10 15 0 8 -4 15 -10 15 -5
0 -10 -7 -10 -15z"/>
<path d="M11050 4375 c0 -8 5 -15 10 -15 6 0 10 7 10 15 0 8 -4 15 -10 15 -5
0 -10 -7 -10 -15z"/>
<path d="M11110 4375 c0 -8 5 -15 10 -15 6 0 10 7 10 15 0 8 -4 15 -10 15 -5
0 -10 -7 -10 -15z"/>
<path d="M11170 4375 c0 -8 5 -15 10 -15 6 0 10 7 10 15 0 8 -4 15 -10 15 -5
0 -10 -7 -10 -15z"/>
<path d="M1132 3897 l-152 -152 0 -215 0 -215 153 -153 152 -152 370 0 370 0
153 153 152 152 0 215 0 215 -153 153 -152 152 -370 0 -370 0 -153 -153z m466
-244 c-14 -4 -18 -15 -18 -59 0 -30 -4 -54 -10 -54 -5 0 -10 24 -10 54 0 49
-2 55 -22 59 -13 2 0 4 27 4 28 1 42 -1 33 -4z m183 -5 c4 -90 3 -108 -8 -108
-8 0 -13 15 -13 40 0 22 -4 40 -9 40 -16 0 -23 -38 -11 -60 7 -14 8 -20 0 -20
-6 0 -13 7 -17 16 -4 12 -8 13 -14 3 -4 -7 -28 -15 -53 -16 -38 -3 -47 0 -57
18 -8 16 -8 28 0 45 13 30 56 33 71 5 15 -29 13 -31 -21 -31 -20 0 -29 -4 -26
-12 2 -7 18 -13 35 -13 37 0 50 22 32 55 -7 14 -8 20 0 20 6 0 13 -7 17 -16 5
-15 7 -15 15 0 5 9 16 16 23 16 8 0 15 7 15 15 0 18 20 20 21 3z m-271 -203
c0 -20 5 -25 25 -25 20 0 25 5 25 25 0 14 5 25 10 25 6 0 10 -27 10 -60 0 -33
-4 -60 -10 -60 -5 0 -10 14 -10 30 0 25 -4 30 -25 30 -21 0 -25 -5 -25 -30 0
-16 -4 -30 -10 -30 -6 0 -10 27 -10 60 0 33 4 60 10 60 6 0 10 -11 10 -25z
m160 -24 c15 -29 13 -31 -21 -31 -20 0 -29 -4 -26 -12 2 -8 17 -12 33 -10 22
2 26 0 14 -8 -45 -30 -96 12 -71 59 15 27 57 28 71 2z m53 12 c-8 -2 -13 -22
-13 -44 0 -21 -4 -39 -10 -39 -5 0 -10 20 -10 45 0 40 2 45 23 44 12 0 16 -3
10 -6z m87 -12 c15 -29 13 -31 -21 -31 -20 0 -29 -4 -26 -12 2 -8 17 -12 33
-10 22 2 26 0 14 -8 -45 -30 -96 12 -71 59 15 27 57 28 71 2z"/>
<path d="M1627 3613 c-13 -12 -7 -23 13 -23 13 0 18 5 14 15 -7 16 -17 19 -27
8z"/>
<path d="M1627 3423 c-13 -12 -7 -23 13 -23 13 0 18 5 14 15 -7 16 -17 19 -27
8z"/>
<path d="M1767 3423 c-13 -12 -7 -23 13 -23 13 0 18 5 14 15 -7 16 -17 19 -27
8z"/>
<path d="M6487 3983 c19 -4 23 -12 26 -61 l3 -57 2 57 c2 50 5 57 25 61 12 2
0 4 -28 4 -27 0 -40 -2 -28 -4z"/>
<path d="M6820 3930 c0 -33 4 -60 10 -60 6 0 10 14 10 30 0 25 4 30 25 30 21
0 25 -5 25 -30 0 -16 5 -30 10 -30 6 0 10 27 10 60 0 33 -4 60 -10 60 -5 0
-10 -11 -10 -25 0 -20 -5 -25 -25 -25 -20 0 -25 5 -25 25 0 14 -4 25 -10 25
-6 0 -10 -27 -10 -60z"/>
<path d="M6710 3970 c0 -5 -6 -10 -14 -10 -8 0 -17 -7 -20 -17 -6 -14 -8 -14
-21 3 -16 21 -20 8 -5 -16 6 -10 4 -22 -6 -37 -8 -13 -10 -23 -5 -23 5 0 12 8
16 18 6 16 7 16 19 0 19 -27 31 -22 13 5 -10 16 -12 28 -5 40 16 29 28 19 28
-23 0 -31 4 -40 17 -40 13 0 14 3 5 12 -14 14 -16 65 -3 70 5 2 3 9 -5 16 -8
7 -14 8 -14 2z"/>
<path d="M6562 3948 c-15 -15 -16 -50 0 -66 14 -14 44 -16 53 -3 3 6 -7 9 -21
8 -15 -1 -29 4 -31 11 -3 8 6 12 27 12 27 0 31 3 28 23 -3 25 -36 35 -56 15z
m46 -15 c2 -8 -6 -13 -22 -13 -19 0 -24 4 -19 15 6 18 34 16 41 -2z"/>
<path d="M6942 3948 c-15 -15 -16 -50 0 -66 14 -14 44 -16 53 -3 3 6 -7 9 -21
8 -15 -1 -29 4 -31 11 -3 8 6 12 27 12 27 0 31 3 28 23 -3 25 -36 35 -56 15z
m46 -15 c2 -8 -6 -13 -22 -13 -19 0 -24 4 -19 15 6 18 34 16 41 -2z"/>
<path d="M7021 3913 l1 -48 8 39 c4 21 13 42 21 47 11 6 8 9 -8 9 -21 0 -23
-5 -22 -47z"/>
<path d="M7082 3948 c-15 -15 -16 -50 0 -66 14 -14 44 -16 53 -3 3 6 -7 9 -21
8 -15 -1 -29 4 -31 11 -3 8 6 12 27 12 27 0 31 3 28 23 -3 25 -36 35 -56 15z
m46 -15 c2 -8 -6 -13 -22 -13 -19 0 -24 4 -19 15 6 18 34 16 41 -2z"/>
<path d="M6477 3313 c19 -4 23 -12 26 -61 l3 -57 2 57 c2 50 5 57 25 61 12 2
0 4 -28 4 -27 0 -40 -2 -28 -4z"/>
<path d="M6810 3260 c0 -33 4 -60 10 -60 6 0 10 14 10 30 0 25 4 30 25 30 21
0 25 -5 25 -30 0 -16 5 -30 10 -30 6 0 10 27 10 60 0 33 -4 60 -10 60 -5 0
-10 -11 -10 -25 0 -20 -5 -25 -25 -25 -20 0 -25 5 -25 25 0 14 -4 25 -10 25
-6 0 -10 -27 -10 -60z"/>
<path d="M9987 3313 c19 -4 23 -12 26 -61 l3 -57 2 57 c2 50 5 57 25 61 12 2
0 4 -28 4 -27 0 -40 -2 -28 -4z"/>
<path d="M10320 3260 c0 -33 4 -60 10 -60 6 0 10 14 10 30 0 25 4 30 25 30 21
0 25 -5 25 -30 0 -16 5 -30 10 -30 6 0 10 27 10 60 0 33 -4 60 -10 60 -5 0
-10 -11 -10 -25 0 -20 -5 -25 -25 -25 -20 0 -25 5 -25 25 0 14 -4 25 -10 25
-6 0 -10 -27 -10 -60z"/>
<path d="M2957 3303 c19 -4 23 -12 26 -61 l3 -57 2 57 c2 50 5 57 25 61 12 2
0 4 -28 4 -27 0 -40 -2 -28 -4z"/>
<path d="M3290 3250 c0 -33 4 -60 10 -60 6 0 10 14 10 30 0 25 4 30 25 30 21
0 25 -5 25 -30 0 -16 5 -30 10 -30 6 0 10 27 10 60 0 33 -4 60 -10 60 -5 0
-10 -11 -10 -25 0 -20 -5 -25 -25 -25 -20 0 -25 5 -25 25 0 14 -4 25 -10 25
-6 0 -10 -27 -10 -60z"/>
<path d="M4717 3303 c19 -4 23 -12 26 -61 l3 -57 2 57 c2 50 5 57 25 61 12 2
0 4 -28 4 -27 0 -40 -2 -28 -4z"/>
<path d="M5050 3250 c0 -33 4 -60 10 -60 6 0 10 14 10 30 0 25 4 30 25 30 21
0 25 -5 25 -30 0 -16 5 -30 10 -30 6 0 10 27 10 60 0 33 -4 60 -10 60 -5 0
-10 -11 -10 -25 0 -20 -5 -25 -25 -25 -20 0 -25 5 -25 25 0 14 -4 25 -10 25
-6 0 -10 -27 -10 -60z"/>
<path d="M6700 3300 c0 -5 -6 -10 -14 -10 -8 0 -17 -7 -20 -17 -6 -14 -8 -14
-21 3 -16 21 -20 8 -5 -16 6 -10 4 -22 -6 -37 -8 -13 -10 -23 -5 -23 5 0 12 8
16 18 6 16 7 16 19 0 19 -27 31 -22 13 5 -10 16 -12 28 -5 40 16 29 28 19 28
-23 0 -31 4 -40 17 -40 13 0 14 3 5 12 -14 14 -16 65 -3 70 5 2 3 9 -5 16 -8
7 -14 8 -14 2z"/>
<path d="M10210 3300 c0 -5 -6 -10 -14 -10 -8 0 -17 -7 -20 -17 -6 -14 -8 -14
-21 3 -16 21 -20 8 -5 -16 6 -10 4 -22 -6 -37 -8 -13 -10 -23 -5 -23 5 0 12 8
16 18 6 16 7 16 19 0 19 -27 31 -22 13 5 -10 16 -12 28 -5 40 16 29 28 19 28
-23 0 -31 4 -40 17 -40 13 0 14 3 5 12 -14 14 -16 65 -3 70 5 2 3 9 -5 16 -8
7 -14 8 -14 2z"/>
<path d="M3180 3290 c0 -5 -6 -10 -14 -10 -8 0 -17 -7 -20 -17 -6 -14 -8 -14
-21 3 -16 21 -20 8 -5 -16 6 -10 4 -22 -6 -37 -8 -13 -10 -23 -5 -23 5 0 12 8
16 18 6 16 7 16 19 0 19 -27 31 -22 13 5 -10 16 -12 28 -5 40 16 29 28 19 28
-23 0 -31 4 -40 17 -40 13 0 14 3 5 12 -14 14 -16 65 -3 70 5 2 3 9 -5 16 -8
7 -14 8 -14 2z"/>
<path d="M4940 3290 c0 -5 -6 -10 -14 -10 -8 0 -17 -7 -20 -17 -6 -14 -8 -14
-21 3 -16 21 -20 8 -5 -16 6 -10 4 -22 -6 -37 -8 -13 -10 -23 -5 -23 5 0 12 8
16 18 6 16 7 16 19 0 19 -27 31 -22 13 5 -10 16 -12 28 -5 40 16 29 28 19 28
-23 0 -31 4 -40 17 -40 13 0 14 3 5 12 -14 14 -16 65 -3 70 5 2 3 9 -5 16 -8
7 -14 8 -14 2z"/>
<path d="M6552 3278 c-15 -15 -16 -50 0 -66 14 -14 44 -16 53 -3 3 6 -7 9 -21
8 -15 -1 -29 4 -31 11 -3 8 6 12 27 12 27 0 31 3 28 23 -3 25 -36 35 -56 15z
m46 -15 c2 -8 -6 -13 -22 -13 -19 0 -24 4 -19 15 6 18 34 16 41 -2z"/>
<path d="M6932 3278 c-15 -15 -16 -50 0 -66 14 -14 44 -16 53 -3 3 6 -7 9 -21
8 -15 -1 -29 4 -31 11 -3 8 6 12 27 12 27 0 31 3 28 23 -3 25 -36 35 -56 15z
m46 -15 c2 -8 -6 -13 -22 -13 -19 0 -24 4 -19 15 6 18 34 16 41 -2z"/>
<path d="M7011 3243 l1 -48 8 39 c4 21 13 42 21 47 11 6 8 9 -8 9 -21 0 -23
-5 -22 -47z"/>
<path d="M7072 3278 c-15 -15 -16 -50 0 -66 14 -14 44 -16 53 -3 3 6 -7 9 -21
8 -15 -1 -29 4 -31 11 -3 8 6 12 27 12 27 0 31 3 28 23 -3 25 -36 35 -56 15z
m46 -15 c2 -8 -6 -13 -22 -13 -19 0 -24 4 -19 15 6 18 34 16 41 -2z"/>
<path d="M8227 3283 c19 -4 23 -12 26 -61 l3 -57 2 57 c2 50 5 57 25 61 12 2
0 4 -28 4 -27 0 -40 -2 -28 -4z"/>
<path d="M8560 3230 c0 -33 4 -60 10 -60 6 0 10 14 10 30 0 25 4 30 25 30 21
0 25 -5 25 -30 0 -16 5 -30 10 -30 6 0 10 27 10 60 0 33 -4 60 -10 60 -5 0
-10 -11 -10 -25 0 -20 -5 -25 -25 -25 -20 0 -25 5 -25 25 0 14 -4 25 -10 25
-6 0 -10 -27 -10 -60z"/>
<path d="M10062 3278 c-15 -15 -16 -50 0 -66 14 -14 44 -16 53 -3 3 6 -7 9
-21 8 -15 -1 -29 4 -31 11 -3 8 6 12 27 12 27 0 31 3 28 23 -3 25 -36 35 -56
15z m46 -15 c2 -8 -6 -13 -22 -13 -19 0 -24 4 -19 15 6 18 34 16 41 -2z"/>
<path d="M10442 3278 c-15 -15 -16 -50 0 -66 14 -14 44 -16 53 -3 3 6 -7 9
-21 8 -15 -1 -29 4 -31 11 -3 8 6 12 27 12 27 0 31 3 28 23 -3 25 -36 35 -56
15z m46 -15 c2 -8 -6 -13 -22 -13 -19 0 -24 4 -19 15 6 18 34 16 41 -2z"/>
<path d="M10521 3243 l1 -48 8 39 c4 21 13 42 21 47 11 6 8 9 -8 9 -21 0 -23
-5 -22 -47z"/>
<path d="M10582 3278 c-15 -15 -16 -50 0 -66 14 -14 44 -16 53 -3 3 6 -7 9
-21 8 -15 -1 -29 4 -31 11 -3 8 6 12 27 12 27 0 31 3 28 23 -3 25 -36 35 -56
15z m46 -15 c2 -8 -6 -13 -22 -13 -19 0 -24 4 -19 15 6 18 34 16 41 -2z"/>
<path d="M3032 3268 c-15 -15 -16 -50 0 -66 14 -14 44 -16 53 -3 3 6 -7 9 -21
8 -15 -1 -29 4 -31 11 -3 8 6 12 27 12 27 0 31 3 28 23 -3 25 -36 35 -56 15z
m46 -15 c2 -8 -6 -13 -22 -13 -19 0 -24 4 -19 15 6 18 34 16 41 -2z"/>
<path d="M3412 3268 c-15 -15 -16 -50 0 -66 14 -14 44 -16 53 -3 3 6 -7 9 -21
8 -15 -1 -29 4 -31 11 -3 8 6 12 27 12 27 0 31 3 28 23 -3 25 -36 35 -56 15z
m46 -15 c2 -8 -6 -13 -22 -13 -19 0 -24 4 -19 15 6 18 34 16 41 -2z"/>
<path d="M3491 3233 l1 -48 8 39 c4 21 13 42 21 47 11 6 8 9 -8 9 -21 0 -23
-5 -22 -47z"/>
<path d="M3552 3268 c-15 -15 -16 -50 0 -66 14 -14 44 -16 53 -3 3 6 -7 9 -21
8 -15 -1 -29 4 -31 11 -3 8 6 12 27 12 27 0 31 3 28 23 -3 25 -36 35 -56 15z
m46 -15 c2 -8 -6 -13 -22 -13 -19 0 -24 4 -19 15 6 18 34 16 41 -2z"/>
<path d="M4792 3268 c-15 -15 -16 -50 0 -66 14 -14 44 -16 53 -3 3 6 -7 9 -21
8 -15 -1 -29 4 -31 11 -3 8 6 12 27 12 27 0 31 3 28 23 -3 25 -36 35 -56 15z
m46 -15 c2 -8 -6 -13 -22 -13 -19 0 -24 4 -19 15 6 18 34 16 41 -2z"/>
<path d="M5172 3268 c-15 -15 -16 -50 0 -66 14 -14 44 -16 53 -3 3 6 -7 9 -21
8 -15 -1 -29 4 -31 11 -3 8 6 12 27 12 27 0 31 3 28 23 -3 25 -36 35 -56 15z
m46 -15 c2 -8 -6 -13 -22 -13 -19 0 -24 4 -19 15 6 18 34 16 41 -2z"/>
<path d="M5251 3233 l1 -48 8 39 c4 21 13 42 21 47 11 6 8 9 -8 9 -21 0 -23
-5 -22 -47z"/>
<path d="M5312 3268 c-15 -15 -16 -50 0 -66 14 -14 44 -16 53 -3 3 6 -7 9 -21
8 -15 -1 -29 4 -31 11 -3 8 6 12 27 12 27 0 31 3 28 23 -3 25 -36 35 -56 15z
m46 -15 c2 -8 -6 -13 -22 -13 -19 0 -24 4 -19 15 6 18 34 16 41 -2z"/>
<path d="M8450 3270 c0 -5 -6 -10 -14 -10 -8 0 -17 -7 -20 -17 -6 -14 -8 -14
-21 3 -16 21 -20 8 -5 -16 6 -10 4 -22 -6 -37 -8 -13 -10 -23 -5 -23 5 0 12 8
16 18 6 16 7 16 19 0 19 -27 31 -22 13 5 -10 16 -12 28 -5 40 16 29 28 19 28
-23 0 -31 4 -40 17 -40 13 0 14 3 5 12 -14 14 -16 65 -3 70 5 2 3 9 -5 16 -8
7 -14 8 -14 2z"/>
<path d="M8302 3248 c-15 -15 -16 -50 0 -66 14 -14 44 -16 53 -3 3 6 -7 9 -21
8 -15 -1 -29 4 -31 11 -3 8 6 12 27 12 27 0 31 3 28 23 -3 25 -36 35 -56 15z
m46 -15 c2 -8 -6 -13 -22 -13 -19 0 -24 4 -19 15 6 18 34 16 41 -2z"/>
<path d="M8682 3248 c-15 -15 -16 -50 0 -66 14 -14 44 -16 53 -3 3 6 -7 9 -21
8 -15 -1 -29 4 -31 11 -3 8 6 12 27 12 27 0 31 3 28 23 -3 25 -36 35 -56 15z
m46 -15 c2 -8 -6 -13 -22 -13 -19 0 -24 4 -19 15 6 18 34 16 41 -2z"/>
<path d="M8761 3213 l1 -48 8 39 c4 21 13 42 21 47 11 6 8 9 -8 9 -21 0 -23
-5 -22 -47z"/>
<path d="M8822 3248 c-15 -15 -16 -50 0 -66 14 -14 44 -16 53 -3 3 6 -7 9 -21
8 -15 -1 -29 4 -31 11 -3 8 6 12 27 12 27 0 31 3 28 23 -3 25 -36 35 -56 15z
m46 -15 c2 -8 -6 -13 -22 -13 -19 0 -24 4 -19 15 6 18 34 16 41 -2z"/>
<path d="M910 2745 c0 -8 5 -15 10 -15 6 0 10 7 10 15 0 8 -4 15 -10 15 -5 0
-10 -7 -10 -15z"/>
<path d="M970 2745 c0 -8 5 -15 10 -15 6 0 10 7 10 15 0 8 -4 15 -10 15 -5 0
-10 -7 -10 -15z"/>
<path d="M1030 2745 c0 -8 5 -15 10 -15 6 0 10 7 10 15 0 8 -4 15 -10 15 -5 0
-10 -7 -10 -15z"/>
<path d="M1090 2745 c0 -8 5 -15 10 -15 6 0 10 7 10 15 0 8 -4 15 -10 15 -5 0
-10 -7 -10 -15z"/>
<path d="M1150 2745 c0 -8 5 -15 10 -15 6 0 10 7 10 15 0 8 -4 15 -10 15 -5 0
-10 -7 -10 -15z"/>
<path d="M1210 2745 c0 -8 5 -15 10 -15 6 0 10 7 10 15 0 8 -4 15 -10 15 -5 0
-10 -7 -10 -15z"/>
<path d="M1270 2745 c0 -8 5 -15 10 -15 6 0 10 7 10 15 0 8 -4 15 -10 15 -5 0
-10 -7 -10 -15z"/>
<path d="M1330 2745 c0 -8 5 -15 10 -15 6 0 10 7 10 15 0 8 -4 15 -10 15 -5 0
-10 -7 -10 -15z"/>
<path d="M1390 2745 c0 -8 5 -15 10 -15 6 0 10 7 10 15 0 8 -4 15 -10 15 -5 0
-10 -7 -10 -15z"/>
<path d="M1450 2745 c0 -8 5 -15 10 -15 6 0 10 7 10 15 0 8 -4 15 -10 15 -5 0
-10 -7 -10 -15z"/>
<path d="M1510 2745 c0 -8 5 -15 10 -15 6 0 10 7 10 15 0 8 -4 15 -10 15 -5 0
-10 -7 -10 -15z"/>
<path d="M1570 2745 c0 -8 5 -15 10 -15 6 0 10 7 10 15 0 8 -4 15 -10 15 -5 0
-10 -7 -10 -15z"/>
<path d="M1630 2745 c0 -8 5 -15 10 -15 6 0 10 7 10 15 0 8 -4 15 -10 15 -5 0
-10 -7 -10 -15z"/>
<path d="M1690 2745 c0 -8 5 -15 10 -15 6 0 10 7 10 15 0 8 -4 15 -10 15 -5 0
-10 -7 -10 -15z"/>
<path d="M1750 2745 c0 -8 5 -15 10 -15 6 0 10 7 10 15 0 8 -4 15 -10 15 -5 0
-10 -7 -10 -15z"/>
<path d="M1810 2745 c0 -8 5 -15 10 -15 6 0 10 7 10 15 0 8 -4 15 -10 15 -5 0
-10 -7 -10 -15z"/>
<path d="M1870 2745 c0 -8 5 -15 10 -15 6 0 10 7 10 15 0 8 -4 15 -10 15 -5 0
-10 -7 -10 -15z"/>
<path d="M1930 2745 c0 -8 5 -15 10 -15 6 0 10 7 10 15 0 8 -4 15 -10 15 -5 0
-10 -7 -10 -15z"/>
<path d="M1990 2745 c0 -8 5 -15 10 -15 6 0 10 7 10 15 0 8 -4 15 -10 15 -5 0
-10 -7 -10 -15z"/>
<path d="M2050 2745 c0 -8 5 -15 10 -15 6 0 10 7 10 15 0 8 -4 15 -10 15 -5 0
-10 -7 -10 -15z"/>
<path d="M2110 2745 c0 -8 5 -15 10 -15 6 0 10 7 10 15 0 8 -4 15 -10 15 -5 0
-10 -7 -10 -15z"/>
<path d="M2170 2745 c0 -8 5 -15 10 -15 6 0 10 7 10 15 0 8 -4 15 -10 15 -5 0
-10 -7 -10 -15z"/>
<path d="M2230 2745 c0 -8 5 -15 10 -15 6 0 10 7 10 15 0 8 -4 15 -10 15 -5 0
-10 -7 -10 -15z"/>
<path d="M2290 2745 c0 -8 5 -15 10 -15 6 0 10 7 10 15 0 8 -4 15 -10 15 -5 0
-10 -7 -10 -15z"/>
<path d="M2350 2745 c0 -8 5 -15 10 -15 6 0 10 7 10 15 0 8 -4 15 -10 15 -5 0
-10 -7 -10 -15z"/>
<path d="M2410 2745 c0 -8 5 -15 10 -15 6 0 10 7 10 15 0 8 -4 15 -10 15 -5 0
-10 -7 -10 -15z"/>
<path d="M2470 2745 c0 -8 5 -15 10 -15 6 0 10 7 10 15 0 8 -4 15 -10 15 -5 0
-10 -7 -10 -15z"/>
<path d="M2530 2745 c0 -8 5 -15 10 -15 6 0 10 7 10 15 0 8 -4 15 -10 15 -5 0
-10 -7 -10 -15z"/>
<path d="M2590 2745 c0 -8 5 -15 10 -15 6 0 10 7 10 15 0 8 -4 15 -10 15 -5 0
-10 -7 -10 -15z"/>
<path d="M2650 2745 c0 -8 5 -15 10 -15 6 0 10 7 10 15 0 8 -4 15 -10 15 -5 0
-10 -7 -10 -15z"/>
<path d="M2710 2745 c0 -8 5 -15 10 -15 6 0 10 7 10 15 0 8 -4 15 -10 15 -5 0
-10 -7 -10 -15z"/>
<path d="M2770 2745 c0 -8 5 -15 10 -15 6 0 10 7 10 15 0 8 -4 15 -10 15 -5 0
-10 -7 -10 -15z"/>
<path d="M2830 2745 c0 -8 5 -15 10 -15 6 0 10 7 10 15 0 8 -4 15 -10 15 -5 0
-10 -7 -10 -15z"/>
<path d="M2890 2745 c0 -8 5 -15 10 -15 6 0 10 7 10 15 0 8 -4 15 -10 15 -5 0
-10 -7 -10 -15z"/>
<path d="M2950 2745 c0 -8 5 -15 10 -15 6 0 10 7 10 15 0 8 -4 15 -10 15 -5 0
-10 -7 -10 -15z"/>
<path d="M3010 2745 c0 -8 5 -15 10 -15 6 0 10 7 10 15 0 8 -4 15 -10 15 -5 0
-10 -7 -10 -15z"/>
<path d="M3070 2745 c0 -8 5 -15 10 -15 6 0 10 7 10 15 0 8 -4 15 -10 15 -5 0
-10 -7 -10 -15z"/>
<path d="M3130 2745 c0 -8 5 -15 10 -15 6 0 10 7 10 15 0 8 -4 15 -10 15 -5 0
-10 -7 -10 -15z"/>
<path d="M3190 2745 c0 -8 5 -15 10 -15 6 0 10 7 10 15 0 8 -4 15 -10 15 -5 0
-10 -7 -10 -15z"/>
<path d="M3250 2745 c0 -8 5 -15 10 -15 6 0 10 7 10 15 0 8 -4 15 -10 15 -5 0
-10 -7 -10 -15z"/>
<path d="M3310 2745 c0 -8 5 -15 10 -15 6 0 10 7 10 15 0 8 -4 15 -10 15 -5 0
-10 -7 -10 -15z"/>
<path d="M3370 2745 c0 -8 5 -15 10 -15 6 0 10 7 10 15 0 8 -4 15 -10 15 -5 0
-10 -7 -10 -15z"/>
<path d="M3430 2745 c0 -8 5 -15 10 -15 6 0 10 7 10 15 0 8 -4 15 -10 15 -5 0
-10 -7 -10 -15z"/>
<path d="M3490 2745 c0 -8 5 -15 10 -15 6 0 10 7 10 15 0 8 -4 15 -10 15 -5 0
-10 -7 -10 -15z"/>
<path d="M3550 2745 c0 -8 5 -15 10 -15 6 0 10 7 10 15 0 8 -4 15 -10 15 -5 0
-10 -7 -10 -15z"/>
<path d="M3610 2745 c0 -8 5 -15 10 -15 6 0 10 7 10 15 0 8 -4 15 -10 15 -5 0
-10 -7 -10 -15z"/>
<path d="M3670 2745 c0 -8 5 -15 10 -15 6 0 10 7 10 15 0 8 -4 15 -10 15 -5 0
-10 -7 -10 -15z"/>
<path d="M3730 2745 c0 -8 5 -15 10 -15 6 0 10 7 10 15 0 8 -4 15 -10 15 -5 0
-10 -7 -10 -15z"/>
<path d="M3790 2745 c0 -8 5 -15 10 -15 6 0 10 7 10 15 0 8 -4 15 -10 15 -5 0
-10 -7 -10 -15z"/>
<path d="M3850 2745 c0 -8 5 -15 10 -15 6 0 10 7 10 15 0 8 -4 15 -10 15 -5 0
-10 -7 -10 -15z"/>
<path d="M3910 2745 c0 -8 5 -15 10 -15 6 0 10 7 10 15 0 8 -4 15 -10 15 -5 0
-10 -7 -10 -15z"/>
<path d="M3970 2745 c0 -8 5 -15 10 -15 6 0 10 7 10 15 0 8 -4 15 -10 15 -5 0
-10 -7 -10 -15z"/>
<path d="M4030 2745 c0 -8 5 -15 10 -15 6 0 10 7 10 15 0 8 -4 15 -10 15 -5 0
-10 -7 -10 -15z"/>
<path d="M4090 2745 c0 -8 5 -15 10 -15 6 0 10 7 10 15 0 8 -4 15 -10 15 -5 0
-10 -7 -10 -15z"/>
<path d="M4150 2745 c0 -8 5 -15 10 -15 6 0 10 7 10 15 0 8 -4 15 -10 15 -5 0
-10 -7 -10 -15z"/>
<path d="M4210 2745 c0 -8 5 -15 10 -15 6 0 10 7 10 15 0 8 -4 15 -10 15 -5 0
-10 -7 -10 -15z"/>
<path d="M4270 2745 c0 -8 5 -15 10 -15 6 0 10 7 10 15 0 8 -4 15 -10 15 -5 0
-10 -7 -10 -15z"/>
<path d="M4330 2745 c0 -8 5 -15 10 -15 6 0 10 7 10 15 0 8 -4 15 -10 15 -5 0
-10 -7 -10 -15z"/>
<path d="M4390 2745 c0 -8 5 -15 10 -15 6 0 10 7 10 15 0 8 -4 15 -10 15 -5 0
-10 -7 -10 -15z"/>
<path d="M4450 2745 c0 -8 5 -15 10 -15 6 0 10 7 10 15 0 8 -4 15 -10 15 -5 0
-10 -7 -10 -15z"/>
<path d="M4510 2745 c0 -8 5 -15 10 -15 6 0 10 7 10 15 0 8 -4 15 -10 15 -5 0
-10 -7 -10 -15z"/>
<path d="M4570 2745 c0 -8 5 -15 10 -15 6 0 10 7 10 15 0 8 -4 15 -10 15 -5 0
-10 -7 -10 -15z"/>
<path d="M4630 2745 c0 -8 5 -15 10 -15 6 0 10 7 10 15 0 8 -4 15 -10 15 -5 0
-10 -7 -10 -15z"/>
<path d="M4690 2745 c0 -8 5 -15 10 -15 6 0 10 7 10 15 0 8 -4 15 -10 15 -5 0
-10 -7 -10 -15z"/>
<path d="M4750 2745 c0 -8 5 -15 10 -15 6 0 10 7 10 15 0 8 -4 15 -10 15 -5 0
-10 -7 -10 -15z"/>
<path d="M4810 2745 c0 -8 5 -15 10 -15 6 0 10 7 10 15 0 8 -4 15 -10 15 -5 0
-10 -7 -10 -15z"/>
<path d="M4870 2745 c0 -8 5 -15 10 -15 6 0 10 7 10 15 0 8 -4 15 -10 15 -5 0
-10 -7 -10 -15z"/>
<path d="M4930 2745 c0 -8 5 -15 10 -15 6 0 10 7 10 15 0 8 -4 15 -10 15 -5 0
-10 -7 -10 -15z"/>
<path d="M4990 2745 c0 -8 5 -15 10 -15 6 0 10 7 10 15 0 8 -4 15 -10 15 -5 0
-10 -7 -10 -15z"/>
<path d="M5050 2745 c0 -8 5 -15 10 -15 6 0 10 7 10 15 0 8 -4 15 -10 15 -5 0
-10 -7 -10 -15z"/>
<path d="M5110 2745 c0 -8 5 -15 10 -15 6 0 10 7 10 15 0 8 -4 15 -10 15 -5 0
-10 -7 -10 -15z"/>
<path d="M5170 2745 c0 -8 5 -15 10 -15 6 0 10 7 10 15 0 8 -4 15 -10 15 -5 0
-10 -7 -10 -15z"/>
<path d="M5230 2745 c0 -8 5 -15 10 -15 6 0 10 7 10 15 0 8 -4 15 -10 15 -5 0
-10 -7 -10 -15z"/>
<path d="M5290 2745 c0 -8 5 -15 10 -15 6 0 10 7 10 15 0 8 -4 15 -10 15 -5 0
-10 -7 -10 -15z"/>
<path d="M5350 2745 c0 -8 5 -15 10 -15 6 0 10 7 10 15 0 8 -4 15 -10 15 -5 0
-10 -7 -10 -15z"/>
<path d="M5410 2745 c0 -8 5 -15 10 -15 6 0 10 7 10 15 0 8 -4 15 -10 15 -5 0
-10 -7 -10 -15z"/>
<path d="M5470 2745 c0 -8 5 -15 10 -15 6 0 10 7 10 15 0 8 -4 15 -10 15 -5 0
-10 -7 -10 -15z"/>
<path d="M5530 2745 c0 -8 5 -15 10 -15 6 0 10 7 10 15 0 8 -4 15 -10 15 -5 0
-10 -7 -10 -15z"/>
<path d="M5590 2745 c0 -8 5 -15 10 -15 6 0 10 7 10 15 0 8 -4 15 -10 15 -5 0
-10 -7 -10 -15z"/>
<path d="M5650 2745 c0 -8 5 -15 10 -15 6 0 10 7 10 15 0 8 -4 15 -10 15 -5 0
-10 -7 -10 -15z"/>
<path d="M5710 2745 c0 -8 5 -15 10 -15 6 0 10 7 10 15 0 8 -4 15 -10 15 -5 0
-10 -7 -10 -15z"/>
<path d="M5770 2745 c0 -8 5 -15 10 -15 6 0 10 7 10 15 0 8 -4 15 -10 15 -5 0
-10 -7 -10 -15z"/>
<path d="M5830 2745 c0 -8 5 -15 10 -15 6 0 10 7 10 15 0 8 -4 15 -10 15 -5 0
-10 -7 -10 -15z"/>
<path d="M5890 2745 c0 -8 5 -15 10 -15 6 0 10 7 10 15 0 8 -4 15 -10 15 -5 0
-10 -7 -10 -15z"/>
<path d="M5950 2745 c0 -8 5 -15 10 -15 6 0 10 7 10 15 0 8 -4 15 -10 15 -5 0
-10 -7 -10 -15z"/>
<path d="M6010 2745 c0 -8 5 -15 10 -15 6 0 10 7 10 15 0 8 -4 15 -10 15 -5 0
-10 -7 -10 -15z"/>
<path d="M6070 2745 c0 -8 5 -15 10 -15 6 0 10 7 10 15 0 8 -4 15 -10 15 -5 0
-10 -7 -10 -15z"/>
<path d="M6130 2745 c0 -8 5 -15 10 -15 6 0 10 7 10 15 0 8 -4 15 -10 15 -5 0
-10 -7 -10 -15z"/>
<path d="M6190 2745 c0 -8 5 -15 10 -15 6 0 10 7 10 15 0 8 -4 15 -10 15 -5 0
-10 -7 -10 -15z"/>
<path d="M6250 2745 c0 -8 5 -15 10 -15 6 0 10 7 10 15 0 8 -4 15 -10 15 -5 0
-10 -7 -10 -15z"/>
<path d="M6310 2745 c0 -8 5 -15 10 -15 6 0 10 7 10 15 0 8 -4 15 -10 15 -5 0
-10 -7 -10 -15z"/>
<path d="M6370 2745 c0 -8 5 -15 10 -15 6 0 10 7 10 15 0 8 -4 15 -10 15 -5 0
-10 -7 -10 -15z"/>
<path d="M6430 2745 c0 -8 5 -15 10 -15 6 0 10 7 10 15 0 8 -4 15 -10 15 -5 0
-10 -7 -10 -15z"/>
<path d="M6490 2745 c0 -8 5 -15 10 -15 6 0 10 7 10 15 0 8 -4 15 -10 15 -5 0
-10 -7 -10 -15z"/>
<path d="M6550 2745 c0 -8 5 -15 10 -15 6 0 10 7 10 15 0 8 -4 15 -10 15 -5 0
-10 -7 -10 -15z"/>
<path d="M6610 2745 c0 -8 5 -15 10 -15 6 0 10 7 10 15 0 8 -4 15 -10 15 -5 0
-10 -7 -10 -15z"/>
<path d="M6670 2745 c0 -8 5 -15 10 -15 6 0 10 7 10 15 0 8 -4 15 -10 15 -5 0
-10 -7 -10 -15z"/>
<path d="M6730 2745 c0 -8 5 -15 10 -15 6 0 10 7 10 15 0 8 -4 15 -10 15 -5 0
-10 -7 -10 -15z"/>
<path d="M6790 2745 c0 -8 5 -15 10 -15 6 0 10 7 10 15 0 8 -4 15 -10 15 -5 0
-10 -7 -10 -15z"/>
<path d="M6850 2745 c0 -8 5 -15 10 -15 6 0 10 7 10 15 0 8 -4 15 -10 15 -5 0
-10 -7 -10 -15z"/>
<path d="M6910 2745 c0 -8 5 -15 10 -15 6 0 10 7 10 15 0 8 -4 15 -10 15 -5 0
-10 -7 -10 -15z"/>
<path d="M6970 2745 c0 -8 5 -15 10 -15 6 0 10 7 10 15 0 8 -4 15 -10 15 -5 0
-10 -7 -10 -15z"/>
<path d="M7030 2745 c0 -8 5 -15 10 -15 6 0 10 7 10 15 0 8 -4 15 -10 15 -5 0
-10 -7 -10 -15z"/>
<path d="M7090 2745 c0 -8 5 -15 10 -15 6 0 10 7 10 15 0 8 -4 15 -10 15 -5 0
-10 -7 -10 -15z"/>
<path d="M7150 2745 c0 -8 5 -15 10 -15 6 0 10 7 10 15 0 8 -4 15 -10 15 -5 0
-10 -7 -10 -15z"/>
<path d="M7210 2745 c0 -8 5 -15 10 -15 6 0 10 7 10 15 0 8 -4 15 -10 15 -5 0
-10 -7 -10 -15z"/>
<path d="M7270 2745 c0 -8 5 -15 10 -15 6 0 10 7 10 15 0 8 -4 15 -10 15 -5 0
-10 -7 -10 -15z"/>
<path d="M7330 2745 c0 -8 5 -15 10 -15 6 0 10 7 10 15 0 8 -4 15 -10 15 -5 0
-10 -7 -10 -15z"/>
<path d="M7390 2745 c0 -8 5 -15 10 -15 6 0 10 7 10 15 0 8 -4 15 -10 15 -5 0
-10 -7 -10 -15z"/>
<path d="M7450 2745 c0 -8 5 -15 10 -15 6 0 10 7 10 15 0 8 -4 15 -10 15 -5 0
-10 -7 -10 -15z"/>
<path d="M7510 2745 c0 -8 5 -15 10 -15 6 0 10 7 10 15 0 8 -4 15 -10 15 -5 0
-10 -7 -10 -15z"/>
<path d="M7570 2745 c0 -8 5 -15 10 -15 6 0 10 7 10 15 0 8 -4 15 -10 15 -5 0
-10 -7 -10 -15z"/>
<path d="M7630 2745 c0 -8 5 -15 10 -15 6 0 10 7 10 15 0 8 -4 15 -10 15 -5 0
-10 -7 -10 -15z"/>
<path d="M7690 2745 c0 -8 5 -15 10 -15 6 0 10 7 10 15 0 8 -4 15 -10 15 -5 0
-10 -7 -10 -15z"/>
<path d="M7750 2745 c0 -8 5 -15 10 -15 6 0 10 7 10 15 0 8 -4 15 -10 15 -5 0
-10 -7 -10 -15z"/>
<path d="M7810 2745 c0 -8 5 -15 10 -15 6 0 10 7 10 15 0 8 -4 15 -10 15 -5 0
-10 -7 -10 -15z"/>
<path d="M7870 2745 c0 -8 5 -15 10 -15 6 0 10 7 10 15 0 8 -4 15 -10 15 -5 0
-10 -7 -10 -15z"/>
<path d="M7930 2745 c0 -8 5 -15 10 -15 6 0 10 7 10 15 0 8 -4 15 -10 15 -5 0
-10 -7 -10 -15z"/>
<path d="M7990 2745 c0 -8 5 -15 10 -15 6 0 10 7 10 15 0 8 -4 15 -10 15 -5 0
-10 -7 -10 -15z"/>
<path d="M8050 2745 c0 -8 5 -15 10 -15 6 0 10 7 10 15 0 8 -4 15 -10 15 -5 0
-10 -7 -10 -15z"/>
<path d="M8110 2745 c0 -8 5 -15 10 -15 6 0 10 7 10 15 0 8 -4 15 -10 15 -5 0
-10 -7 -10 -15z"/>
<path d="M8170 2745 c0 -8 5 -15 10 -15 6 0 10 7 10 15 0 8 -4 15 -10 15 -5 0
-10 -7 -10 -15z"/>
<path d="M8230 2745 c0 -8 5 -15 10 -15 6 0 10 7 10 15 0 8 -4 15 -10 15 -5 0
-10 -7 -10 -15z"/>
<path d="M8290 2745 c0 -8 5 -15 10 -15 6 0 10 7 10 15 0 8 -4 15 -10 15 -5 0
-10 -7 -10 -15z"/>
<path d="M8350 2745 c0 -8 5 -15 10 -15 6 0 10 7 10 15 0 8 -4 15 -10 15 -5 0
-10 -7 -10 -15z"/>
<path d="M8410 2745 c0 -8 5 -15 10 -15 6 0 10 7 10 15 0 8 -4 15 -10 15 -5 0
-10 -7 -10 -15z"/>
<path d="M8470 2745 c0 -8 5 -15 10 -15 6 0 10 7 10 15 0 8 -4 15 -10 15 -5 0
-10 -7 -10 -15z"/>
<path d="M8530 2745 c0 -8 5 -15 10 -15 6 0 10 7 10 15 0 8 -4 15 -10 15 -5 0
-10 -7 -10 -15z"/>
<path d="M8590 2745 c0 -8 5 -15 10 -15 6 0 10 7 10 15 0 8 -4 15 -10 15 -5 0
-10 -7 -10 -15z"/>
<path d="M8650 2745 c0 -8 5 -15 10 -15 6 0 10 7 10 15 0 8 -4 15 -10 15 -5 0
-10 -7 -10 -15z"/>
<path d="M8710 2745 c0 -8 5 -15 10 -15 6 0 10 7 10 15 0 8 -4 15 -10 15 -5 0
-10 -7 -10 -15z"/>
<path d="M8770 2745 c0 -8 5 -15 10 -15 6 0 10 7 10 15 0 8 -4 15 -10 15 -5 0
-10 -7 -10 -15z"/>
<path d="M8830 2745 c0 -8 5 -15 10 -15 6 0 10 7 10 15 0 8 -4 15 -10 15 -5 0
-10 -7 -10 -15z"/>
<path d="M8890 2745 c0 -8 5 -15 10 -15 6 0 10 7 10 15 0 8 -4 15 -10 15 -5 0
-10 -7 -10 -15z"/>
<path d="M8950 2745 c0 -8 5 -15 10 -15 6 0 10 7 10 15 0 8 -4 15 -10 15 -5 0
-10 -7 -10 -15z"/>
<path d="M9010 2745 c0 -8 5 -15 10 -15 6 0 10 7 10 15 0 8 -4 15 -10 15 -5 0
-10 -7 -10 -15z"/>
<path d="M9070 2745 c0 -8 5 -15 10 -15 6 0 10 7 10 15 0 8 -4 15 -10 15 -5 0
-10 -7 -10 -15z"/>
<path d="M9130 2745 c0 -8 5 -15 10 -15 6 0 10 7 10 15 0 8 -4 15 -10 15 -5 0
-10 -7 -10 -15z"/>
<path d="M9190 2745 c0 -8 5 -15 10 -15 6 0 10 7 10 15 0 8 -4 15 -10 15 -5 0
-10 -7 -10 -15z"/>
<path d="M9250 2745 c0 -8 5 -15 10 -15 6 0 10 7 10 15 0 8 -4 15 -10 15 -5 0
-10 -7 -10 -15z"/>
<path d="M9310 2745 c0 -8 5 -15 10 -15 6 0 10 7 10 15 0 8 -4 15 -10 15 -5 0
-10 -7 -10 -15z"/>
<path d="M9370 2745 c0 -8 5 -15 10 -15 6 0 10 7 10 15 0 8 -4 15 -10 15 -5 0
-10 -7 -10 -15z"/>
<path d="M9430 2745 c0 -8 5 -15 10 -15 6 0 10 7 10 15 0 8 -4 15 -10 15 -5 0
-10 -7 -10 -15z"/>
<path d="M9490 2745 c0 -8 5 -15 10 -15 6 0 10 7 10 15 0 8 -4 15 -10 15 -5 0
-10 -7 -10 -15z"/>
<path d="M9550 2745 c0 -8 5 -15 10 -15 6 0 10 7 10 15 0 8 -4 15 -10 15 -5 0
-10 -7 -10 -15z"/>
<path d="M9610 2745 c0 -8 5 -15 10 -15 6 0 10 7 10 15 0 8 -4 15 -10 15 -5 0
-10 -7 -10 -15z"/>
<path d="M9670 2745 c0 -8 5 -15 10 -15 6 0 10 7 10 15 0 8 -4 15 -10 15 -5 0
-10 -7 -10 -15z"/>
<path d="M9730 2745 c0 -8 5 -15 10 -15 6 0 10 7 10 15 0 8 -4 15 -10 15 -5 0
-10 -7 -10 -15z"/>
<path d="M9790 2745 c0 -8 5 -15 10 -15 6 0 10 7 10 15 0 8 -4 15 -10 15 -5 0
-10 -7 -10 -15z"/>
<path d="M9850 2745 c0 -8 5 -15 10 -15 6 0 10 7 10 15 0 8 -4 15 -10 15 -5 0
-10 -7 -10 -15z"/>
<path d="M9910 2745 c0 -8 5 -15 10 -15 6 0 10 7 10 15 0 8 -4 15 -10 15 -5 0
-10 -7 -10 -15z"/>
<path d="M9970 2745 c0 -8 5 -15 10 -15 6 0 10 7 10 15 0 8 -4 15 -10 15 -5 0
-10 -7 -10 -15z"/>
<path d="M10030 2745 c0 -8 5 -15 10 -15 6 0 10 7 10 15 0 8 -4 15 -10 15 -5
0 -10 -7 -10 -15z"/>
<path d="M10090 2745 c0 -8 5 -15 10 -15 6 0 10 7 10 15 0 8 -4 15 -10 15 -5
0 -10 -7 -10 -15z"/>
<path d="M10150 2745 c0 -8 5 -15 10 -15 6 0 10 7 10 15 0 8 -4 15 -10 15 -5
0 -10 -7 -10 -15z"/>
<path d="M10210 2745 c0 -8 5 -15 10 -15 6 0 10 7 10 15 0 8 -4 15 -10 15 -5
0 -10 -7 -10 -15z"/>
<path d="M10270 2745 c0 -8 5 -15 10 -15 6 0 10 7 10 15 0 8 -4 15 -10 15 -5
0 -10 -7 -10 -15z"/>
<path d="M10330 2745 c0 -8 5 -15 10 -15 6 0 10 7 10 15 0 8 -4 15 -10 15 -5
0 -10 -7 -10 -15z"/>
<path d="M10390 2745 c0 -8 5 -15 10 -15 6 0 10 7 10 15 0 8 -4 15 -10 15 -5
0 -10 -7 -10 -15z"/>
<path d="M10450 2745 c0 -8 5 -15 10 -15 6 0 10 7 10 15 0 8 -4 15 -10 15 -5
0 -10 -7 -10 -15z"/>
<path d="M10510 2745 c0 -8 5 -15 10 -15 6 0 10 7 10 15 0 8 -4 15 -10 15 -5
0 -10 -7 -10 -15z"/>
<path d="M10570 2745 c0 -8 5 -15 10 -15 6 0 10 7 10 15 0 8 -4 15 -10 15 -5
0 -10 -7 -10 -15z"/>
<path d="M10630 2745 c0 -8 5 -15 10 -15 6 0 10 7 10 15 0 8 -4 15 -10 15 -5
0 -10 -7 -10 -15z"/>
<path d="M10690 2745 c0 -8 5 -15 10 -15 6 0 10 7 10 15 0 8 -4 15 -10 15 -5
0 -10 -7 -10 -15z"/>
<path d="M10750 2745 c0 -8 5 -15 10 -15 6 0 10 7 10 15 0 8 -4 15 -10 15 -5
0 -10 -7 -10 -15z"/>
<path d="M10810 2745 c0 -8 5 -15 10 -15 6 0 10 7 10 15 0 8 -4 15 -10 15 -5
0 -10 -7 -10 -15z"/>
<path d="M10870 2745 c0 -8 5 -15 10 -15 6 0 10 7 10 15 0 8 -4 15 -10 15 -5
0 -10 -7 -10 -15z"/>
<path d="M10930 2745 c0 -8 5 -15 10 -15 6 0 10 7 10 15 0 8 -4 15 -10 15 -5
0 -10 -7 -10 -15z"/>
<path d="M10990 2745 c0 -8 5 -15 10 -15 6 0 10 7 10 15 0 8 -4 15 -10 15 -5
0 -10 -7 -10 -15z"/>
<path d="M11050 2745 c0 -8 5 -15 10 -15 6 0 10 7 10 15 0 8 -4 15 -10 15 -5
0 -10 -7 -10 -15z"/>
<path d="M11110 2745 c0 -8 5 -15 10 -15 6 0 10 7 10 15 0 8 -4 15 -10 15 -5
0 -10 -7 -10 -15z"/>
<path d="M11170 2745 c0 -8 5 -15 10 -15 6 0 10 7 10 15 0 8 -4 15 -10 15 -5
0 -10 -7 -10 -15z"/>
<path d="M3527 2323 c19 -4 23 -12 26 -61 l3 -57 2 57 c2 50 5 57 25 61 12 2
0 4 -28 4 -27 0 -40 -2 -28 -4z"/>
<path d="M3860 2270 c0 -33 4 -60 10 -60 6 0 10 14 10 30 0 25 4 30 25 30 21
0 25 -5 25 -30 0 -16 5 -30 10 -30 6 0 10 27 10 60 0 33 -4 60 -10 60 -5 0
-10 -11 -10 -25 0 -20 -5 -25 -25 -25 -20 0 -25 5 -25 25 0 14 -4 25 -10 25
-6 0 -10 -27 -10 -60z"/>
<path d="M3750 2310 c0 -5 -6 -10 -14 -10 -8 0 -17 -7 -20 -17 -6 -14 -8 -14
-21 3 -16 21 -20 8 -5 -16 6 -10 4 -22 -6 -37 -8 -13 -10 -23 -5 -23 5 0 12 8
16 18 6 16 7 16 19 0 19 -27 31 -22 13 5 -10 16 -12 28 -5 40 16 29 28 19 28
-23 0 -31 4 -40 17 -40 13 0 14 3 5 12 -14 14 -16 65 -3 70 5 2 3 9 -5 16 -8
7 -14 8 -14 2z"/>
<path d="M6477 2303 c19 -4 23 -12 26 -61 l3 -57 2 57 c2 50 5 57 25 61 12 2
0 4 -28 4 -27 0 -40 -2 -28 -4z"/>
<path d="M6810 2250 c0 -33 4 -60 10 -60 6 0 10 14 10 30 0 25 4 30 25 30 21
0 25 -5 25 -30 0 -16 5 -30 10 -30 6 0 10 27 10 60 0 33 -4 60 -10 60 -5 0
-10 -11 -10 -25 0 -20 -5 -25 -25 -25 -20 0 -25 5 -25 25 0 14 -4 25 -10 25
-6 0 -10 -27 -10 -60z"/>
<path d="M9437 2303 c19 -4 23 -12 26 -61 l3 -57 2 57 c2 50 5 57 25 61 12 2
0 4 -28 4 -27 0 -40 -2 -28 -4z"/>
<path d="M9770 2250 c0 -33 4 -60 10 -60 6 0 10 14 10 30 0 25 4 30 25 30 21
0 25 -5 25 -30 0 -16 5 -30 10 -30 6 0 10 27 10 60 0 33 -4 60 -10 60 -5 0
-10 -11 -10 -25 0 -20 -5 -25 -25 -25 -20 0 -25 5 -25 25 0 14 -4 25 -10 25
-6 0 -10 -27 -10 -60z"/>
<path d="M3602 2288 c-15 -15 -16 -50 0 -66 14 -14 44 -16 53 -3 3 6 -7 9 -21
8 -15 -1 -29 4 -31 11 -3 8 6 12 27 12 27 0 31 3 28 23 -3 25 -36 35 -56 15z
m46 -15 c2 -8 -6 -13 -22 -13 -19 0 -24 4 -19 15 6 18 34 16 41 -2z"/>
<path d="M3982 2288 c-15 -15 -16 -50 0 -66 14 -14 44 -16 53 -3 3 6 -7 9 -21
8 -15 -1 -29 4 -31 11 -3 8 6 12 27 12 27 0 31 3 28 23 -3 25 -36 35 -56 15z
m46 -15 c2 -8 -6 -13 -22 -13 -19 0 -24 4 -19 15 6 18 34 16 41 -2z"/>
<path d="M4061 2253 l1 -48 8 39 c4 21 13 42 21 47 11 6 8 9 -8 9 -21 0 -23
-5 -22 -47z"/>
<path d="M4122 2288 c-15 -15 -16 -50 0 -66 14 -14 44 -16 53 -3 3 6 -7 9 -21
8 -15 -1 -29 4 -31 11 -3 8 6 12 27 12 27 0 31 3 28 23 -3 25 -36 35 -56 15z
m46 -15 c2 -8 -6 -13 -22 -13 -19 0 -24 4 -19 15 6 18 34 16 41 -2z"/>
<path d="M6700 2290 c0 -5 -6 -10 -14 -10 -8 0 -17 -7 -20 -17 -6 -14 -8 -14
-21 3 -16 21 -20 8 -5 -16 6 -10 4 -22 -6 -37 -8 -13 -10 -23 -5 -23 5 0 12 8
16 18 6 16 7 16 19 0 19 -27 31 -22 13 5 -10 16 -12 28 -5 40 16 29 28 19 28
-23 0 -31 4 -40 17 -40 13 0 14 3 5 12 -14 14 -16 65 -3 70 5 2 3 9 -5 16 -8
7 -14 8 -14 2z"/>
<path d="M9660 2290 c0 -5 -6 -10 -14 -10 -8 0 -17 -7 -20 -17 -6 -14 -8 -14
-21 3 -16 21 -20 8 -5 -16 6 -10 4 -22 -6 -37 -8 -13 -10 -23 -5 -23 5 0 12 8
16 18 6 16 7 16 19 0 19 -27 31 -22 13 5 -10 16 -12 28 -5 40 16 29 28 19 28
-23 0 -31 4 -40 17 -40 13 0 14 3 5 12 -14 14 -16 65 -3 70 5 2 3 9 -5 16 -8
7 -14 8 -14 2z"/>
<path d="M6552 2268 c-15 -15 -16 -50 0 -66 14 -14 44 -16 53 -3 3 6 -7 9 -21
8 -15 -1 -29 4 -31 11 -3 8 6 12 27 12 27 0 31 3 28 23 -3 25 -36 35 -56 15z
m46 -15 c2 -8 -6 -13 -22 -13 -19 0 -24 4 -19 15 6 18 34 16 41 -2z"/>
<path d="M6932 2268 c-15 -15 -16 -50 0 -66 14 -14 44 -16 53 -3 3 6 -7 9 -21
8 -15 -1 -29 4 -31 11 -3 8 6 12 27 12 27 0 31 3 28 23 -3 25 -36 35 -56 15z
m46 -15 c2 -8 -6 -13 -22 -13 -19 0 -24 4 -19 15 6 18 34 16 41 -2z"/>
<path d="M7011 2233 l1 -48 8 39 c4 21 13 42 21 47 11 6 8 9 -8 9 -21 0 -23
-5 -22 -47z"/>
<path d="M7072 2268 c-15 -15 -16 -50 0 -66 14 -14 44 -16 53 -3 3 6 -7 9 -21
8 -15 -1 -29 4 -31 11 -3 8 6 12 27 12 27 0 31 3 28 23 -3 25 -36 35 -56 15z
m46 -15 c2 -8 -6 -13 -22 -13 -19 0 -24 4 -19 15 6 18 34 16 41 -2z"/>
<path d="M9512 2268 c-15 -15 -16 -50 0 -66 14 -14 44 -16 53 -3 3 6 -7 9 -21
8 -15 -1 -29 4 -31 11 -3 8 6 12 27 12 27 0 31 3 28 23 -3 25 -36 35 -56 15z
m46 -15 c2 -8 -6 -13 -22 -13 -19 0 -24 4 -19 15 6 18 34 16 41 -2z"/>
<path d="M9892 2268 c-15 -15 -16 -50 0 -66 14 -14 44 -16 53 -3 3 6 -7 9 -21
8 -15 -1 -29 4 -31 11 -3 8 6 12 27 12 27 0 31 3 28 23 -3 25 -36 35 -56 15z
m46 -15 c2 -8 -6 -13 -22 -13 -19 0 -24 4 -19 15 6 18 34 16 41 -2z"/>
<path d="M9971 2233 l1 -48 8 39 c4 21 13 42 21 47 11 6 8 9 -8 9 -21 0 -23
-5 -22 -47z"/>
<path d="M10032 2268 c-15 -15 -16 -50 0 -66 14 -14 44 -16 53 -3 3 6 -7 9
-21 8 -15 -1 -29 4 -31 11 -3 8 6 12 27 12 27 0 31 3 28 23 -3 25 -36 35 -56
15z m46 -15 c2 -8 -6 -13 -22 -13 -19 0 -24 4 -19 15 6 18 34 16 41 -2z"/>
<path d="M11512 3578 c-21 -21 -7 -68 20 -68 4 0 8 18 8 40 0 41 -7 49 -28 28z"/>
<path d="M1142 1597 l-102 -102 0 -135 0 -135 103 -103 102 -102 415 0 415 0
98 98 97 97 0 140 0 140 -102 102 -103 103 -410 0 -410 0 -103 -103z m456
-114 c-14 -4 -18 -15 -18 -59 0 -30 -4 -54 -10 -54 -5 0 -10 24 -10 54 0 49
-2 55 -22 59 -13 2 0 4 27 4 28 1 42 -1 33 -4z m183 -5 c4 -90 3 -108 -8 -108
-8 0 -13 15 -13 40 0 22 -4 40 -9 40 -16 0 -23 -38 -11 -60 7 -14 8 -20 0 -20
-6 0 -13 7 -17 16 -4 12 -8 13 -14 3 -4 -7 -28 -15 -53 -16 -38 -3 -47 0 -57
18 -8 16 -8 28 0 45 13 30 56 33 71 5 15 -29 13 -31 -21 -31 -20 0 -29 -4 -26
-12 2 -7 18 -13 35 -13 37 0 50 22 32 55 -7 14 -8 20 0 20 6 0 13 -7 17 -16 5
-15 7 -15 15 0 5 9 16 16 23 16 8 0 15 7 15 15 0 18 20 20 21 3z m-271 -203
c0 -20 5 -25 25 -25 20 0 25 5 25 25 0 14 5 25 10 25 6 0 10 -27 10 -60 0 -33
-4 -60 -10 -60 -5 0 -10 14 -10 30 0 25 -4 30 -25 30 -21 0 -25 -5 -25 -30 0
-16 -4 -30 -10 -30 -6 0 -10 27 -10 60 0 33 4 60 10 60 6 0 10 -11 10 -25z
m160 -24 c15 -29 13 -31 -21 -31 -20 0 -29 -4 -26 -12 2 -8 17 -12 33 -10 22
2 26 0 14 -8 -45 -30 -96 12 -71 59 15 27 57 28 71 2z m53 12 c-8 -2 -13 -22
-13 -44 0 -21 -4 -39 -10 -39 -5 0 -10 20 -10 45 0 40 2 45 23 44 12 0 16 -3
10 -6z m87 -12 c15 -29 13 -31 -21 -31 -20 0 -29 -4 -26 -12 2 -8 17 -12 33
-10 22 2 26 0 14 -8 -45 -30 -96 12 -71 59 15 27 57 28 71 2z"/>
<path d="M1627 1443 c-13 -12 -7 -23 13 -23 13 0 18 5 14 15 -7 16 -17 19 -27
8z"/>
<path d="M1627 1253 c-13 -12 -7 -23 13 -23 13 0 18 5 14 15 -7 16 -17 19 -27
8z"/>
<path d="M1767 1253 c-13 -12 -7 -23 13 -23 13 0 18 5 14 15 -7 16 -17 19 -27
8z"/>
<path d="M2790 1350 c0 -153 4 -240 10 -240 6 0 10 87 10 240 0 153 -4 240
-10 240 -6 0 -10 -87 -10 -240z"/>
<path d="M2840 1350 l0 -240 120 0 120 0 0 240 0 240 -120 0 -120 0 0 -240z
m219 197 c18 -23 2 -27 -101 -27 -75 0 -98 3 -98 13 0 24 12 27 100 27 61 0
91 -4 99 -13z m4 -72 c-2 -6 -47 -11 -103 -13 -85 -2 -100 0 -100 13 0 13 15
15 103 13 61 -2 101 -7 100 -13z m1 -53 c2 -4 1 -14 -3 -20 -5 -9 -35 -12
-102 -10 -80 3 -94 6 -97 21 -3 15 7 17 97 17 55 0 102 -4 105 -8z m-4 -72 c0
-19 -7 -20 -100 -20 -77 0 -100 3 -100 13 0 24 12 27 107 27 86 0 93 -1 93
-20z m-74 -71 c3 -6 -1 -18 -9 -27 -13 -12 -19 -13 -31 -3 -8 7 -12 19 -9 27
6 17 39 19 49 3z m74 -109 l0 -50 -100 0 -100 0 0 50 0 50 100 0 100 0 0 -50z"/>
<path d="M3100 1350 c0 -207 2 -240 15 -240 13 0 15 33 15 240 0 207 -2 240
-15 240 -13 0 -15 -33 -15 -240z"/>
<path d="M4859 1581 c-52 -17 -70 -32 -67 -54 6 -45 140 -75 256 -57 111 18
146 61 80 97 -37 19 -223 29 -269 14z"/>
<path d="M9097 1558 c-46 -17 -51 -83 -7 -105 31 -16 505 -18 545 -3 53 20 52
84 -1 106 -40 17 -492 19 -537 2z m47 -34 c22 -21 3 -56 -27 -52 -25 3 -34 32
-17 53 16 19 25 19 44 -1z"/>
<path d="M6862 1500 c-34 -14 -44 -55 -40 -163 5 -149 -33 -137 450 -137 l399
0 25 25 c25 25 26 29 22 135 -2 89 -6 113 -21 127 -16 17 -49 18 -415 20 -226
1 -407 -2 -420 -7z m808 -170 l0 -60 -395 0 -395 0 0 60 0 60 395 0 395 0 0
-60z"/>
<path d="M6930 1335 c0 -24 2 -25 70 -25 68 0 70 1 70 25 0 24 -2 25 -70 25
-68 0 -70 -1 -70 -25z"/>
<path d="M7220 1335 c0 -20 5 -25 25 -25 20 0 25 5 25 25 0 20 -5 25 -25 25
-20 0 -25 -5 -25 -25z"/>
<path d="M7290 1335 c0 -20 5 -25 25 -25 20 0 25 5 25 25 0 20 -5 25 -25 25
-20 0 -25 -5 -25 -25z"/>
<path d="M7360 1335 c0 -20 5 -25 25 -25 20 0 25 5 25 25 0 20 -5 25 -25 25
-20 0 -25 -5 -25 -25z"/>
<path d="M7430 1335 c0 -20 5 -25 25 -25 20 0 25 5 25 25 0 20 -5 25 -25 25
-20 0 -25 -5 -25 -25z"/>
<path d="M7500 1335 c0 -20 5 -25 25 -25 20 0 25 5 25 25 0 20 -5 25 -25 25
-20 0 -25 -5 -25 -25z"/>
<path d="M7570 1335 c0 -20 5 -25 25 -25 20 0 25 5 25 25 0 20 -5 25 -25 25
-20 0 -25 -5 -25 -25z"/>
<path d="M4780 1431 c0 -37 2 -40 48 -59 92 -39 220 -37 308 5 30 15 34 21 34
54 l0 37 -28 -14 c-74 -36 -261 -36 -333 1 l-29 16 0 -40z"/>
<path d="M3422 1411 c-26 -16 -9 -53 28 -66 19 -7 35 -18 35 -26 0 -20 -40
-23 -59 -3 -23 23 -33 9 -11 -16 21 -23 67 -26 85 -5 21 25 7 49 -38 64 -24 7
-41 18 -39 25 5 16 46 20 63 5 21 -17 28 -5 9 15 -18 17 -52 21 -73 7z"/>
<path d="M5432 1411 c-26 -16 -9 -53 28 -66 19 -7 35 -18 35 -26 0 -20 -40
-23 -59 -3 -23 23 -33 9 -11 -16 21 -23 67 -26 85 -5 21 25 7 49 -38 64 -24 7
-41 18 -39 25 5 16 46 20 63 5 21 -17 28 -5 9 15 -18 17 -52 21 -73 7z"/>
<path d="M7922 1411 c-26 -16 -9 -53 28 -66 19 -7 35 -18 35 -26 0 -20 -40
-23 -59 -3 -23 23 -33 9 -11 -16 21 -23 67 -26 85 -5 21 25 7 49 -38 64 -24 7
-41 18 -39 25 5 16 46 20 63 5 21 -17 28 -5 9 15 -18 17 -52 21 -73 7z"/>
<path d="M8160 1410 c0 -5 5 -10 10 -10 6 0 10 5 10 10 0 6 -4 10 -10 10 -5 0
-10 -4 -10 -10z"/>
<path d="M8350 1350 c0 -73 17 -98 22 -33 2 27 8 39 21 41 14 3 17 -4 17 -37
0 -23 5 -41 11 -41 6 0 9 19 7 48 -3 44 -5 47 -30 47 -23 -1 -28 4 -28 22 0
13 -4 23 -10 23 -6 0 -10 -30 -10 -70z"/>
<path d="M9097 1408 c-46 -17 -51 -83 -7 -105 31 -16 505 -18 545 -3 53 20 52
84 -1 106 -40 17 -492 19 -537 2z m47 -34 c22 -21 3 -56 -27 -52 -25 3 -34 32
-17 53 16 19 25 19 44 -1z"/>
<path d="M9750 1350 c0 -40 4 -70 10 -70 6 0 10 30 10 70 0 40 -4 70 -10 70
-6 0 -10 -30 -10 -70z"/>
<path d="M9911 1398 c-9 -28 -2 -118 10 -118 5 0 9 18 9 39 0 22 5 42 13 44 9
4 8 8 -3 17 -11 9 -12 13 -2 17 17 7 15 23 -3 23 -9 0 -19 -10 -24 -22z"/>
<path d="M5542 1394 c-6 -11 -9 -29 -7 -40 2 -10 6 -31 10 -46 5 -26 35 -41
35 -18 0 6 -4 10 -10 10 -15 0 -12 57 3 63 8 4 9 8 1 14 -6 4 -13 15 -16 23
-4 12 -7 11 -16 -6z"/>
<path d="M8202 1394 c-6 -11 -9 -29 -7 -40 2 -10 6 -31 10 -46 5 -26 35 -41
35 -18 0 6 -4 10 -10 10 -15 0 -12 57 3 63 8 4 9 8 1 14 -6 4 -13 15 -16 23
-4 12 -7 11 -16 -6z"/>
<path d="M10222 1394 c-6 -11 -9 -29 -7 -40 2 -10 6 -31 10 -46 5 -26 35 -41
35 -18 0 6 -4 10 -10 10 -15 0 -12 57 3 63 8 4 9 8 1 14 -6 4 -13 15 -16 23
-4 12 -7 11 -16 -6z"/>
<path d="M10532 1394 c-6 -11 -9 -29 -7 -40 2 -10 6 -31 10 -46 5 -26 35 -41
35 -18 0 6 -4 10 -10 10 -15 0 -12 57 3 63 8 4 9 8 1 14 -6 4 -13 15 -16 23
-4 12 -7 11 -16 -6z"/>
<path d="M3542 1368 c-7 -7 -12 -24 -12 -38 0 -14 5 -31 12 -38 17 -17 53 -15
68 3 11 13 8 14 -18 9 -17 -4 -32 -1 -36 5 -5 7 5 11 28 11 38 0 43 8 26 41
-12 21 -50 25 -68 7z m53 -18 c4 -6 -5 -10 -20 -10 -15 0 -24 4 -20 10 3 6 12
10 20 10 8 0 17 -4 20 -10z"/>
<path d="M3640 1329 c0 -27 5 -49 10 -49 6 0 10 16 10 35 0 22 6 37 17 44 15
8 21 3 34 -32 9 -22 20 -42 26 -44 5 -2 16 19 25 47 19 58 8 68 -14 13 l-15
-38 -10 35 c-8 31 -13 35 -46 37 l-37 1 0 -49z"/>
<path d="M3802 1368 c-7 -7 -12 -24 -12 -38 0 -14 5 -31 12 -38 17 -17 53 -15
68 3 11 13 8 14 -18 9 -17 -4 -32 -1 -36 5 -5 7 5 11 28 11 38 0 43 8 26 41
-12 21 -50 25 -68 7z m53 -18 c4 -6 -5 -10 -20 -10 -15 0 -24 4 -20 10 3 6 12
10 20 10 8 0 17 -4 20 -10z"/>
<path d="M3900 1329 c0 -27 5 -49 10 -49 6 0 10 16 10 35 0 22 6 38 15 41 23
9 18 22 -10 22 -23 0 -25 -4 -25 -49z"/>
<path d="M5602 1368 c-7 -7 -12 -24 -12 -38 0 -31 17 -50 45 -50 28 0 45 19
45 50 0 31 -17 50 -45 50 -12 0 -26 -5 -33 -12z m58 -23 c10 -12 10 -18 0 -30
-25 -30 -61 -7 -46 30 3 8 12 15 19 15 8 0 20 -7 27 -15z"/>
<path d="M5700 1329 c0 -27 5 -49 10 -49 6 0 10 16 10 35 0 22 6 38 15 41 23
9 18 22 -10 22 -23 0 -25 -4 -25 -49z"/>
<path d="M5770 1366 c-11 -14 -8 -15 21 -11 l34 5 -33 -15 c-25 -12 -33 -21
-30 -38 2 -18 10 -22 41 -24 l38 -1 -3 46 c-3 42 -6 47 -29 50 -14 2 -31 -4
-39 -12z m50 -46 c0 -15 -26 -23 -41 -14 -9 5 -7 10 7 15 27 11 34 10 34 -1z"/>
<path d="M5872 1368 c-17 -17 -15 -63 3 -78 8 -7 24 -10 36 -7 13 3 19 1 16
-6 -2 -7 -18 -11 -36 -11 -33 2 -42 -10 -15 -20 49 -19 74 8 74 80 l0 54 -33
0 c-18 0 -38 -5 -45 -12z m56 -36 c4 -28 -24 -40 -45 -19 -14 13 -14 19 -3 32
18 22 44 15 48 -13z"/>
<path d="M5982 1368 c-7 -7 -12 -24 -12 -38 0 -14 5 -31 12 -38 17 -17 53 -15
68 3 11 13 8 14 -18 9 -17 -4 -32 -1 -36 5 -5 7 5 11 28 11 38 0 43 8 26 41
-12 21 -50 25 -68 7z m53 -18 c4 -6 -5 -10 -20 -10 -15 0 -24 4 -20 10 3 6 12
10 20 10 8 0 17 -4 20 -10z"/>
<path d="M8035 1333 c8 -27 15 -49 15 -50 0 -2 4 -3 9 -3 4 0 13 15 18 33 l11
32 7 -32 c10 -45 20 -41 39 14 19 55 19 53 7 53 -5 0 -12 -14 -16 -30 -8 -35
-25 -31 -25 6 0 36 -22 25 -34 -17 l-9 -34 -10 38 c-5 20 -13 37 -18 37 -4 0
-2 -21 6 -47z"/>
<path d="M8160 1330 c0 -27 5 -50 10 -50 6 0 10 23 10 50 0 28 -4 50 -10 50
-5 0 -10 -22 -10 -50z"/>
<path d="M8262 1368 c-15 -15 -16 -60 0 -76 16 -16 43 -15 58 3 11 13 8 14
-20 9 -30 -7 -31 -6 -28 22 2 24 7 29 26 26 15 -1 22 2 20 10 -6 18 -41 21
-56 6z"/>
<path d="M9800 1329 c0 -57 17 -66 22 -12 2 27 8 39 21 41 14 3 17 -4 17 -37
0 -23 5 -41 11 -41 6 0 9 19 7 48 -3 47 -3 47 -40 49 l-38 1 0 -49z"/>
<path d="M9960 1329 c0 -27 5 -49 10 -49 6 0 10 16 10 35 0 22 6 38 15 41 23
9 18 22 -10 22 -23 0 -25 -4 -25 -49z"/>
<path d="M10030 1366 c-11 -14 -8 -15 21 -11 l34 5 -33 -15 c-25 -12 -33 -21
-30 -38 2 -18 10 -22 41 -24 l38 -1 -3 46 c-3 42 -6 47 -29 50 -14 2 -31 -4
-39 -12z m50 -46 c0 -15 -26 -23 -41 -14 -9 5 -7 10 7 15 27 11 34 10 34 -1z"/>
<path d="M10124 1365 c-8 -20 13 -45 37 -45 11 0 19 -5 19 -11 0 -7 -11 -9
-30 -5 -16 3 -30 1 -30 -4 0 -13 37 -22 61 -15 26 9 22 48 -6 53 -11 2 -24 9
-30 14 -7 7 1 9 24 4 29 -5 32 -4 21 9 -16 19 -59 19 -66 0z"/>
<path d="M10270 1329 c0 -27 5 -49 10 -49 6 0 10 16 10 35 0 22 6 38 15 41 23
9 18 22 -10 22 -23 0 -25 -4 -25 -49z"/>
<path d="M10330 1341 c0 -44 13 -59 53 -59 26 0 27 3 27 49 0 57 -17 66 -22
12 -2 -26 -8 -38 -18 -38 -10 0 -16 12 -18 38 -4 49 -22 48 -22 -2z"/>
<path d="M10442 1368 c-15 -15 -16 -60 0 -76 16 -16 43 -15 58 3 11 13 8 14
-20 9 -30 -7 -31 -6 -28 22 2 24 7 29 26 26 15 -1 22 2 20 10 -6 18 -41 21
-56 6z"/>
<path d="M10580 1341 c0 -44 13 -59 53 -59 26 0 27 3 27 49 0 57 -17 66 -22
12 -2 -26 -8 -38 -18 -38 -10 0 -16 12 -18 38 -4 49 -22 48 -22 -2z"/>
<path d="M10680 1329 c0 -27 5 -49 10 -49 6 0 10 16 10 35 0 22 6 38 15 41 23
9 18 22 -10 22 -23 0 -25 -4 -25 -49z"/>
<path d="M10752 1368 c-7 -7 -12 -24 -12 -38 0 -14 5 -31 12 -38 17 -17 53
-15 68 3 11 13 8 14 -18 9 -17 -4 -32 -1 -36 5 -5 7 5 11 28 11 38 0 43 8 26
41 -12 21 -50 25 -68 7z m53 -18 c4 -6 -5 -10 -20 -10 -15 0 -24 4 -20 10 3 6
12 10 20 10 8 0 17 -4 20 -10z"/>
<path d="M4780 1320 c0 -49 19 -63 113 -86 76 -19 167 -10 235 23 33 16 37 23
40 60 l3 41 -43 -21 c-36 -19 -60 -22 -153 -22 -95 0 -116 3 -152 23 l-43 22
0 -40z"/>
<path d="M9097 1248 c-46 -17 -51 -83 -7 -105 31 -16 505 -18 545 -3 53 20 52
84 -1 106 -40 17 -492 19 -537 2z m47 -34 c22 -21 3 -56 -27 -52 -25 3 -34 32
-17 53 16 19 25 19 44 -1z"/>
<path d="M4780 1201 c0 -37 2 -40 48 -59 92 -39 220 -37 308 5 30 15 34 21 34
54 l0 37 -28 -14 c-74 -36 -261 -36 -333 1 l-29 16 0 -40z"/>
<path d="M2690 665 c0 -9 9 -15 25 -15 22 0 24 -4 28 -57 l3 -58 2 58 c2 50 5
57 22 57 11 0 20 7 20 15 0 11 -12 15 -50 15 -38 0 -50 -4 -50 -15z"/>
<path d="M2820 610 c0 -76 17 -97 22 -28 2 31 8 44 21 46 14 3 17 -4 17 -42 0
-26 5 -46 11 -46 6 0 9 21 7 53 -3 50 -4 52 -30 50 -22 -1 -28 3 -28 18 0 10
-4 19 -10 19 -6 0 -10 -30 -10 -70z"/>
<path d="M2940 670 c0 -5 5 -10 10 -10 6 0 10 5 10 10 0 6 -4 10 -10 10 -5 0
-10 -4 -10 -10z"/>
<path d="M3240 610 c0 -40 4 -70 10 -70 6 0 10 30 10 70 0 40 -4 70 -10 70 -6
0 -10 -30 -10 -70z"/>
<path d="M3290 670 c0 -5 5 -10 10 -10 6 0 10 5 10 10 0 6 -4 10 -10 10 -5 0
-10 -4 -10 -10z"/>
<path d="M3410 660 c0 -16 -5 -19 -23 -15 -28 7 -49 -14 -49 -50 0 -36 18 -53
57 -52 l35 1 0 68 c0 39 -4 68 -10 68 -5 0 -10 -9 -10 -20z m-5 -49 c8 -26 -4
-51 -25 -51 -19 0 -32 32 -23 56 8 20 41 17 48 -5z"/>
<path d="M3600 670 c0 -5 5 -10 10 -10 6 0 10 5 10 10 0 6 -4 10 -10 10 -5 0
-10 -4 -10 -10z"/>
<path d="M3823 661 c-28 -24 -29 -34 -3 -26 18 6 20 2 20 -44 0 -28 5 -51 10
-51 6 0 10 30 10 70 0 39 -3 70 -7 70 -5 -1 -18 -9 -30 -19z"/>
<path d="M3916 658 c-9 -12 -16 -34 -16 -48 0 -30 25 -70 45 -70 20 0 45 40
45 70 0 30 -25 70 -45 70 -8 0 -21 -10 -29 -22z m52 -46 c2 -32 -1 -44 -13
-49 -21 -8 -35 13 -35 53 0 35 8 46 30 42 10 -2 16 -17 18 -46z"/>
<path d="M4026 658 c-9 -12 -16 -34 -16 -48 0 -30 25 -70 45 -70 20 0 45 40
45 70 0 30 -25 70 -45 70 -8 0 -21 -10 -29 -22z m52 -46 c2 -32 -1 -44 -13
-49 -21 -8 -35 13 -35 53 0 35 8 46 30 42 10 -2 16 -17 18 -46z"/>
<path d="M4130 664 c-10 -11 -11 -20 -3 -32 17 -27 38 -20 38 12 0 34 -16 44
-35 20z m30 -19 c0 -14 -4 -25 -10 -25 -5 0 -10 11 -10 25 0 14 5 25 10 25 6
0 10 -11 10 -25z"/>
<path d="M4187 605 c-20 -41 -33 -75 -28 -75 9 0 75 140 69 146 -2 2 -21 -30
-41 -71z"/>
<path d="M4510 660 c0 -16 -5 -19 -23 -15 -28 7 -49 -14 -49 -50 0 -36 18 -53
57 -52 l35 1 0 68 c0 39 -4 68 -10 68 -5 0 -10 -9 -10 -20z m-5 -49 c8 -26 -4
-51 -25 -51 -19 0 -32 32 -23 56 8 20 41 17 48 -5z"/>
<path d="M4560 670 c0 -5 5 -10 10 -10 6 0 10 5 10 10 0 6 -4 10 -10 10 -5 0
-10 -4 -10 -10z"/>
<path d="M4780 611 l0 -69 36 3 c20 1 40 9 45 16 24 38 -5 95 -42 84 -14 -5
-19 -1 -19 14 0 12 -4 21 -10 21 -6 0 -10 -30 -10 -69z m65 -16 c0 -23 -4 -30
-20 -30 -21 0 -31 25 -21 51 11 28 41 12 41 -21z"/>
<path d="M4900 610 c0 -40 4 -70 10 -70 6 0 10 30 10 70 0 40 -4 70 -10 70 -6
0 -10 -30 -10 -70z"/>
<path d="M5166 648 c-38 -89 -45 -108 -37 -108 5 0 11 9 14 20 8 30 70 28 86
-2 11 -23 11 -23 5 2 -4 14 -17 48 -29 75 l-23 50 -16 -37z m22 -46 c-27 -5
-30 1 -17 34 l11 29 12 -30 c11 -27 11 -30 -6 -33z"/>
<path d="M5330 654 c0 -20 -4 -24 -19 -19 -40 12 -67 -48 -35 -79 18 -19 30
-20 40 -5 4 8 9 7 15 -2 5 -9 9 14 9 59 0 39 -2 72 -5 72 -3 0 -5 -12 -5 -26z
m-5 -64 c0 -18 -6 -26 -23 -28 -24 -4 -38 18 -28 44 3 9 15 14 28 12 17 -2 23
-10 23 -28z"/>
<path d="M6820 654 c0 -20 -4 -24 -19 -19 -40 12 -67 -48 -35 -79 18 -19 30
-20 40 -5 4 8 9 7 15 -2 5 -9 9 14 9 59 0 39 -2 72 -5 72 -3 0 -5 -12 -5 -26z
m-5 -64 c0 -18 -6 -26 -23 -28 -13 -2 -25 3 -28 12 -10 26 4 48 28 44 17 -2
23 -10 23 -28z"/>
<path d="M7260 654 c0 -20 -4 -24 -19 -19 -40 12 -67 -48 -35 -79 18 -19 30
-20 40 -5 4 8 9 7 15 -2 5 -9 9 14 9 59 0 39 -2 72 -5 72 -3 0 -5 -12 -5 -26z
m-5 -64 c0 -18 -6 -26 -23 -28 -24 -4 -38 18 -28 44 3 9 15 14 28 12 17 -2 23
-10 23 -28z"/>
<path d="M8710 654 c0 -20 -4 -24 -19 -19 -40 12 -67 -48 -35 -79 18 -19 30
-20 40 -5 4 8 9 7 15 -2 5 -9 9 14 9 59 0 39 -2 72 -5 72 -3 0 -5 -12 -5 -26z
m-5 -64 c0 -18 -6 -26 -23 -28 -24 -4 -38 18 -28 44 3 9 15 14 28 12 17 -2 23
-10 23 -28z"/>
<path d="M9211 664 c0 -11 3 -14 6 -6 3 7 2 16 -1 19 -3 4 -6 -2 -5 -13z"/>
<path d="M4612 657 c-5 -7 -6 -34 -3 -62 4 -36 11 -51 24 -53 9 -2 17 1 17 7
0 6 -4 11 -10 11 -15 0 -12 68 2 72 9 3 8 9 -4 21 -12 13 -18 14 -26 4z"/>
<path d="M5588 654 c-9 -33 6 -107 22 -112 13 -5 13 -3 1 11 -8 11 -12 30 -9
50 3 17 2 41 -2 51 -7 20 -7 20 -12 0z"/>
<path d="M5718 654 c-9 -33 6 -107 22 -112 13 -5 13 -3 1 11 -8 11 -12 30 -9
50 3 17 2 41 -2 51 -7 20 -7 20 -12 0z"/>
<path d="M5818 654 c-9 -33 6 -107 22 -112 13 -5 13 -3 1 11 -8 11 -12 30 -9
50 3 17 2 41 -2 51 -7 20 -7 20 -12 0z"/>
<path d="M7668 654 c-9 -33 6 -107 22 -112 13 -5 13 -3 1 11 -8 11 -12 30 -9
50 3 17 2 41 -2 51 -7 20 -7 20 -12 0z"/>
<path d="M9488 654 c-9 -33 6 -107 22 -112 13 -5 13 -3 1 11 -8 11 -12 30 -9
50 3 17 2 41 -2 51 -7 20 -7 20 -12 0z"/>
<path d="M9538 654 c-9 -33 6 -107 22 -112 13 -5 13 -3 1 11 -8 11 -12 30 -9
50 3 17 2 41 -2 51 -7 20 -7 20 -12 0z"/>
<path d="M9798 654 c-9 -33 6 -107 22 -112 13 -5 13 -3 1 11 -8 11 -12 30 -9
50 3 17 2 41 -2 51 -7 20 -7 20 -12 0z"/>
<path d="M2940 595 c0 -30 5 -55 10 -55 6 0 10 25 10 55 0 30 -4 55 -10 55 -5
0 -10 -25 -10 -55z"/>
<path d="M2989 634 c-11 -14 -10 -19 10 -35 13 -11 29 -19 37 -19 8 0 14 -5
14 -11 0 -8 -13 -10 -37 -6 -34 6 -35 5 -20 -10 13 -13 23 -15 44 -7 42 14 41
42 -1 59 -44 19 -47 30 -6 22 31 -7 42 6 14 17 -26 10 -41 7 -55 -10z"/>
<path d="M3129 634 c-11 -14 -10 -19 10 -35 13 -11 29 -19 37 -19 8 0 14 -5
14 -11 0 -8 -13 -10 -37 -6 -34 6 -35 5 -20 -10 13 -13 23 -15 44 -7 42 14 41
42 -1 59 -44 19 -47 30 -6 22 31 -7 42 6 14 17 -26 10 -41 7 -55 -10z"/>
<path d="M3290 595 c0 -30 5 -55 10 -55 6 0 10 25 10 55 0 30 -4 55 -10 55 -5
0 -10 -25 -10 -55z"/>
<path d="M3466 634 c-30 -29 -10 -94 28 -94 7 0 21 7 32 15 18 14 17 15 -15
12 -20 -1 -36 3 -38 11 -3 8 7 12 31 12 25 0 36 5 36 14 0 18 -27 46 -45 46
-7 0 -21 -7 -29 -16z m49 -14 c4 -6 -5 -10 -20 -10 -15 0 -24 4 -20 10 3 6 12
10 20 10 8 0 17 -4 20 -10z"/>
<path d="M3600 595 c0 -30 5 -55 10 -55 6 0 10 25 10 55 0 30 -4 55 -10 55 -5
0 -10 -25 -10 -55z"/>
<path d="M3649 634 c-11 -14 -10 -19 10 -35 13 -11 29 -19 37 -19 8 0 14 -5
14 -11 0 -8 -13 -10 -37 -6 -34 6 -35 5 -20 -10 13 -13 23 -15 44 -7 42 14 41
42 -1 59 -44 19 -47 30 -6 22 31 -7 42 6 14 17 -26 10 -41 7 -55 -10z"/>
<path d="M4336 634 c-30 -29 -10 -94 28 -94 7 0 21 7 32 15 18 14 17 15 -15
12 -20 -1 -36 3 -38 11 -3 8 7 12 31 12 25 0 36 5 36 14 0 18 -27 46 -45 46
-7 0 -21 -7 -29 -16z m49 -14 c4 -6 -5 -10 -20 -10 -15 0 -24 4 -20 10 3 6 12
10 20 10 8 0 17 -4 20 -10z"/>
<path d="M4560 595 c0 -30 5 -55 10 -55 6 0 10 25 10 55 0 30 -4 55 -10 55 -5
0 -10 -25 -10 -55z"/>
<path d="M4683 643 c-23 -9 -14 -20 12 -15 32 6 32 -6 0 -18 -53 -20 -39 -69
18 -67 32 1 32 1 28 46 -4 55 -20 70 -58 54z m37 -63 c0 -11 -6 -20 -14 -20
-21 0 -31 21 -15 31 22 14 29 11 29 -11z"/>
<path d="M4956 634 c-30 -29 -10 -94 28 -94 7 0 21 7 32 15 18 14 17 15 -15
12 -20 -1 -36 3 -38 11 -3 8 7 12 31 12 25 0 36 5 36 14 0 18 -27 46 -45 46
-7 0 -21 -7 -29 -16z m49 -14 c4 -6 -5 -10 -20 -10 -15 0 -24 4 -20 10 3 6 12
10 20 10 8 0 17 -4 20 -10z"/>
<path d="M5380 625 c-11 -13 -8 -14 21 -9 23 5 31 3 24 -4 -5 -5 -19 -12 -30
-14 -23 -4 -34 -47 -13 -50 64 -7 68 -5 68 32 0 55 -40 81 -70 45z m50 -50 c0
-9 -9 -15 -25 -15 -24 0 -32 10 -18 23 12 13 43 7 43 -8z"/>
<path d="M5482 570 c0 -41 3 -62 5 -47 3 22 8 27 23 22 39 -12 66 48 34 79
-18 19 -30 20 -40 5 -4 -8 -9 -7 -15 2 -5 9 -8 -16 -7 -61z m63 20 c0 -18 -6
-26 -23 -28 -13 -2 -25 3 -28 12 -10 26 4 48 28 44 17 -2 23 -10 23 -28z"/>
<path d="M5683 590 c0 -30 2 -43 4 -27 2 15 2 39 0 55 -2 15 -4 2 -4 -28z"/>
<path d="M5876 624 c-9 -8 -16 -24 -16 -34 0 -22 25 -50 45 -50 20 0 45 28 45
50 0 22 -25 50 -45 50 -7 0 -21 -7 -29 -16z m59 -34 c0 -20 -6 -26 -26 -28
-17 -2 -29 3 -32 12 -11 28 4 47 32 44 20 -2 26 -8 26 -28z"/>
<path d="M6021 637 c-1 -4 6 -24 14 -44 19 -46 19 -73 -1 -73 -8 0 -12 -5 -8
-11 4 -8 10 -7 19 3 16 17 49 117 41 125 -3 4 -6 1 -6 -5 0 -6 -5 -23 -11 -39
l-11 -28 -18 40 c-10 22 -19 36 -19 32z"/>
<path d="M6126 624 c-9 -8 -16 -24 -16 -34 0 -22 25 -50 45 -50 20 0 45 28 45
50 0 22 -25 50 -45 50 -7 0 -21 -7 -29 -16z m59 -34 c0 -20 -6 -26 -26 -28
-17 -2 -29 3 -32 12 -11 28 4 47 32 44 20 -2 26 -8 26 -28z"/>
<path d="M6232 598 c-2 -52 8 -64 37 -49 14 8 21 8 24 -2 3 -6 5 13 5 43 0 30
-2 46 -5 35 -2 -11 -6 -30 -9 -42 -3 -14 -12 -23 -24 -23 -15 0 -20 9 -23 43
l-4 42 -1 -47z"/>
<path d="M6343 633 c-8 -3 -12 -22 -11 -51 l1 -47 4 43 c3 28 9 42 19 42 8 0
14 5 14 10 0 11 -7 12 -27 3z"/>
<path d="M6442 585 c1 -50 2 -50 5 -7 3 33 8 42 23 42 12 0 21 -9 24 -22 3
-13 7 -32 9 -43 3 -11 5 -4 6 15 1 45 -12 65 -44 65 -24 1 -25 -2 -23 -50z"/>
<path d="M6546 624 c-9 -8 -16 -24 -16 -34 0 -19 25 -50 40 -50 15 0 40 12 40
19 0 4 -13 6 -29 3 -16 -2 -32 1 -35 7 -5 7 7 11 33 11 23 0 41 5 41 10 0 6
-18 10 -41 10 -26 0 -38 4 -33 11 3 6 19 9 35 7 23 -4 26 -2 18 9 -15 17 -34
16 -53 -3z"/>
<path d="M6656 624 c-9 -8 -16 -24 -16 -34 0 -19 25 -50 40 -50 15 0 40 12 40
19 0 4 -13 6 -29 3 -16 -2 -32 1 -35 7 -5 7 7 11 33 11 23 0 41 5 41 10 0 6
-18 10 -41 10 -26 0 -38 4 -33 11 3 6 19 9 35 7 23 -4 26 -2 18 9 -15 17 -34
16 -53 -3z"/>
<path d="M6869 624 c-11 -14 -10 -18 6 -30 10 -8 27 -14 37 -14 10 0 18 -5 18
-11 0 -7 -13 -10 -35 -7 -27 3 -32 1 -23 -9 13 -16 40 -17 56 -1 20 20 13 38
-18 45 -16 3 -30 10 -30 15 0 6 11 8 25 6 28 -6 34 6 9 16 -24 9 -30 8 -45
-10z"/>
<path d="M7000 625 c-11 -13 -8 -14 21 -9 23 5 31 3 24 -4 -5 -5 -19 -12 -30
-14 -23 -4 -34 -47 -13 -50 64 -7 68 -5 68 32 0 55 -40 81 -70 45z m50 -50 c0
-9 -9 -15 -25 -15 -24 0 -32 10 -18 23 12 13 43 7 43 -8z"/>
<path d="M7102 585 c1 -50 2 -50 5 -7 3 33 8 42 23 42 12 0 21 -9 24 -22 3
-13 7 -32 9 -43 3 -11 5 -4 6 15 1 45 -12 65 -44 65 -24 1 -25 -2 -23 -50z"/>
<path d="M7366 624 c-21 -20 -20 -48 0 -69 17 -17 45 -17 51 0 2 6 -9 11 -24
10 -23 0 -28 4 -28 25 0 21 5 25 28 25 30 -1 36 9 11 19 -21 8 -20 8 -38 -10z"/>
<path d="M7460 625 c-11 -13 -8 -14 21 -9 23 5 31 3 24 -4 -5 -5 -19 -12 -30
-14 -23 -4 -34 -47 -13 -50 64 -7 68 -5 68 32 0 55 -40 81 -70 45z m50 -50 c0
-9 -9 -15 -25 -15 -24 0 -32 10 -18 23 12 13 43 7 43 -8z"/>
<path d="M7562 570 c0 -41 3 -62 5 -47 3 22 8 27 23 22 39 -12 66 48 34 79
-18 19 -30 20 -40 5 -4 -8 -9 -7 -15 2 -5 9 -8 -16 -7 -61z m63 20 c0 -18 -6
-26 -23 -28 -24 -4 -38 18 -28 44 3 9 15 14 28 12 17 -2 23 -10 23 -28z"/>
<path d="M7722 598 c-2 -52 8 -64 37 -49 14 8 21 8 24 -2 3 -6 5 13 5 43 0 30
-2 46 -5 35 -2 -11 -6 -30 -9 -42 -3 -14 -12 -23 -24 -23 -15 0 -20 9 -23 43
l-4 42 -1 -47z"/>
<path d="M7833 633 c-8 -3 -12 -22 -11 -51 l1 -47 4 43 c3 28 9 42 19 42 8 0
14 5 14 10 0 11 -7 12 -27 3z"/>
<path d="M7886 624 c-9 -8 -16 -24 -16 -34 0 -19 25 -50 40 -50 15 0 40 12 40
19 0 4 -13 6 -29 3 -16 -2 -32 1 -35 7 -5 7 7 11 33 11 23 0 41 5 41 10 0 6
-18 10 -41 10 -26 0 -38 4 -33 11 3 6 19 9 35 7 23 -4 26 -2 18 9 -15 17 -34
16 -53 -3z"/>
<path d="M8021 637 c-1 -4 6 -24 14 -44 19 -46 19 -73 -1 -73 -8 0 -12 -5 -8
-11 4 -8 10 -7 19 3 16 17 49 117 41 125 -3 4 -6 1 -6 -5 0 -6 -5 -23 -11 -39
l-11 -28 -18 40 c-10 22 -19 36 -19 32z"/>
<path d="M8126 624 c-9 -8 -16 -24 -16 -34 0 -22 25 -50 45 -50 20 0 45 28 45
50 0 22 -25 50 -45 50 -7 0 -21 -7 -29 -16z m59 -34 c0 -20 -6 -26 -26 -28
-28 -3 -43 16 -32 44 3 9 15 14 32 12 20 -2 26 -8 26 -28z"/>
<path d="M8232 598 c-2 -52 8 -64 37 -49 14 8 21 8 24 -2 3 -6 5 13 5 43 0 30
-2 46 -5 35 -2 -11 -6 -30 -9 -42 -3 -14 -12 -23 -24 -23 -15 0 -20 9 -23 43
l-4 42 -1 -47z"/>
<path d="M8343 633 c-8 -3 -12 -22 -11 -51 l1 -47 4 43 c3 28 9 42 19 42 8 0
14 5 14 10 0 11 -7 12 -27 3z"/>
<path d="M8450 625 c-11 -13 -8 -14 21 -9 23 5 31 3 24 -4 -5 -5 -19 -12 -30
-14 -23 -4 -34 -47 -13 -50 64 -7 68 -5 68 32 0 55 -40 81 -70 45z m50 -50 c0
-9 -9 -15 -25 -15 -24 0 -32 10 -18 23 12 13 43 7 43 -8z"/>
<path d="M8552 598 c-2 -52 8 -64 37 -49 14 8 21 8 24 -2 3 -6 5 13 5 43 0 30
-2 46 -5 35 -2 -11 -6 -30 -9 -42 -3 -14 -12 -23 -24 -23 -15 0 -20 9 -23 43
l-4 42 -1 -47z"/>
<path d="M8763 590 c0 -30 2 -43 4 -27 2 15 2 39 0 55 -2 15 -4 2 -4 -28z"/>
<path d="M8806 624 c-9 -8 -16 -24 -16 -34 0 -19 25 -50 40 -50 15 0 40 12 40
19 0 4 -13 6 -29 3 -16 -2 -32 1 -35 7 -5 7 7 11 33 11 23 0 41 5 41 10 0 6
-18 10 -41 10 -26 0 -38 4 -33 11 3 6 19 9 35 7 23 -4 26 -2 18 9 -15 17 -34
16 -53 -3z"/>
<path d="M8912 585 c1 -50 2 -50 5 -7 3 33 8 42 23 42 12 0 21 -9 24 -22 3
-13 7 -32 9 -43 3 -11 5 -4 6 15 1 45 -12 65 -44 65 -24 1 -25 -2 -23 -50z"/>
<path d="M9016 624 c-21 -20 -20 -48 0 -69 17 -17 45 -17 51 0 2 6 -9 11 -24
10 -23 0 -28 4 -28 25 0 21 5 25 28 25 30 -1 36 9 11 19 -21 8 -20 8 -38 -10z"/>
<path d="M9116 624 c-9 -8 -16 -24 -16 -34 0 -19 25 -50 40 -50 15 0 40 12 40
19 0 4 -13 6 -29 3 -16 -2 -32 1 -35 7 -5 7 7 11 33 11 23 0 41 5 41 10 0 6
-18 10 -41 10 -26 0 -38 4 -33 11 3 6 19 9 35 7 23 -4 26 -2 18 9 -15 17 -34
16 -53 -3z"/>
<path d="M9259 624 c-11 -14 -10 -18 6 -30 10 -8 27 -14 37 -14 10 0 18 -5 18
-11 0 -7 -13 -10 -35 -7 -27 3 -32 1 -23 -9 13 -16 40 -17 56 -1 20 20 13 38
-18 45 -16 3 -30 10 -30 15 0 6 11 8 25 6 28 -6 34 6 9 16 -24 9 -30 8 -45
-10z"/>
<path d="M9390 625 c-11 -13 -8 -14 21 -9 23 5 31 3 24 -4 -5 -5 -19 -12 -30
-14 -23 -4 -34 -47 -13 -50 64 -7 68 -5 68 32 0 55 -40 81 -70 45z m50 -50 c0
-9 -9 -15 -25 -15 -24 0 -32 10 -18 23 12 13 43 7 43 -8z"/>
<path d="M9596 624 c-9 -8 -16 -24 -16 -34 0 -19 25 -50 40 -50 15 0 40 12 40
19 0 4 -13 6 -29 3 -16 -2 -32 1 -35 7 -5 7 7 11 33 11 23 0 41 5 41 10 0 6
-18 10 -41 10 -26 0 -38 4 -33 11 3 6 19 9 35 7 23 -4 26 -2 18 9 -15 17 -34
16 -53 -3z"/>
<path d="M9702 585 c1 -50 2 -50 5 -7 3 33 8 42 23 42 12 0 21 -9 24 -22 3
-13 7 -32 9 -43 3 -11 5 -4 6 15 1 45 -12 65 -44 65 -24 1 -25 -2 -23 -50z"/>
<path d="M9853 590 c0 -30 2 -43 4 -27 2 15 2 39 0 55 -2 15 -4 2 -4 -28z"/>
<path d="M9896 624 c-9 -8 -16 -24 -16 -34 0 -22 25 -50 45 -50 20 0 45 28 45
50 0 22 -25 50 -45 50 -7 0 -21 -7 -29 -16z m59 -34 c0 -20 -6 -26 -26 -28
-17 -2 -29 3 -32 12 -11 28 4 47 32 44 20 -2 26 -8 26 -28z"/>
<path d="M10002 585 c1 -50 2 -50 5 -7 3 33 8 42 23 42 12 0 21 -9 24 -22 3
-13 7 -32 9 -43 3 -11 5 -4 6 15 1 45 -12 65 -44 65 -24 1 -25 -2 -23 -50z"/>
<path d="M4222 588 c-16 -16 -15 -33 4 -49 14 -11 18 -10 30 5 9 13 10 24 3
37 -11 22 -20 24 -37 7z m28 -23 c0 -14 -4 -25 -10 -25 -5 0 -10 11 -10 25 0
14 5 25 10 25 6 0 10 -11 10 -25z"/>
<path d="M5060 555 c0 -8 5 -15 10 -15 6 0 10 7 10 15 0 8 -4 15 -10 15 -5 0
-10 -7 -10 -15z"/>
</g>
</svg>
