<?xml version="1.0" standalone="no"?>
<!DOCTYPE svg PUBLIC "-//W3C//DTD SVG 20010904//EN"
 "http://www.w3.org/TR/2001/REC-SVG-20010904/DTD/svg10.dtd">
<svg version="1.0" xmlns="http://www.w3.org/2000/svg"
 width="1200.000000pt" height="664.000000pt" viewBox="0 0 1200.000000 664.000000"
 preserveAspectRatio="xMidYMid meet">

<g transform="translate(0.000000,664.000000) scale(0.100000,-0.100000)"
fill="#000000" stroke="none">
<path d="M0 3320 l0 -3320 6000 0 6000 0 0 3320 0 3320 -6000 0 -6000 0 0
-3320z m6135 2484 c101 -25 186 -61 290 -125 22 -13 44 -23 48 -21 5 1 6 -2 3
-7 -3 -5 7 -17 22 -26 44 -29 131 -125 185 -205 99 -147 147 -308 147 -496 0
-98 -26 -257 -49 -302 -5 -9 -24 -48 -42 -87 -42 -91 -87 -154 -168 -239 -68
-71 -193 -158 -271 -190 -25 -10 -59 -24 -77 -32 -141 -60 -437 -57 -598 6
-16 6 -31 11 -33 11 -1 -1 -25 10 -53 25 -147 74 -306 218 -372 336 -55 99
-70 132 -97 221 -51 166 -48 355 10 548 30 102 142 276 229 356 117 107 297
208 391 219 19 3 51 9 70 14 78 22 262 18 365 -6z m-3435 -259 c105 -33 214
-93 289 -162 117 -107 166 -185 227 -363 26 -76 27 -287 1 -380 -33 -119 -94
-230 -178 -321 -31 -33 -145 -129 -153 -129 -4 0 -39 -15 -79 -34 -107 -50
-201 -68 -337 -65 -63 1 -119 5 -125 9 -5 4 -32 13 -60 20 -133 36 -284 141
-380 265 -35 45 -84 141 -113 225 -24 68 -27 89 -27 215 0 128 3 148 29 230
17 50 47 117 68 149 20 32 35 63 32 68 -3 5 -2 7 3 6 4 -2 30 21 57 50 117
125 279 213 426 232 93 12 256 4 320 -15z m7683 -389 c87 -24 164 -62 242
-121 75 -57 90 -73 146 -150 58 -80 84 -134 109 -225 40 -149 27 -328 -35
-477 -19 -46 -96 -160 -134 -200 -82 -86 -232 -170 -357 -199 -101 -23 -288
-15 -371 17 -16 6 -29 10 -30 10 -4 -1 -115 53 -142 70 -29 17 -45 30 -107 91
-66 65 -70 69 -114 146 -96 168 -122 366 -71 547 7 22 13 45 14 50 8 28 70
140 99 177 48 62 121 133 170 165 24 15 45 30 48 33 9 11 175 68 225 78 67 14
236 7 308 -12z m-6123 -148 c98 -38 158 -96 180 -172 24 -88 -15 -190 -102
-264 -17 -14 -25 -29 -22 -40 5 -13 4 -14 -4 -3 -18 25 -219 -125 -208 -156 3
-7 0 -12 -6 -10 -7 1 -19 -19 -28 -45 -8 -26 -18 -49 -21 -52 -6 -7 -97 22
-115 35 -17 14 50 144 99 192 24 23 81 68 127 100 90 61 110 81 128 136 19 56
15 87 -18 125 -42 48 -104 70 -180 64 l-60 -4 -6 33 c-3 18 -3 44 0 58 6 25 7
25 104 21 53 -3 113 -11 132 -18z m4590 -83 c70 -25 131 -63 190 -121 30 -29
60 -54 65 -55 6 0 9 -6 7 -11 -1 -6 9 -30 23 -54 31 -53 65 -181 65 -243 -1
-136 -54 -255 -156 -356 -79 -77 -114 -108 -114 -100 0 3 -17 -3 -38 -14 -91
-47 -271 -53 -379 -12 -229 85 -370 321 -334 556 12 72 67 202 103 242 12 12
17 27 13 34 -5 8 -4 10 4 5 7 -5 27 6 49 26 133 120 337 162 502 103z m-1336
-116 c55 -14 118 -78 134 -135 25 -86 11 -151 -56 -261 -24 -40 -40 -77 -37
-83 4 -6 1 -9 -6 -8 -23 5 -43 -55 -45 -137 l-3 -80 -60 -3 c-61 -3 -61 -3
-62 25 -4 124 14 196 70 277 50 73 71 127 71 182 0 45 -4 57 -29 82 -19 18
-45 32 -69 36 -43 6 -115 -11 -153 -38 -32 -22 -36 -21 -54 14 -31 60 -19 76
90 121 47 20 148 24 209 8z m-6302 -201 c77 -23 128 -97 128 -185 0 -51 -9
-81 -54 -178 -25 -54 -28 -69 -24 -142 l4 -81 -40 -11 c-50 -13 -61 -2 -71 69
-8 61 -2 93 41 197 37 89 43 147 20 192 -16 30 -53 51 -92 51 -34 0 -121 -38
-128 -56 -8 -21 -20 -17 -45 17 -19 25 -20 33 -9 46 33 40 146 91 207 92 13 1
41 -4 63 -11z m2813 -108 c-3 -5 -11 -10 -16 -10 -6 0 -7 5 -4 10 3 6 11 10
16 10 6 0 7 -4 4 -10z m-35 -362 c29 -28 31 -36 26 -72 -4 -22 -11 -45 -16
-51 -6 -7 -6 -15 -2 -19 4 -4 3 -7 -3 -5 -5 1 -23 -3 -40 -10 -74 -31 -150 39
-125 115 26 76 105 97 160 42z m3540 -163 c41 -37 30 -138 -17 -156 -39 -14
-78 -11 -100 10 -12 11 -23 18 -25 15 -11 -10 -6 103 5 117 32 41 99 48 137
14z m-6210 -75 c13 -13 20 -33 20 -60 0 -35 -5 -43 -32 -60 -42 -25 -51 -25
-84 4 -56 48 -26 136 47 136 16 0 38 -9 49 -20z m-705 -160 c14 -22 25 -42 25
-45 0 -4 17 -32 38 -63 20 -32 42 -66 49 -77 7 -11 35 -58 63 -105 28 -47 56
-93 63 -102 9 -13 9 -20 0 -29 -15 -15 -36 0 -56 40 -8 14 -56 93 -107 176
-115 185 -130 212 -130 230 0 28 30 15 55 -25z m255 -33 c18 -41 57 -148 77
-212 8 -27 20 -56 26 -63 7 -9 7 -16 -1 -24 -18 -18 -39 -2 -52 39 -6 21 -32
92 -56 159 -24 67 -44 123 -44 125 0 3 8 5 18 6 11 1 23 -10 32 -30z m6161
-48 c98 -78 108 -100 67 -143 -13 -13 -30 -36 -38 -52 -9 -16 -20 -29 -25 -30
-63 -4 -155 -18 -155 -23 0 -4 -35 -13 -77 -20 -136 -22 -280 -72 -267 -92 3
-5 2 -9 -3 -8 -23 4 -35 -4 -53 -33 -46 -76 -13 -139 162 -310 66 -65 124
-118 128 -118 4 0 20 -12 36 -26 16 -14 45 -37 64 -52 19 -15 37 -29 40 -32 3
-3 41 -31 85 -63 44 -31 95 -68 114 -82 50 -37 77 -33 96 12 9 20 26 51 40 68
13 18 25 50 28 73 2 23 6 44 9 47 2 3 1 26 -3 53 -4 26 -8 52 -8 57 -1 6 -10
11 -22 12 -28 2 -49 22 -49 46 0 24 27 57 47 57 8 0 13 13 13 39 0 52 17 98
40 104 10 3 40 0 67 -5 59 -11 151 -2 213 21 45 17 63 13 66 -14 1 -6 10 -37
20 -70 13 -40 19 -90 19 -152 0 -88 -1 -93 -29 -122 -16 -17 -49 -38 -74 -48
l-44 -17 6 -60 c3 -34 7 -89 10 -122 4 -66 28 -114 55 -114 41 1 180 43 257
80 88 41 168 96 159 110 -3 4 3 7 13 6 10 0 17 6 16 16 -1 9 4 14 11 12 17 -7
77 78 101 141 25 66 25 180 0 262 -11 35 -23 60 -27 57 -5 -3 -6 1 -4 9 3 7
-4 26 -17 42 -12 16 -23 35 -24 43 -2 7 -14 31 -28 53 -14 21 -26 43 -26 47 0
5 -20 12 -45 15 -75 11 -115 32 -115 61 0 15 -5 26 -11 26 -15 0 -41 68 -32
84 9 15 80 65 153 107 41 24 49 25 85 15 39 -11 40 -13 70 -102 19 -56 35 -89
42 -87 10 4 57 -34 58 -47 2 -19 58 -90 67 -84 7 4 8 3 4 -4 -3 -6 11 -39 32
-74 121 -199 166 -337 160 -488 -3 -72 -9 -106 -25 -139 -12 -24 -19 -49 -16
-55 3 -6 3 -8 -2 -4 -7 7 -55 -51 -55 -67 0 -3 -22 -35 -49 -71 -31 -41 -48
-72 -44 -82 4 -13 3 -14 -5 -3 -12 16 -27 -3 -16 -21 4 -6 3 -8 -3 -5 -6 4
-26 -12 -46 -36 -19 -23 -49 -58 -66 -77 -17 -19 -29 -41 -26 -48 3 -8 0 -10
-6 -6 -11 6 -76 -64 -71 -78 1 -4 -4 -7 -10 -6 -8 2 -12 -5 -10 -17 2 -14 0
-16 -6 -7 -6 9 -18 1 -43 -30 -19 -24 -33 -47 -31 -51 1 -5 -1 -6 -6 -3 -5 3
-24 -11 -43 -30 -28 -29 -31 -37 -19 -45 13 -9 13 -10 0 -6 -20 6 -52 -11 -44
-24 3 -6 12 -8 20 -5 7 3 82 6 166 7 259 3 369 19 418 60 14 11 19 17 11 13
-9 -5 -12 -3 -7 5 4 6 11 9 16 6 23 -14 153 156 231 303 l34 62 6 -127 c4 -71
7 -230 8 -354 l1 -227 -35 -26 c-21 -16 -33 -32 -29 -39 4 -7 4 -9 -1 -5 -4 4
-34 -11 -67 -34 -33 -22 -90 -54 -127 -72 -65 -30 -69 -31 -211 -30 -121 0
-163 5 -255 27 -199 48 -268 71 -271 89 -1 10 -5 36 -9 58 -6 38 -6 40 19 40
17 0 26 5 26 16 0 12 -6 15 -21 11 -18 -5 -20 -2 -14 16 21 68 12 113 -20 101
-10 -4 -16 6 -20 33 -32 185 -87 383 -106 383 -5 0 -8 3 -8 8 4 23 -2 35 -12
25 -8 -8 -5 -22 10 -51 30 -60 78 -243 95 -367 30 -218 39 -401 34 -735 -2
-181 -1 -330 2 -330 4 0 7 -6 7 -12 0 -10 -123 -12 -585 -10 l-585 2 6 118 c6
111 21 330 32 472 2 36 14 196 25 355 11 160 22 315 25 345 l6 55 -77 94 c-42
52 -102 129 -131 170 -30 42 -59 75 -65 73 -5 -1 -7 2 -4 7 8 12 -43 87 -56
83 -5 -1 -7 2 -3 8 3 5 -5 25 -18 42 -75 101 -214 368 -264 508 -66 183 -54
290 42 386 85 85 261 155 431 171 35 3 64 9 64 12 0 3 25 6 56 7 36 0 59 6 66
15 8 11 9 10 4 -3 -4 -13 0 -18 14 -18 11 0 20 -4 20 -10 0 -5 5 -10 11 -10 5
0 8 4 5 9 -4 5 -2 11 3 13 5 1 23 33 40 70 53 114 87 117 212 17z m-5301 -54
c28 -20 55 -33 61 -30 5 4 8 2 7 -4 -2 -5 26 -29 62 -53 l65 -43 6 -150 c4
-82 11 -177 18 -210 34 -179 66 -525 58 -637 l-5 -77 31 6 c78 15 182 50 180
61 -2 6 3 9 11 6 31 -12 55 105 56 272 0 197 -24 405 -56 481 -15 34 -31 60
-35 57 -5 -3 -6 1 -4 9 3 7 -14 56 -39 109 l-45 97 20 25 c19 24 26 26 108 26
77 0 93 -3 124 -24 19 -13 39 -21 43 -18 4 4 4 2 0 -5 -4 -7 1 -27 10 -45 15
-29 15 -41 3 -118 -18 -111 -17 -113 24 -335 86 -462 99 -741 40 -832 -17 -26
-120 -108 -171 -136 -18 -10 -39 -16 -46 -14 -7 3 -74 87 -147 187 l-134 182
-65 -7 c-157 -15 -215 -17 -207 -9 5 5 11 7 15 4 11 -9 41 153 53 285 11 118
7 400 -5 463 -6 26 -52 86 -59 74 -2 -4 -2 -1 -1 6 2 7 -30 60 -71 118 -41 57
-75 113 -75 124 0 22 48 159 63 178 17 21 56 13 107 -23z m3327 29 c-3 -3 -12
-4 -19 -1 -8 3 -5 6 6 6 11 1 17 -2 13 -5z m116 -11 c-7 -2 -21 -2 -30 0 -10
3 -4 5 12 5 17 0 24 -2 18 -5z m74 1 c-3 -3 -12 -4 -19 -1 -8 3 -5 6 6 6 11 1
17 -2 13 -5z m-419 -51 c-6 -7 -12 -13 -13 -13 -2 0 -5 6 -8 13 -3 7 3 13 14
13 13 0 15 -3 7 -13z m4419 -69 c-3 -3 -12 -4 -19 -1 -8 3 -5 6 6 6 11 1 17
-2 13 -5z m-54 -11 c-7 -2 -19 -2 -25 0 -7 3 -2 5 12 5 14 0 19 -2 13 -5z
m-8716 -35 c4 -7 37 -33 73 -58 36 -24 70 -49 75 -56 6 -6 26 -22 45 -35 68
-46 90 -67 90 -85 0 -27 -30 -13 -130 64 -56 42 -122 91 -146 107 -44 31 -58
50 -48 66 8 13 32 11 41 -3z m2800 6 c-3 -3 -12 -4 -19 -1 -8 3 -5 6 6 6 11 1
17 -2 13 -5z m-47 -9 c0 -2 -13 -11 -30 -20 -38 -19 -40 -11 -2 9 31 17 32 18
32 11z m7217 -21 c-3 -3 -12 -4 -19 -1 -8 3 -5 6 6 6 11 1 17 -2 13 -5z
m-7317 -44 c0 -5 -5 -10 -11 -10 -5 0 -7 5 -4 10 3 6 8 10 11 10 2 0 4 -4 4
-10z m2172 -45 c15 -27 29 -54 31 -58 1 -5 17 0 35 10 24 14 36 15 49 7 28
-17 27 -56 -1 -83 l-24 -23 64 -129 c35 -71 64 -133 64 -137 0 -8 -194 -52
-227 -52 -7 0 -13 7 -13 15 0 16 -25 21 -34 7 -3 -5 -15 -53 -26 -108 -16 -70
-25 -158 -31 -299 -29 -694 -124 -1151 -265 -1275 -19 -16 -35 -37 -35 -47 -1
-13 -2 -14 -5 -3 -3 11 -19 15 -59 16 -46 0 -59 4 -85 29 -41 39 -77 118 -89
196 -15 91 -13 302 4 454 8 72 15 131 15 133 0 8 24 -2 56 -23 l38 -26 61 178
c67 194 149 403 190 483 l26 51 -12 124 c-9 96 -9 131 0 153 10 24 9 38 -8 83
-19 54 -48 192 -53 259 -3 34 -2 35 41 42 50 9 188 53 211 68 29 20 55 6 82
-45z m2452 -1 c3 -8 2 -12 -4 -9 -6 3 -10 10 -10 16 0 14 7 11 14 -7z m1406
-224 c0 -187 -1 -200 -19 -210 -34 -18 -76 -12 -101 15 -31 33 -83 49 -118 37
l-28 -9 12 131 c11 119 20 193 29 221 2 7 47 11 114 12 l111 2 0 -199z m277
153 c-3 -10 -5 -2 -5 17 0 19 2 27 5 18 2 -10 2 -26 0 -35z m1453 -4 c0 -6 -4
-7 -10 -4 -5 3 -10 11 -10 16 0 6 5 7 10 4 6 -3 10 -11 10 -16z m-9767 -6 c-7
-2 -19 -2 -25 0 -7 3 -2 5 12 5 14 0 19 -2 13 -5z m3201 -56 c9 -23 16 -56 16
-72 0 -17 3 -46 6 -65 5 -30 10 -36 32 -38 35 -3 72 -31 96 -72 15 -25 20 -51
19 -109 -1 -71 -8 -109 -46 -251 -9 -31 -12 -56 -6 -58 12 -5 11 -376 -1 -567
-27 -402 -112 -673 -235 -750 -46 -28 -55 -30 -144 -29 -75 0 -109 6 -156 23
-33 13 -68 24 -77 24 -9 1 -15 4 -13 7 4 6 -78 90 -86 90 -10 0 -9 -289 0
-295 6 -3 24 1 41 10 55 28 302 115 311 109 28 -17 -5 -133 -60 -215 -40 -58
-68 -69 -186 -69 -119 0 -115 5 -115 -117 0 -52 -4 -73 -12 -73 -35 0 -1004 0
-1013 0 -6 0 -9 98 -7 280 l3 280 -25 43 c-13 23 -37 78 -52 122 -27 76 -28
89 -29 255 0 187 12 269 61 425 32 103 40 119 88 185 114 159 308 279 452 280
l31 0 7 92 c3 50 6 119 6 152 0 53 -3 63 -22 71 -52 24 -50 89 4 103 30 7 34
13 41 58 9 54 30 84 60 84 10 0 43 -7 73 -16 62 -18 167 -23 232 -11 34 6 42
4 42 -8 0 -8 6 -15 13 -16 7 0 8 -2 1 -5 -7 -3 -8 -20 -3 -52 22 -134 -2 -268
-57 -311 -14 -11 -50 -25 -80 -32 l-54 -12 0 -68 0 -67 40 -16 c109 -43 184
-134 210 -253 16 -74 82 -273 89 -269 3 2 7 -8 7 -22 3 -42 70 -192 112 -247
26 -34 46 -50 62 -51 31 -2 53 14 46 33 -3 8 -2 12 3 9 11 -7 30 15 34 40 2
10 8 28 14 39 34 65 114 419 154 680 6 44 16 85 21 92 6 7 0 33 -16 70 -27 64
-51 189 -62 321 -6 69 -4 82 8 82 24 0 37 -23 44 -74 12 -88 19 -54 22 112 2
92 6 170 9 174 11 20 32 4 47 -35z m5007 -24 c11 -13 13 -67 11 -277 l-3 -261
27 -57 c18 -37 34 -58 45 -58 31 0 99 -29 155 -66 36 -24 74 -63 107 -109 29
-40 86 -117 128 -171 95 -124 199 -277 199 -292 0 -7 3 -12 8 -12 16 0 108
-223 118 -285 3 -25 10 -42 15 -39 5 3 6 -1 3 -9 -4 -11 12 -17 70 -26 41 -6
81 -8 88 -5 7 3 27 24 44 48 l32 42 -14 54 c-26 102 -13 171 66 335 48 101
105 224 109 237 2 4 20 42 41 84 l38 77 -23 51 c-12 28 -32 72 -43 98 -19 43
-23 47 -44 40 -13 -5 -42 -10 -65 -11 -93 -6 -133 95 -141 352 -2 92 -1 167 3
167 3 0 21 -11 39 -25 18 -13 52 -33 77 -44 64 -28 206 -54 256 -47 44 6 73
-10 73 -40 0 -19 -45 -64 -63 -64 -18 0 -33 -76 -49 -253 -24 -251 3 -309 239
-528 86 -80 112 -139 128 -300 16 -149 27 -194 58 -240 30 -45 60 -59 132 -59
l61 0 -1 -42 c0 -24 4 -119 9 -212 l9 -169 52 -101 c29 -56 73 -137 97 -181
25 -44 48 -90 52 -102 l7 -23 -420 0 -421 0 0 68 c0 37 5 126 12 198 10 120
10 134 -7 172 -11 25 -26 42 -36 42 -9 0 -45 9 -80 20 -35 11 -69 18 -77 15
-7 -2 -10 0 -7 5 14 22 -13 8 -38 -19 -14 -16 -46 -41 -71 -56 -43 -25 -52
-27 -156 -23 -60 1 -110 6 -110 11 0 4 -14 7 -30 7 -23 0 -33 -6 -39 -22 -5
-13 -6 -27 -3 -32 3 -5 0 -6 -5 -3 -13 8 -26 -20 -16 -35 3 -7 1 -8 -5 -4 -7
4 -12 1 -12 -8 0 -9 -3 -16 -8 -16 -4 0 -13 -15 -21 -33 -24 -55 -55 -94 -71
-90 -8 3 -22 7 -30 10 -8 4 -18 7 -21 7 -12 2 -79 51 -79 59 0 4 -7 7 -15 7
-8 0 -15 4 -15 8 0 4 -12 13 -27 19 -34 15 -66 35 -74 47 -4 5 -13 7 -21 4
-15 -6 -41 -115 -31 -132 3 -6 2 -8 -2 -3 -11 10 -46 -129 -38 -150 4 -11 3
-14 -5 -9 -8 5 -12 0 -12 -13 0 -53 15 -51 -351 -51 -226 0 -339 3 -339 10 0
6 7 13 15 16 13 5 15 110 15 855 0 467 -4 849 -8 849 -4 0 -8 9 -8 20 0 10 2
17 5 14 7 -6 51 38 46 46 -2 4 1 7 8 7 7 1 39 13 72 27 33 14 67 26 76 26 12
0 16 13 18 58 1 31 5 60 9 63 4 4 32 15 62 24 30 10 74 26 98 36 l42 18 0 215
0 215 26 20 c32 25 38 26 55 4z m96 -15 c-3 -8 -6 -5 -6 6 -1 11 2 17 5 13 3
-3 4 -12 1 -19z m-8036 -150 c106 -166 159 -297 159 -394 l0 -64 -42 -27 c-24
-15 -44 -27 -45 -28 -1 0 -5 -35 -9 -78 l-7 -77 34 -1 c19 -1 -4 -7 -51 -14
-152 -24 -201 -36 -256 -60 -60 -27 -60 -27 -45 52 5 26 12 65 16 85 l6 37 58
3 59 3 -45 100 c-25 55 -58 114 -74 130 -31 33 -39 81 -17 103 26 26 86 9 119
-32 l17 -21 11 28 c16 42 14 53 -24 167 -19 57 -35 107 -35 111 0 4 22 15 50
24 27 9 52 21 55 26 4 5 8 9 10 9 2 0 27 -37 56 -82z m-604 -50 c-3 -8 -6 -5
-6 6 -1 11 2 17 5 13 3 -3 4 -12 1 -19z m10170 -20 c-3 -8 -6 -5 -6 6 -1 11 2
17 5 13 3 -3 4 -12 1 -19z m-2070 -80 c-3 -7 -5 -2 -5 12 0 14 2 19 5 13 2 -7
2 -19 0 -25z m-8100 -40 c-3 -7 -5 -2 -5 12 0 14 2 19 5 13 2 -7 2 -19 0 -25z
m2368 -20 c5 -4 0 -6 -12 -6 -13 1 -19 7 -16 15 3 8 8 10 12 6 3 -4 10 -11 16
-15z m2602 -14 c-3 -3 -12 -4 -19 -1 -8 3 -5 6 6 6 11 1 17 -2 13 -5z m5283
-138 c0 -12 -14 5 -31 39 -8 16 -6 15 10 -4 12 -13 21 -28 21 -35z m-2142 -1
c-3 -3 -9 2 -12 12 -6 14 -5 15 5 6 7 -7 10 -15 7 -18z m-2895 -85 c3 -11 1
-18 -4 -14 -5 3 -9 12 -9 20 0 20 7 17 13 -6z m-1043 -33 c0 -2 -10 -12 -22
-23 l-23 -19 19 23 c18 21 26 27 26 19z m-230 -337 c0 -5 -5 -10 -11 -10 -5 0
-7 5 -4 10 3 6 8 10 11 10 2 0 4 -4 4 -10z m6603 -59 c-2 -3 -18 10 -36 29
l-32 34 36 -30 c20 -16 34 -31 32 -33z m-10337 1 c-17 -16 -18 -16 -5 5 7 12
15 20 18 17 3 -2 -3 -12 -13 -22z m10405 -59 c13 -16 12 -17 -3 -4 -10 7 -18
15 -18 17 0 8 8 3 21 -13z m-10510 -126 c-10 -9 -11 -8 -5 6 3 10 9 15 12 12
3 -3 0 -11 -7 -18z m1329 19 c0 -3 -4 -8 -10 -11 -5 -3 -10 -1 -10 4 0 6 5 11
10 11 6 0 10 -2 10 -4z m-70 -46 c0 -5 -2 -10 -4 -10 -3 0 -8 5 -11 10 -3 6
-1 10 4 10 6 0 11 -4 11 -10z m4127 -22 c-3 -8 -6 -5 -6 6 -1 11 2 17 5 13 3
-3 4 -12 1 -19z m6 -50 c3 -18 11 -107 18 -198 20 -256 -9 -419 -83 -472 -115
-81 -429 -172 -981 -284 -139 -28 -179 -40 -221 -66 -93 -59 -145 -96 -141
-100 3 -2 -19 -4 -48 -3 -50 1 -123 34 -142 65 -3 6 -11 7 -17 4 -7 -5 -8 -2
-3 5 4 7 -2 22 -14 35 -34 36 -37 77 -7 113 23 28 32 31 108 37 58 4 96 2 128
-8 l45 -13 460 229 c253 126 463 232 466 236 4 4 -6 90 -21 192 -15 102 -26
187 -23 190 4 5 407 67 449 69 17 1 23 -6 27 -31z m-4288 12 c-3 -5 -12 -10
-18 -10 -7 0 -6 4 3 10 19 12 23 12 15 0z m9480 -179 c3 -5 2 -12 -3 -15 -5
-3 -9 1 -9 9 0 17 3 19 12 6z m-9738 -83 c-3 -7 -5 -2 -5 12 0 14 2 19 5 13 2
-7 2 -19 0 -25z m9616 -72 c4 -10 1 -13 -8 -9 -8 3 -12 9 -9 14 7 12 11 11 17
-5z m-9596 -188 c-3 -7 -5 -2 -5 12 0 14 2 19 5 13 2 -7 2 -19 0 -25z m20
-275 c-3 -10 -5 -2 -5 17 0 19 2 27 5 18 2 -10 2 -26 0 -35z m10 -95 c-3 -8
-6 -5 -6 6 -1 11 2 17 5 13 3 -3 4 -12 1 -19z m0 -55 c-3 -10 -5 -4 -5 12 0
17 2 24 5 18 2 -7 2 -21 0 -30z m4330 -25 c-2 -13 -4 -3 -4 22 0 25 2 35 4 23
2 -13 2 -33 0 -45z m0 -85 c-3 -10 -5 -4 -5 12 0 17 2 24 5 18 2 -7 2 -21 0
-30z m-5180 -129 c-3 -3 -12 -4 -19 -1 -8 3 -5 6 6 6 11 1 17 -2 13 -5z m860
0 c-3 -3 -12 -4 -19 -1 -8 3 -5 6 6 6 11 1 17 -2 13 -5z m3156 -1 c-7 -2 -19
-2 -25 0 -7 3 -2 5 12 5 14 0 19 -2 13 -5z m160 0 c-7 -2 -19 -2 -25 0 -7 3
-2 5 12 5 14 0 19 -2 13 -5z m970 0 c-7 -2 -19 -2 -25 0 -7 3 -2 5 12 5 14 0
19 -2 13 -5z"/>
<path d="M7803 1769 c-25 -27 -30 -38 -21 -47 7 -7 15 -12 19 -12 7 0 22 40
20 54 -1 5 3 12 10 16 6 4 10 12 8 17 -2 5 -18 -8 -36 -28z"/>
</g>
</svg>
